<svg width="265" height="265" viewBox="0 0 265 265" fill="none" xmlns="http://www.w3.org/2000/svg">
<path d="M249.916 147.133C249.916 147.133 251.565 83.051 213.807 53C180.476 26.4576 133.777 21.624 101.447 53.3074C89.9411 64.5911 83.3797 83.9467 69.1174 91.9179C53.0955 100.859 31.5616 106.625 20.0553 135.653C8.54897 164.682 19.7214 197.69 43.741 212.339C67.7606 226.988 101.76 203.356 134.806 196.63C167.851 189.904 244.961 226.697 249.916 147.133Z" fill="#92E3A9"/>
<path opacity="0.7" d="M249.916 147.133C249.916 147.133 251.565 83.051 213.807 53C180.476 26.4576 133.777 21.624 101.447 53.3074C89.9411 64.5911 83.3797 83.9467 69.1174 91.9179C53.0955 100.859 31.5616 106.625 20.0553 135.653C8.54897 164.682 19.7214 197.69 43.741 212.339C67.7606 226.988 101.76 203.356 134.806 196.63C167.851 189.904 244.961 226.697 249.916 147.133Z" fill="white"/>
<path opacity="0.3" d="M203.748 36.5276C203.748 36.5276 203.748 22.5409 187.631 22.2176C173.914 21.9632 173.321 32.8653 171.821 38.0328C170.321 43.2003 167.867 38.0328 162.09 39.2465C156.313 40.4602 156.313 46.2425 155.396 49.8942C154.479 53.5459 150.52 49.29 146.28 50.5143C142.04 51.7386 139.893 56.2913 138.982 58.1198C138.07 59.9483 131.795 57.1817 128.101 58.5279C124.407 59.8741 120.427 65.72 120.427 65.72H228.377C228.377 65.72 232.617 55.6871 225.34 48.9932C218.063 42.2993 213.177 46.5605 208.613 44.4352C204.05 42.3099 203.748 36.5276 203.748 36.5276Z" stroke="black" stroke-miterlimit="10"/>
<path opacity="0.3" d="M57.346 89.7396C57.346 89.7396 57.346 81.196 47.5092 81.0105C39.1352 80.8568 38.7854 87.5083 37.8526 90.6671C36.9198 93.8259 35.4411 90.6671 31.9113 91.4091C28.3815 92.1511 28.3868 95.6809 27.8303 97.9069C27.2738 100.133 24.857 97.5359 22.26 98.2779C19.663 99.0199 18.3592 101.808 17.8027 102.921C17.2462 104.034 13.4143 102.348 11.1618 103.17C8.90926 103.991 6.47656 107.59 6.47656 107.59H72.3874C72.3874 107.59 74.9844 101.463 70.5324 97.3769C66.0804 93.2906 63.1124 95.8929 60.3193 94.5944C57.5262 93.2959 57.346 89.7396 57.346 89.7396Z" stroke="black" stroke-miterlimit="10"/>
<g opacity="0.3">
<path d="M50.0109 157.988H44.7109V162.668H50.0109V157.988Z" stroke="black" stroke-miterlimit="10"/>
<path d="M41.1281 160.823H38.9763V162.668H41.1281V160.823Z" stroke="black" stroke-miterlimit="10"/>
<path d="M256.79 187.535H236.698V150.403H238.039V146.561H190.954V150.403H192.586V205.624H180.237V87.1532H137.89V176.75H122.404V166.828H126.458V162.636H92.6017V102.534H94.7906V99.3856H53.6943V102.534H56.6411V162.736H24.1575V205.799H7.10205" stroke="black" stroke-miterlimit="10"/>
<path d="M181.923 85.86H136.003V87.1479H181.923V85.86Z" stroke="black" stroke-miterlimit="10"/>
<path d="M65.4921 106.027H60.3193V110.876H65.4921V106.027Z" stroke="black" stroke-miterlimit="10"/>
<path d="M73.0764 106.027H67.9036V110.876H73.0764V106.027Z" stroke="black" stroke-miterlimit="10"/>
<path d="M80.6608 106.027H75.488V110.876H80.6608V106.027Z" stroke="black" stroke-miterlimit="10"/>
<path d="M88.2504 106.027H83.0776V110.876H88.2504V106.027Z" stroke="black" stroke-miterlimit="10"/>
<path d="M65.4921 113.712H60.3193V118.561H65.4921V113.712Z" stroke="black" stroke-miterlimit="10"/>
<path d="M73.0764 113.712H67.9036V118.561H73.0764V113.712Z" stroke="black" stroke-miterlimit="10"/>
<path d="M80.6608 113.712H75.488V118.561H80.6608V113.712Z" stroke="black" stroke-miterlimit="10"/>
<path d="M88.2504 113.712H83.0776V118.561H88.2504V113.712Z" stroke="black" stroke-miterlimit="10"/>
<path d="M65.4921 121.402H60.3193V126.251H65.4921V121.402Z" stroke="black" stroke-miterlimit="10"/>
<path d="M73.0764 121.402H67.9036V126.251H73.0764V121.402Z" stroke="black" stroke-miterlimit="10"/>
<path d="M80.6608 121.402H75.488V126.251H80.6608V121.402Z" stroke="black" stroke-miterlimit="10"/>
<path d="M88.2504 121.402H83.0776V126.251H88.2504V121.402Z" stroke="black" stroke-miterlimit="10"/>
<path d="M65.4921 129.087H60.3193V133.936H65.4921V129.087Z" stroke="black" stroke-miterlimit="10"/>
<path d="M73.0764 129.087H67.9036V133.936H73.0764V129.087Z" stroke="black" stroke-miterlimit="10"/>
<path d="M80.6608 129.087H75.488V133.936H80.6608V129.087Z" stroke="black" stroke-miterlimit="10"/>
<path d="M88.2504 129.087H83.0776V133.936H88.2504V129.087Z" stroke="black" stroke-miterlimit="10"/>
<path d="M65.4921 136.777H60.3193V141.627H65.4921V136.777Z" stroke="black" stroke-miterlimit="10"/>
<path d="M73.0764 136.777H67.9036V141.627H73.0764V136.777Z" stroke="black" stroke-miterlimit="10"/>
<path d="M80.6608 136.777H75.488V141.627H80.6608V136.777Z" stroke="black" stroke-miterlimit="10"/>
<path d="M88.2504 136.777H83.0776V141.627H88.2504V136.777Z" stroke="black" stroke-miterlimit="10"/>
<path d="M65.4921 144.467H60.3193V149.317H65.4921V144.467Z" stroke="black" stroke-miterlimit="10"/>
<path d="M73.0764 144.467H67.9036V149.317H73.0764V144.467Z" stroke="black" stroke-miterlimit="10"/>
<path d="M80.6608 144.467H75.488V149.317H80.6608V144.467Z" stroke="black" stroke-miterlimit="10"/>
<path d="M88.2504 144.467H83.0776V149.317H88.2504V144.467Z" stroke="black" stroke-miterlimit="10"/>
<path d="M65.4921 152.152H60.3193V157.002H65.4921V152.152Z" stroke="black" stroke-miterlimit="10"/>
<path d="M73.0764 152.152H67.9036V157.002H73.0764V152.152Z" stroke="black" stroke-miterlimit="10"/>
<path d="M80.6608 152.152H75.488V157.002H80.6608V152.152Z" stroke="black" stroke-miterlimit="10"/>
<path d="M88.2504 152.152H83.0776V157.002H88.2504V152.152Z" stroke="black" stroke-miterlimit="10"/>
<path d="M65.4921 159.843H60.3193V164.692H65.4921V159.843Z" stroke="black" stroke-miterlimit="10"/>
<path d="M73.0764 159.843H67.9036V164.692H73.0764V159.843Z" stroke="black" stroke-miterlimit="10"/>
<path d="M80.6608 159.843H75.488V164.692H80.6608V159.843Z" stroke="black" stroke-miterlimit="10"/>
<path d="M88.2504 159.843H83.0776V164.692H88.2504V159.843Z" stroke="black" stroke-miterlimit="10"/>
<path d="M65.4921 166.871H60.3193V171.72H65.4921V166.871Z" stroke="black" stroke-miterlimit="10"/>
<path d="M73.0764 166.871H67.9036V171.72H73.0764V166.871Z" stroke="black" stroke-miterlimit="10"/>
<path d="M80.6608 166.871H75.488V171.72H80.6608V166.871Z" stroke="black" stroke-miterlimit="10"/>
<path d="M88.2504 166.871H83.0776V171.72H88.2504V166.871Z" stroke="black" stroke-miterlimit="10"/>
<path d="M65.4921 174.561H60.3193V179.41H65.4921V174.561Z" stroke="black" stroke-miterlimit="10"/>
<path d="M73.0764 174.561H67.9036V179.41H73.0764V174.561Z" stroke="black" stroke-miterlimit="10"/>
<path d="M80.6608 174.561H75.488V179.41H80.6608V174.561Z" stroke="black" stroke-miterlimit="10"/>
<path d="M88.2504 174.561H83.0776V179.41H88.2504V174.561Z" stroke="black" stroke-miterlimit="10"/>
<path d="M65.4921 182.246H60.3193V187.095H65.4921V182.246Z" stroke="black" stroke-miterlimit="10"/>
<path d="M73.0764 182.246H67.9036V187.095H73.0764V182.246Z" stroke="black" stroke-miterlimit="10"/>
<path d="M80.6608 182.246H75.488V187.095H80.6608V182.246Z" stroke="black" stroke-miterlimit="10"/>
<path d="M88.2504 182.246H83.0776V187.095H88.2504V182.246Z" stroke="black" stroke-miterlimit="10"/>
<path d="M65.4921 189.936H60.3193V194.786H65.4921V189.936Z" stroke="black" stroke-miterlimit="10"/>
<path d="M73.0764 189.936H67.9036V194.786H73.0764V189.936Z" stroke="black" stroke-miterlimit="10"/>
<path d="M80.6608 189.936H75.488V194.786H80.6608V189.936Z" stroke="black" stroke-miterlimit="10"/>
<path d="M88.2504 189.936H83.0776V194.786H88.2504V189.936Z" stroke="black" stroke-miterlimit="10"/>
<path d="M65.4921 197.626H60.3193V202.476H65.4921V197.626Z" stroke="black" stroke-miterlimit="10"/>
<path d="M73.0764 197.626H67.9036V202.476H73.0764V197.626Z" stroke="black" stroke-miterlimit="10"/>
<path d="M80.6608 197.626H75.488V202.476H80.6608V197.626Z" stroke="black" stroke-miterlimit="10"/>
<path d="M88.2504 197.626H83.0776V202.476H88.2504V197.626Z" stroke="black" stroke-miterlimit="10"/>
<path d="M65.4921 205.311H60.3193V210.161H65.4921V205.311Z" stroke="black" stroke-miterlimit="10"/>
<path d="M73.0764 205.311H67.9036V210.161H73.0764V205.311Z" stroke="black" stroke-miterlimit="10"/>
<path d="M80.6608 205.311H75.488V210.161H80.6608V205.311Z" stroke="black" stroke-miterlimit="10"/>
<path d="M88.2504 205.311H83.0776V210.161H88.2504V205.311Z" stroke="black" stroke-miterlimit="10"/>
<path d="M65.4921 213.002H60.3193V217.851H65.4921V213.002Z" stroke="black" stroke-miterlimit="10"/>
<path d="M73.0764 213.002H67.9036V217.851H73.0764V213.002Z" stroke="black" stroke-miterlimit="10"/>
<path d="M80.6608 213.002H75.488V217.851H80.6608V213.002Z" stroke="black" stroke-miterlimit="10"/>
<path d="M88.2504 213.002H83.0776V217.851H88.2504V213.002Z" stroke="black" stroke-miterlimit="10"/>
<path d="M65.4921 220.687H60.3193V225.536H65.4921V220.687Z" stroke="black" stroke-miterlimit="10"/>
<path d="M73.0764 220.687H67.9036V225.536H73.0764V220.687Z" stroke="black" stroke-miterlimit="10"/>
<path d="M80.6608 220.687H75.488V225.536H80.6608V220.687Z" stroke="black" stroke-miterlimit="10"/>
<path d="M88.2504 220.687H83.0776V225.536H88.2504V220.687Z" stroke="black" stroke-miterlimit="10"/>
<path d="M95.1191 166.871H89.9463V171.72H95.1191V166.871Z" stroke="black" stroke-miterlimit="10"/>
<path d="M102.709 166.871H97.5359V171.72H102.709V166.871Z" stroke="black" stroke-miterlimit="10"/>
<path d="M110.293 166.871H105.12V171.72H110.293V166.871Z" stroke="black" stroke-miterlimit="10"/>
<path d="M117.877 166.871H112.705V171.72H117.877V166.871Z" stroke="black" stroke-miterlimit="10"/>
<path d="M95.1191 174.561H89.9463V179.41H95.1191V174.561Z" stroke="black" stroke-miterlimit="10"/>
<path d="M102.709 174.561H97.5359V179.41H102.709V174.561Z" stroke="black" stroke-miterlimit="10"/>
<path d="M110.293 174.561H105.12V179.41H110.293V174.561Z" stroke="black" stroke-miterlimit="10"/>
<path d="M117.877 174.561H112.705V179.41H117.877V174.561Z" stroke="black" stroke-miterlimit="10"/>
<path d="M95.1191 182.246H89.9463V187.095H95.1191V182.246Z" stroke="black" stroke-miterlimit="10"/>
<path d="M102.709 182.246H97.5359V187.095H102.709V182.246Z" stroke="black" stroke-miterlimit="10"/>
<path d="M110.293 182.246H105.12V187.095H110.293V182.246Z" stroke="black" stroke-miterlimit="10"/>
<path d="M117.877 182.246H112.705V187.095H117.877V182.246Z" stroke="black" stroke-miterlimit="10"/>
<path d="M95.1191 189.936H89.9463V194.786H95.1191V189.936Z" stroke="black" stroke-miterlimit="10"/>
<path d="M102.709 189.936H97.5359V194.786H102.709V189.936Z" stroke="black" stroke-miterlimit="10"/>
<path d="M110.293 189.936H105.12V194.786H110.293V189.936Z" stroke="black" stroke-miterlimit="10"/>
<path d="M117.877 189.936H112.705V194.786H117.877V189.936Z" stroke="black" stroke-miterlimit="10"/>
<path d="M95.1191 197.626H89.9463V202.476H95.1191V197.626Z" stroke="black" stroke-miterlimit="10"/>
<path d="M102.709 197.626H97.5359V202.476H102.709V197.626Z" stroke="black" stroke-miterlimit="10"/>
<path d="M110.293 197.626H105.12V202.476H110.293V197.626Z" stroke="black" stroke-miterlimit="10"/>
<path d="M117.877 197.626H112.705V202.476H117.877V197.626Z" stroke="black" stroke-miterlimit="10"/>
<path d="M95.1191 205.311H89.9463V210.161H95.1191V205.311Z" stroke="black" stroke-miterlimit="10"/>
<path d="M102.709 205.311H97.5359V210.161H102.709V205.311Z" stroke="black" stroke-miterlimit="10"/>
<path d="M110.293 205.311H105.12V210.161H110.293V205.311Z" stroke="black" stroke-miterlimit="10"/>
<path d="M117.877 205.311H112.705V210.161H117.877V205.311Z" stroke="black" stroke-miterlimit="10"/>
<path d="M95.1191 213.002H89.9463V217.851H95.1191V213.002Z" stroke="black" stroke-miterlimit="10"/>
<path d="M102.709 213.002H97.5359V217.851H102.709V213.002Z" stroke="black" stroke-miterlimit="10"/>
<path d="M110.293 213.002H105.12V217.851H110.293V213.002Z" stroke="black" stroke-miterlimit="10"/>
<path d="M117.877 213.002H112.705V217.851H117.877V213.002Z" stroke="black" stroke-miterlimit="10"/>
<path d="M95.1191 220.687H89.9463V225.536H95.1191V220.687Z" stroke="black" stroke-miterlimit="10"/>
<path d="M102.709 220.687H97.5359V225.536H102.709V220.687Z" stroke="black" stroke-miterlimit="10"/>
<path d="M110.293 220.687H105.12V225.536H110.293V220.687Z" stroke="black" stroke-miterlimit="10"/>
<path d="M117.877 220.687H112.705V225.536H117.877V220.687Z" stroke="black" stroke-miterlimit="10"/>
<path d="M35.4411 166.871H30.2683V171.72H35.4411V166.871Z" stroke="black" stroke-miterlimit="10"/>
<path d="M43.0307 166.871H37.8579V171.72H43.0307V166.871Z" stroke="black" stroke-miterlimit="10"/>
<path d="M50.6149 166.871H45.4421V171.72H50.6149V166.871Z" stroke="black" stroke-miterlimit="10"/>
<path d="M58.1994 166.871H53.0266V171.72H58.1994V166.871Z" stroke="black" stroke-miterlimit="10"/>
<path d="M35.4411 174.561H30.2683V179.41H35.4411V174.561Z" stroke="black" stroke-miterlimit="10"/>
<path d="M43.0307 174.561H37.8579V179.41H43.0307V174.561Z" stroke="black" stroke-miterlimit="10"/>
<path d="M50.6149 174.561H45.4421V179.41H50.6149V174.561Z" stroke="black" stroke-miterlimit="10"/>
<path d="M58.1994 174.561H53.0266V179.41H58.1994V174.561Z" stroke="black" stroke-miterlimit="10"/>
<path d="M35.4411 182.246H30.2683V187.095H35.4411V182.246Z" stroke="black" stroke-miterlimit="10"/>
<path d="M43.0307 182.246H37.8579V187.095H43.0307V182.246Z" stroke="black" stroke-miterlimit="10"/>
<path d="M50.6149 182.246H45.4421V187.095H50.6149V182.246Z" stroke="black" stroke-miterlimit="10"/>
<path d="M58.1994 182.246H53.0266V187.095H58.1994V182.246Z" stroke="black" stroke-miterlimit="10"/>
<path d="M35.4411 189.936H30.2683V194.786H35.4411V189.936Z" stroke="black" stroke-miterlimit="10"/>
<path d="M43.0307 189.936H37.8579V194.786H43.0307V189.936Z" stroke="black" stroke-miterlimit="10"/>
<path d="M50.6149 189.936H45.4421V194.786H50.6149V189.936Z" stroke="black" stroke-miterlimit="10"/>
<path d="M58.1994 189.936H53.0266V194.786H58.1994V189.936Z" stroke="black" stroke-miterlimit="10"/>
<path d="M35.4411 197.626H30.2683V202.476H35.4411V197.626Z" stroke="black" stroke-miterlimit="10"/>
<path d="M43.0307 197.626H37.8579V202.476H43.0307V197.626Z" stroke="black" stroke-miterlimit="10"/>
<path d="M50.6149 197.626H45.4421V202.476H50.6149V197.626Z" stroke="black" stroke-miterlimit="10"/>
<path d="M58.1994 197.626H53.0266V202.476H58.1994V197.626Z" stroke="black" stroke-miterlimit="10"/>
<path d="M35.4411 205.311H30.2683V210.161H35.4411V205.311Z" stroke="black" stroke-miterlimit="10"/>
<path d="M43.0307 205.311H37.8579V210.161H43.0307V205.311Z" stroke="black" stroke-miterlimit="10"/>
<path d="M50.6149 205.311H45.4421V210.161H50.6149V205.311Z" stroke="black" stroke-miterlimit="10"/>
<path d="M58.1994 205.311H53.0266V210.161H58.1994V205.311Z" stroke="black" stroke-miterlimit="10"/>
<path d="M35.4411 213.002H30.2683V217.851H35.4411V213.002Z" stroke="black" stroke-miterlimit="10"/>
<path d="M43.0307 213.002H37.8579V217.851H43.0307V213.002Z" stroke="black" stroke-miterlimit="10"/>
<path d="M50.6149 213.002H45.4421V217.851H50.6149V213.002Z" stroke="black" stroke-miterlimit="10"/>
<path d="M58.1994 213.002H53.0266V217.851H58.1994V213.002Z" stroke="black" stroke-miterlimit="10"/>
<path d="M35.4411 220.687H30.2683V225.536H35.4411V220.687Z" stroke="black" stroke-miterlimit="10"/>
<path d="M43.0307 220.687H37.8579V225.536H43.0307V220.687Z" stroke="black" stroke-miterlimit="10"/>
<path d="M50.6149 220.687H45.4421V225.536H50.6149V220.687Z" stroke="black" stroke-miterlimit="10"/>
<path d="M58.1994 220.687H53.0266V225.536H58.1994V220.687Z" stroke="black" stroke-miterlimit="10"/>
<path d="M204.909 151.803H199.736V156.652H204.909V151.803Z" stroke="black" stroke-miterlimit="10"/>
<path d="M212.493 151.803H207.32V156.652H212.493V151.803Z" stroke="black" stroke-miterlimit="10"/>
<path d="M220.077 151.803H214.905V156.652H220.077V151.803Z" stroke="black" stroke-miterlimit="10"/>
<path d="M227.667 151.803H222.494V156.652H227.667V151.803Z" stroke="black" stroke-miterlimit="10"/>
<path d="M204.909 159.493H199.736V164.342H204.909V159.493Z" stroke="black" stroke-miterlimit="10"/>
<path d="M212.493 159.493H207.32V164.342H212.493V159.493Z" stroke="black" stroke-miterlimit="10"/>
<path d="M220.077 159.493H214.905V164.342H220.077V159.493Z" stroke="black" stroke-miterlimit="10"/>
<path d="M227.667 159.493H222.494V164.342H227.667V159.493Z" stroke="black" stroke-miterlimit="10"/>
<path d="M204.909 167.178H199.736V172.027H204.909V167.178Z" stroke="black" stroke-miterlimit="10"/>
<path d="M212.493 167.178H207.32V172.027H212.493V167.178Z" stroke="black" stroke-miterlimit="10"/>
<path d="M220.077 167.178H214.905V172.027H220.077V167.178Z" stroke="black" stroke-miterlimit="10"/>
<path d="M227.667 167.178H222.494V172.027H227.667V167.178Z" stroke="black" stroke-miterlimit="10"/>
<path d="M204.909 174.868H199.736V179.718H204.909V174.868Z" stroke="black" stroke-miterlimit="10"/>
<path d="M212.493 174.868H207.32V179.718H212.493V174.868Z" stroke="black" stroke-miterlimit="10"/>
<path d="M220.077 174.868H214.905V179.718H220.077V174.868Z" stroke="black" stroke-miterlimit="10"/>
<path d="M227.667 174.868H222.494V179.718H227.667V174.868Z" stroke="black" stroke-miterlimit="10"/>
<path d="M204.909 182.553H199.736V187.403H204.909V182.553Z" stroke="black" stroke-miterlimit="10"/>
<path d="M212.493 182.553H207.32V187.403H212.493V182.553Z" stroke="black" stroke-miterlimit="10"/>
<path d="M220.077 182.553H214.905V187.403H220.077V182.553Z" stroke="black" stroke-miterlimit="10"/>
<path d="M227.667 182.553H222.494V187.403H227.667V182.553Z" stroke="black" stroke-miterlimit="10"/>
<path d="M204.909 190.244H199.736V195.093H204.909V190.244Z" stroke="black" stroke-miterlimit="10"/>
<path d="M212.493 190.244H207.32V195.093H212.493V190.244Z" stroke="black" stroke-miterlimit="10"/>
<path d="M220.077 190.244H214.905V195.093H220.077V190.244Z" stroke="black" stroke-miterlimit="10"/>
<path d="M227.667 190.244H222.494V195.093H227.667V190.244Z" stroke="black" stroke-miterlimit="10"/>
<path d="M204.909 197.929H199.736V202.778H204.909V197.929Z" stroke="black" stroke-miterlimit="10"/>
<path d="M212.493 197.929H207.32V202.778H212.493V197.929Z" stroke="black" stroke-miterlimit="10"/>
<path d="M220.077 197.929H214.905V202.778H220.077V197.929Z" stroke="black" stroke-miterlimit="10"/>
<path d="M227.667 197.929H222.494V202.778H227.667V197.929Z" stroke="black" stroke-miterlimit="10"/>
<path d="M204.909 205.619H199.736V210.468H204.909V205.619Z" stroke="black" stroke-miterlimit="10"/>
<path d="M212.493 205.619H207.32V210.468H212.493V205.619Z" stroke="black" stroke-miterlimit="10"/>
<path d="M220.077 205.619H214.905V210.468H220.077V205.619Z" stroke="black" stroke-miterlimit="10"/>
<path d="M227.667 205.619H222.494V210.468H227.667V205.619Z" stroke="black" stroke-miterlimit="10"/>
<path d="M141.876 89.9516V230.428" stroke="black" stroke-miterlimit="10"/>
<path d="M147.006 89.9516V230.428" stroke="black" stroke-miterlimit="10"/>
<path d="M152.136 89.9516V230.428" stroke="black" stroke-miterlimit="10"/>
<path d="M157.267 89.9516V230.428" stroke="black" stroke-miterlimit="10"/>
<path d="M162.397 89.9516V230.428" stroke="black" stroke-miterlimit="10"/>
<path d="M167.528 89.9516V230.428" stroke="black" stroke-miterlimit="10"/>
<path d="M172.658 89.9516V230.428" stroke="black" stroke-miterlimit="10"/>
<path d="M177.789 89.9516V230.428" stroke="black" stroke-miterlimit="10"/>
</g>
<path d="M10.1655 204.103C11.7129 204.383 13.298 204.383 14.8454 204.103C14.8454 205.052 14.8454 206.053 14.9567 207.092C15.0766 208.61 15.3302 210.114 15.7146 211.587V211.64C15.4549 211.226 14.6864 210.103 14.6175 210.023C13.6476 208.905 11.1089 207.304 9.58248 207.956C9.33115 208.071 9.10683 208.237 8.9242 208.444C8.74158 208.651 8.60475 208.894 8.5227 209.158C8.44064 209.422 8.4152 209.7 8.44805 209.974C8.48089 210.248 8.57127 210.512 8.71328 210.749C9.27508 211.772 10.6266 212.281 11.7237 212.44C12.9586 212.62 15.5609 211.867 15.7676 211.809C16.2 213.297 16.7312 214.754 17.3576 216.171C17.7127 217.003 18.0996 217.825 18.4971 218.646C18.2586 218.296 18.0466 217.989 18.0095 217.947C17.0396 216.828 14.5062 215.233 12.9798 215.88C12.7286 215.994 12.5043 216.16 12.3216 216.367C12.1389 216.574 12.0019 216.818 11.9194 217.081C11.8369 217.345 11.8108 217.622 11.8428 217.897C11.8749 218.171 11.9643 218.435 12.1053 218.673C12.6724 219.701 14.0239 220.21 15.121 220.369C16.2181 220.528 18.4653 219.929 19.0536 219.764L19.5147 220.703C20.2726 222.202 21.0305 223.697 21.7248 225.186C21.9739 225.716 22.1965 226.246 22.4244 226.776C22.2124 226.469 22.0322 226.209 22.0004 226.172C21.0305 225.049 18.4971 223.453 16.9654 224.105C16.7148 224.22 16.4912 224.386 16.309 224.592C16.1269 224.799 15.9904 225.042 15.9084 225.305C15.8264 225.568 15.8007 225.845 15.8331 226.119C15.8654 226.393 15.9551 226.656 16.0962 226.893C16.6633 227.921 18.0148 228.43 19.1066 228.589C20.1984 228.748 22.2336 228.213 22.9332 228.017C23.1505 228.547 23.3625 229.108 23.548 229.644C23.6646 230.015 23.8024 230.359 23.8978 230.741C23.9932 231.122 24.1045 231.477 24.2105 231.843C24.3801 232.553 24.5603 233.285 24.7087 233.963C24.8147 234.445 24.9101 234.912 25.0055 235.378C24.7617 234.848 24.2741 233.836 24.2211 233.756C23.4314 232.5 21.1736 230.539 19.5624 230.947C19.294 231.022 19.0446 231.153 18.8307 231.331C18.6169 231.51 18.4435 231.732 18.3222 231.983C18.2008 232.233 18.1343 232.507 18.127 232.785C18.1196 233.064 18.1717 233.341 18.2798 233.597C18.6826 234.695 19.9387 235.405 20.9987 235.717C22.1647 236.073 24.7458 235.749 25.0691 235.717C25.2228 236.486 25.3659 237.239 25.4931 237.949C25.5885 238.479 25.6733 239.009 25.7528 239.539H26.7863C26.6856 238.982 26.5796 238.399 26.4577 237.795C26.304 237.011 26.1238 236.179 25.9277 235.32C26.7045 235.013 27.462 234.659 28.1961 234.26C29.0441 235.182 31.2224 236.258 31.5086 236.38C31.2118 237.106 30.915 237.811 30.6235 238.473C30.4698 238.839 30.3161 239.184 30.1624 239.533H31.2701C31.3602 239.311 31.4556 239.094 31.5457 238.866C31.8531 238.124 32.1605 237.329 32.4732 236.507C32.7859 236.576 35.3405 237.095 36.533 236.825C37.593 236.581 38.9233 235.972 39.4056 234.901C39.5279 234.656 39.5974 234.387 39.6096 234.113C39.6219 233.839 39.5767 233.565 39.4768 233.31C39.377 233.054 39.2248 232.822 39.0299 232.629C38.8351 232.436 38.602 232.285 38.3456 232.188C36.7556 231.658 34.3706 233.444 33.4908 234.636C33.4378 234.705 32.9608 235.532 32.664 236.062C32.7912 235.723 32.9184 235.399 33.0403 235.055C33.2947 234.371 33.5226 233.677 33.7717 232.935C33.883 232.575 33.9943 232.209 34.1003 231.838C34.2063 231.467 34.2964 231.069 34.3971 230.688C34.6144 229.787 34.784 228.865 34.9271 227.932C35.5313 228.154 37.6725 228.896 38.7802 228.822C39.8879 228.748 41.2712 228.335 41.9125 227.354C42.071 227.128 42.1801 226.871 42.2326 226.6C42.2852 226.329 42.2801 226.05 42.2176 225.781C42.1551 225.512 42.0366 225.259 41.8699 225.039C41.7032 224.818 41.492 224.636 41.25 224.503C39.7501 223.692 37.1001 225.096 36.0401 226.14C35.9765 226.204 35.3087 227.041 34.9483 227.508C35.0331 226.946 35.1285 226.384 35.1974 225.817C35.3988 224.169 35.5578 222.494 35.7274 220.83L35.8864 219.298C36.1037 219.378 38.6265 220.321 39.872 220.231C40.9744 220.157 42.363 219.749 43.0043 218.768C43.1628 218.542 43.2719 218.285 43.3244 218.014C43.377 217.743 43.3719 217.464 43.3094 217.195C43.2469 216.926 43.1284 216.673 42.9617 216.453C42.795 216.232 42.5838 216.05 42.3418 215.917C40.8684 215.159 38.2184 216.558 37.169 217.607C37.0895 217.687 36.109 218.89 35.897 219.197C36.0189 218.074 36.1461 216.955 36.3157 215.858C36.5421 214.376 36.8643 212.91 37.2803 211.47C37.3757 211.507 40.0098 212.53 41.2871 212.413C42.3895 212.334 43.7781 211.926 44.4141 210.945C44.5719 210.72 44.6805 210.463 44.733 210.193C44.7854 209.923 44.7805 209.644 44.7186 209.376C44.6566 209.108 44.539 208.855 44.3733 208.635C44.2077 208.416 43.9976 208.233 43.7569 208.099C42.2782 207.336 39.6335 208.74 38.5841 209.785C38.5152 209.853 37.7785 210.77 37.4393 211.216L37.3545 211.168C37.8091 209.731 38.3928 208.339 39.0982 207.007C39.4745 206.265 39.8773 205.582 40.2854 204.924C40.7571 205.158 42.9354 206.212 44.0802 206.255C45.225 206.297 46.6083 206.048 47.3503 205.142C47.5323 204.935 47.6686 204.691 47.7505 204.428C47.8323 204.164 47.8578 203.887 47.8253 203.613C47.7928 203.339 47.7031 203.075 47.5619 202.838C47.4207 202.601 47.2312 202.396 47.0058 202.237C45.6225 201.32 42.84 202.423 41.7058 203.35C41.6634 203.382 41.3719 203.674 41.0592 203.986C41.0592 203.917 41.0592 203.838 41.0592 203.748C41.0592 203.658 41.1493 203.599 41.197 203.531C41.8913 202.471 42.5909 201.57 43.2163 200.764C43.5767 200.308 43.9106 199.905 44.2286 199.529C44.8116 199.529 47.1648 199.45 48.193 198.967C49.2212 198.485 50.313 197.616 50.5833 196.471C50.6498 196.203 50.6592 195.924 50.6107 195.652C50.5623 195.38 50.4571 195.122 50.3022 194.893C50.1472 194.665 49.9458 194.472 49.7111 194.326C49.4765 194.181 49.2138 194.086 48.9403 194.049C47.2867 193.874 45.3257 196.137 44.7003 197.489C44.6473 197.605 44.0431 199.534 44.0749 199.534H44.112C43.7993 199.889 43.4654 200.276 43.1156 200.7C42.469 201.49 41.7535 202.391 41.038 203.414C41.038 201.824 40.7412 198.501 38.6318 198.299C35.8493 198.034 35.0543 201.214 36.7768 202.937C37.7651 203.858 39.0782 204.35 40.4285 204.304C39.8985 205.099 39.3685 205.953 38.8385 206.885C38.1011 208.215 37.4821 209.608 36.9888 211.046V211.099C36.9888 210.611 36.9888 209.255 36.9888 209.149C36.798 207.675 35.5684 204.946 33.9307 204.644C33.6582 204.601 33.3797 204.616 33.1135 204.688C32.8472 204.76 32.5992 204.888 32.3856 205.063C32.172 205.237 31.9977 205.455 31.8739 205.701C31.7502 205.948 31.6799 206.218 31.6676 206.493C31.5722 207.665 32.4202 208.831 33.2576 209.573C34.1904 210.405 36.7768 211.21 36.9676 211.274C36.5031 212.751 36.1383 214.258 35.8758 215.784C35.7168 216.669 35.5843 217.57 35.4624 218.477C35.4624 218.053 35.4624 217.676 35.4624 217.623C35.2716 216.155 34.042 213.426 32.4043 213.124C32.1318 213.081 31.8533 213.096 31.5871 213.168C31.3208 213.24 31.0728 213.368 30.8592 213.543C30.6456 213.717 30.4713 213.935 30.3475 214.181C30.2238 214.428 30.1535 214.698 30.1412 214.973C30.0458 216.139 30.8938 217.311 31.7312 218.047C32.5686 218.784 34.7628 219.526 35.3458 219.711C35.3034 220.061 35.2557 220.406 35.2133 220.771C35.0172 222.436 34.8211 224.1 34.5879 225.727C34.5031 226.299 34.3971 226.861 34.2964 227.423C34.2964 227.052 34.2964 226.734 34.2964 226.686C34.1056 225.218 32.876 222.489 31.2436 222.187C30.9708 222.144 30.6921 222.159 30.4255 222.231C30.159 222.303 29.9107 222.431 29.6967 222.605C29.4827 222.78 29.3078 222.997 29.1835 223.244C29.0592 223.491 28.9882 223.76 28.9752 224.036C28.8798 225.202 29.7278 226.374 30.5652 227.11C31.4026 227.847 33.3795 228.515 34.0685 228.743C33.9466 229.315 33.83 229.887 33.6869 230.439C33.5809 230.81 33.5014 231.175 33.3742 231.546L33.0244 232.638C32.7753 233.322 32.4944 234.032 32.2612 234.695C32.081 235.156 31.9061 235.596 31.7312 236.035C31.8213 235.463 31.975 234.345 31.975 234.249C31.9608 232.945 31.6084 231.667 30.9521 230.539C30.9689 230.229 30.9148 229.919 30.7941 229.633C30.6733 229.347 30.4889 229.092 30.255 228.888C30.0211 228.684 29.7437 228.535 29.4439 228.454C29.1441 228.373 28.8297 228.361 28.5247 228.419C26.9347 228.849 25.8747 231.663 25.827 233.147C25.827 233.232 25.88 234.207 25.9224 234.79C25.8429 234.44 25.7687 234.101 25.6786 233.73C25.5143 233.02 25.3235 232.315 25.1221 231.557C25.0161 231.197 24.9048 230.831 24.7935 230.46C24.6822 230.089 24.5338 229.718 24.4013 229.336C24.0886 228.472 23.7229 227.608 23.3413 226.745C23.9614 226.596 26.1609 226.034 27.0513 225.356C27.9417 224.678 28.8586 223.58 28.8533 222.409C28.8608 222.134 28.8103 221.859 28.705 221.605C28.5997 221.35 28.4419 221.12 28.242 220.93C28.0421 220.74 27.8044 220.594 27.5445 220.502C27.2846 220.41 27.0082 220.374 26.7333 220.395C25.085 220.575 23.6487 223.204 23.3519 224.635C23.3519 224.725 23.2353 225.796 23.1929 226.379C22.9544 225.849 22.7212 225.345 22.4668 224.831C21.7301 223.347 20.9351 221.863 20.1507 220.385C19.9122 219.929 19.679 219.473 19.4405 219.022C19.6631 218.969 22.2919 218.36 23.2777 217.602C24.1575 216.929 25.0903 215.827 25.0797 214.65C25.0873 214.375 25.0368 214.101 24.9314 213.846C24.8261 213.591 24.6682 213.362 24.4682 213.172C24.2682 212.983 24.0304 212.838 23.7705 212.746C23.5106 212.655 23.2343 212.619 22.9597 212.641C21.3061 212.821 19.8751 215.45 19.573 216.881C19.573 216.993 19.414 218.524 19.3981 218.916C18.8681 217.915 18.3699 216.913 17.9088 215.906C17.2766 214.548 16.7348 213.149 16.287 211.719C16.3877 211.719 19.1331 211.072 20.1454 210.293C21.0252 209.62 21.958 208.518 21.9474 207.347C21.9549 207.071 21.9044 206.797 21.7991 206.542C21.6938 206.287 21.536 206.057 21.3361 205.867C21.1362 205.677 20.8985 205.532 20.6386 205.439C20.3787 205.347 20.1023 205.311 19.8274 205.333C18.1738 205.513 16.7428 208.142 16.4407 209.573C16.4407 209.668 16.3188 210.839 16.2764 211.396H16.1863C15.7729 209.945 15.4891 208.461 15.3383 206.96C15.2482 206.133 15.2058 205.343 15.1793 204.569C15.7093 204.506 18.089 204.188 19.0801 203.589C20.0712 202.99 21.0729 201.999 21.2001 200.854C21.2382 200.581 21.2183 200.303 21.1416 200.038C21.065 199.773 20.9334 199.527 20.7553 199.317C20.5773 199.106 20.3568 198.936 20.1083 198.816C19.8598 198.696 19.5889 198.631 19.3133 198.623C17.6491 198.623 15.9372 201.077 15.4814 202.486C15.4814 202.561 15.2906 203.372 15.1793 203.96C15.1793 203.61 15.1793 203.25 15.1793 202.9C15.1793 201.644 15.2588 200.494 15.3383 199.476C15.386 198.898 15.4443 198.379 15.5026 197.886C15.9796 197.552 17.9035 196.201 18.4918 195.236C19.0801 194.271 19.5518 192.925 19.1119 191.833C19.0188 191.574 18.8722 191.336 18.6816 191.137C18.4909 190.937 18.2605 190.78 18.0052 190.675C17.7499 190.57 17.4754 190.52 17.1995 190.528C16.9236 190.535 16.6525 190.601 16.4036 190.72C14.9302 191.484 14.5433 194.43 14.7871 195.914C14.7871 196.042 15.3648 197.981 15.3913 197.966H15.4178C15.3542 198.437 15.2906 198.935 15.2323 199.487C15.1316 200.504 15.0256 201.66 14.9938 202.921C14.9938 203.149 14.9938 203.387 14.9938 203.626C14.3578 202.651 12.3438 199.916 10.2238 200.499C7.44658 201.289 8.05078 203.605 10.1655 204.103Z" fill="#263238"/>
<path d="M47.6154 216.897C48.604 217.073 49.616 217.073 50.6046 216.897C50.5959 217.534 50.6207 218.171 50.6788 218.805C50.7515 219.773 50.9111 220.733 51.1558 221.673C51.1575 221.685 51.1575 221.697 51.1558 221.71C50.9915 221.445 50.4986 220.729 50.4562 220.676C49.8361 219.961 48.2196 218.943 47.2444 219.356C47.0861 219.432 46.9454 219.54 46.8315 219.674C46.7176 219.808 46.6329 219.964 46.583 220.132C46.5331 220.3 46.519 220.477 46.5416 220.651C46.5642 220.825 46.6231 220.993 46.7144 221.143C46.9406 221.446 47.2295 221.698 47.5613 221.881C47.8932 222.064 48.2605 222.174 48.6383 222.203C49.5143 222.197 50.3844 222.059 51.2194 221.794C51.4896 222.746 51.8261 223.678 52.2264 224.582C52.4543 225.112 52.7034 225.642 52.9578 226.172L52.6451 225.727C52.025 225.011 50.4085 223.994 49.4333 224.407C49.2751 224.483 49.1346 224.59 49.0207 224.723C48.9068 224.856 48.8222 225.012 48.7722 225.18C48.7222 225.348 48.7081 225.524 48.7307 225.698C48.7532 225.872 48.8121 226.039 48.9033 226.188C49.1278 226.494 49.4162 226.747 49.7484 226.93C50.0807 227.113 50.4488 227.222 50.8272 227.248C51.6775 227.251 52.5232 227.122 53.3341 226.866C53.4348 227.063 53.5302 227.264 53.6309 227.465C54.1132 228.425 54.5955 229.373 55.0407 230.327C55.1997 230.661 55.3428 230.995 55.4859 231.329C55.3534 231.133 55.2368 230.969 55.2156 230.948C54.5955 230.232 52.979 229.209 52.0038 229.622C51.8377 229.693 51.6886 229.797 51.5664 229.93C51.4443 230.063 51.352 230.22 51.2957 230.391C51.2395 230.562 51.2206 230.744 51.2403 230.923C51.2601 231.102 51.318 231.275 51.4102 231.43C51.6364 231.734 51.9253 231.986 52.2571 232.169C52.589 232.351 52.9563 232.461 53.3341 232.49C54.1625 232.495 54.9868 232.372 55.7774 232.124C55.9152 232.469 56.053 232.818 56.1696 233.184C56.2438 233.417 56.3339 233.64 56.3922 233.884C56.4505 234.128 56.5247 234.355 56.5883 234.589C56.6996 235.039 56.8162 235.506 56.9063 235.951C56.9752 236.258 57.0388 236.555 57.0971 236.852C56.9434 236.518 56.6307 235.871 56.5989 235.818C56.0689 235.018 54.6485 233.762 53.6256 234.027C53.456 234.074 53.2984 234.157 53.1631 234.27C53.0277 234.382 52.9176 234.522 52.8401 234.68C52.7625 234.838 52.7192 235.011 52.713 235.187C52.7068 235.363 52.7379 235.538 52.8041 235.702C52.9765 236.042 53.2216 236.34 53.522 236.576C53.8223 236.811 54.1707 236.978 54.5425 237.064C55.4032 237.195 56.2788 237.195 57.1395 237.064C57.2402 237.551 57.3303 238.034 57.4098 238.489C57.4681 238.834 57.5264 239.162 57.5741 239.486H58.2366C58.173 239.131 58.1041 238.76 58.0246 238.373C57.9292 237.875 57.8126 237.339 57.6907 236.783C58.1864 236.585 58.6696 236.356 59.1376 236.099C59.7779 236.649 60.4913 237.107 61.2576 237.461C61.0668 237.928 60.8813 238.378 60.6958 238.802L60.399 239.475H61.0986L61.2735 239.046C61.4696 238.574 61.6657 238.065 61.8671 237.546C62.7163 237.741 63.5897 237.808 64.4588 237.747C64.8349 237.686 65.1934 237.545 65.5098 237.333C65.8263 237.12 66.0933 236.843 66.2926 236.518C66.3711 236.36 66.4153 236.187 66.4224 236.011C66.4295 235.835 66.3993 235.659 66.3337 235.496C66.2682 235.332 66.1688 235.184 66.042 235.062C65.9153 234.939 65.7641 234.845 65.5983 234.785C64.5913 234.445 63.0596 235.585 62.4978 236.348C62.466 236.396 62.1586 236.921 61.9678 237.26C62.0473 237.043 62.1268 236.836 62.2063 236.613C62.3653 236.179 62.5137 235.739 62.6727 235.262C62.7416 235.029 62.8105 234.795 62.8847 234.562C62.9589 234.329 63.0066 234.074 63.0702 233.825C63.208 233.253 63.3193 232.665 63.4147 232.071C64.2025 232.384 65.0337 232.573 65.8792 232.633C66.26 232.632 66.6361 232.548 66.9812 232.387C67.3263 232.226 67.6321 231.992 67.8773 231.7C67.9779 231.556 68.047 231.392 68.0802 231.219C68.1134 231.046 68.1099 230.868 68.0699 230.697C68.0299 230.525 67.9544 230.364 67.8482 230.224C67.7419 230.084 67.6074 229.967 67.4533 229.882C66.5099 229.395 64.8033 230.29 64.1514 230.942C64.109 230.985 63.6797 231.515 63.4518 231.817C63.5101 231.456 63.5684 231.101 63.6108 230.757C63.7433 229.697 63.844 228.637 63.9447 227.577C63.9765 227.248 64.0136 226.925 64.0454 226.601C64.1832 226.654 65.7944 227.253 66.5894 227.195C66.9702 227.194 67.3463 227.11 67.6914 226.949C68.0365 226.788 68.3423 226.554 68.5875 226.262C68.6891 226.118 68.7593 225.955 68.7933 225.782C68.8273 225.609 68.8245 225.431 68.7849 225.26C68.7454 225.088 68.6701 224.927 68.5639 224.786C68.4577 224.646 68.3231 224.529 68.1688 224.444C67.2254 223.957 65.5188 224.853 64.8669 225.504C64.8139 225.552 64.1991 226.321 64.0507 226.527C64.1302 225.812 64.2097 225.096 64.321 224.407C64.4636 223.462 64.6672 222.528 64.9305 221.609C64.9941 221.609 66.6742 222.266 67.4904 222.208C67.8712 222.207 68.2473 222.123 68.5924 221.962C68.9375 221.801 69.2433 221.566 69.4885 221.275C69.5892 221.13 69.6584 220.966 69.6916 220.793C69.7248 220.619 69.7214 220.441 69.6814 220.269C69.6415 220.097 69.5659 219.936 69.4596 219.795C69.3534 219.654 69.2188 219.537 69.0645 219.452C68.1211 218.969 66.4145 219.865 65.7626 220.512C65.7202 220.554 65.2326 221.137 65.0365 221.423L64.9782 221.397C65.2694 220.482 65.6419 219.595 66.0912 218.747C66.335 218.275 66.5894 217.835 66.8491 217.417C67.6081 217.823 68.425 218.111 69.2712 218.27C69.6498 218.308 70.0324 218.265 70.3927 218.142C70.753 218.02 71.0827 217.821 71.3594 217.56C71.4757 217.427 71.563 217.272 71.6154 217.104C71.6679 216.936 71.6844 216.759 71.6639 216.584C71.6434 216.409 71.5864 216.24 71.4965 216.089C71.4066 215.937 71.2858 215.806 71.1421 215.705C70.257 215.116 68.4921 215.821 67.7395 216.415L67.3261 216.818C67.3261 216.775 67.3261 216.722 67.3261 216.664L67.4109 216.531C67.8561 215.864 68.3013 215.275 68.7041 214.761C68.932 214.47 69.1493 214.231 69.3507 213.977C70.2067 213.984 71.0589 213.863 71.8788 213.616C72.2324 213.477 72.5518 213.262 72.8151 212.988C73.0785 212.713 73.2798 212.386 73.4052 212.026C73.4478 211.855 73.4534 211.676 73.4218 211.502C73.3903 211.328 73.3221 211.163 73.222 211.017C73.1218 210.871 72.9919 210.748 72.8407 210.657C72.6896 210.565 72.5207 210.506 72.3452 210.484C71.2852 210.368 70.0397 211.815 69.6528 212.678C69.621 212.753 69.2341 213.982 69.2553 213.982C69.0539 214.205 68.8419 214.454 68.6193 214.724C68.2112 215.254 67.7501 215.784 67.2943 216.457C67.2943 215.44 67.1035 213.32 65.7573 213.193C63.9818 213.023 63.473 215.053 64.5754 216.155C65.2068 216.742 66.0456 217.055 66.9074 217.024C66.5629 217.554 66.2237 218.084 65.9004 218.673C65.4309 219.52 65.0371 220.406 64.7238 221.323C64.7238 221.323 64.7238 221.349 64.7238 221.36C64.7238 221.047 64.7238 220.178 64.7238 220.114C64.6019 219.171 63.8122 217.433 62.7734 217.236C62.5993 217.209 62.4214 217.219 62.2514 217.266C62.0814 217.312 61.923 217.393 61.7865 217.505C61.6501 217.616 61.5386 217.755 61.4594 217.913C61.3801 218.07 61.3348 218.242 61.3265 218.418C61.3402 218.799 61.4376 219.172 61.6116 219.511C61.7856 219.85 62.0321 220.146 62.3335 220.379C63.0641 220.862 63.8651 221.228 64.7079 221.466C64.4138 222.411 64.1802 223.374 64.0083 224.349C63.9076 224.916 63.8228 225.489 63.7486 226.066C63.7486 225.796 63.7486 225.536 63.7486 225.536C63.6267 224.593 62.8423 222.854 61.7982 222.658C61.6241 222.631 61.4462 222.641 61.2762 222.688C61.1062 222.734 60.9478 222.815 60.8113 222.927C60.6749 223.038 60.5634 223.177 60.4841 223.335C60.4049 223.492 60.3596 223.664 60.3513 223.84C60.3686 224.22 60.4674 224.592 60.6412 224.93C60.815 225.269 61.0595 225.566 61.3583 225.801C62.0668 226.273 62.8447 226.63 63.6638 226.861C63.6638 227.084 63.6055 227.306 63.579 227.524C63.4518 228.584 63.3299 229.644 63.1815 230.704C63.1285 231.069 63.0596 231.425 62.996 231.764C62.996 231.525 62.996 231.324 62.996 231.292C62.8794 230.354 62.0897 228.61 61.0456 228.419C60.8716 228.393 60.694 228.404 60.5244 228.45C60.3547 228.497 60.1967 228.579 60.0604 228.69C59.9241 228.801 59.8127 228.94 59.7331 229.097C59.6536 229.254 59.6078 229.426 59.5987 229.601C59.616 229.981 59.7148 230.353 59.8886 230.691C60.0624 231.03 60.3069 231.327 60.6057 231.562C61.2942 232.029 62.0503 232.386 62.8476 232.622C62.7681 232.988 62.6939 233.354 62.5985 233.682C62.5349 233.921 62.4819 234.154 62.4024 234.387C62.3229 234.62 62.254 234.854 62.1798 235.087C62.0208 235.521 61.8565 235.977 61.6922 236.401L61.353 237.254C61.406 236.894 61.5067 236.194 61.5067 236.115C61.4959 235.282 61.2714 234.467 60.8548 233.746C60.8628 233.654 60.8628 233.562 60.8548 233.47C60.8328 233.296 60.7743 233.128 60.6831 232.978C60.5919 232.828 60.4701 232.698 60.3256 232.598C60.1811 232.498 60.0171 232.43 59.8444 232.397C59.6716 232.365 59.494 232.369 59.3231 232.41C58.3002 232.681 57.6483 234.483 57.6006 235.426C57.6006 235.484 57.6324 236.089 57.6642 236.486C57.6112 236.263 57.5635 236.046 57.5105 235.818C57.3992 235.362 57.2826 234.917 57.1501 234.43C57.0812 234.202 57.0123 233.969 56.9381 233.73C56.8639 233.491 56.7738 233.253 56.6943 233.014C56.4876 232.458 56.2597 231.907 56.0106 231.356C56.8396 231.185 57.6371 230.886 58.3744 230.471C58.6914 230.259 58.9585 229.982 59.1572 229.657C59.3558 229.332 59.4812 228.967 59.5245 228.589C59.5295 228.413 59.4975 228.238 59.4304 228.076C59.3633 227.913 59.2627 227.767 59.1352 227.646C59.0077 227.525 58.8561 227.432 58.6903 227.374C58.5245 227.315 58.3482 227.292 58.173 227.306C57.113 227.418 56.2014 229.098 56.0106 230.025C56.0106 230.084 55.9364 230.762 55.9099 231.138C55.7562 230.81 55.6078 230.481 55.4488 230.153C54.9771 229.204 54.4683 228.255 53.9701 227.312L53.5143 226.442C53.6574 226.405 55.3322 226.019 55.9629 225.536C56.2791 225.323 56.5455 225.044 56.744 224.718C56.9425 224.393 57.0683 224.028 57.113 223.649C57.118 223.474 57.086 223.299 57.0189 223.136C56.9518 222.974 56.8512 222.827 56.7237 222.706C56.5962 222.585 56.4446 222.492 56.2788 222.434C56.113 222.375 55.9367 222.353 55.7615 222.367C54.7015 222.483 53.7899 224.158 53.5991 225.086C53.5991 225.16 53.4984 226.146 53.4878 226.389C53.1539 225.748 52.8306 225.107 52.5338 224.466C52.1238 223.606 51.7698 222.721 51.4738 221.816C51.5374 221.816 53.2917 221.402 53.9383 220.904C54.2553 220.693 54.5224 220.415 54.7211 220.09C54.9197 219.765 55.0451 219.401 55.0884 219.023C55.0934 218.846 55.0612 218.671 54.9939 218.507C54.9265 218.344 54.8256 218.197 54.6976 218.076C54.5695 217.954 54.4174 217.861 54.2509 217.802C54.0845 217.743 53.9075 217.72 53.7316 217.735C52.6716 217.851 51.7653 219.531 51.5745 220.459C51.5745 220.517 51.495 221.264 51.4685 221.619H51.4102C51.1483 220.694 50.9709 219.747 50.8802 218.789C50.8219 218.259 50.7954 217.729 50.7795 217.263C51.6367 217.182 52.4766 216.971 53.2705 216.638C53.6083 216.462 53.9038 216.216 54.1363 215.914C54.3689 215.613 54.5328 215.265 54.6167 214.894C54.6414 214.719 54.629 214.542 54.5803 214.373C54.5316 214.203 54.4477 214.046 54.3342 213.912C54.2206 213.777 54.0799 213.668 53.9213 213.592C53.7626 213.515 53.5896 213.473 53.4136 213.468C52.3536 213.468 51.2618 215.032 50.965 215.933C50.965 215.98 50.8431 216.5 50.7742 216.876C50.7742 216.653 50.7742 216.42 50.7742 216.208C50.7742 215.408 50.8272 214.671 50.8749 214.025C50.9067 213.654 50.9438 213.32 50.9809 213.012C51.6988 212.546 52.3421 211.975 52.8889 211.316C53.1076 211.004 53.2563 210.648 53.3249 210.273C53.3935 209.898 53.3803 209.513 53.2864 209.143C53.2272 208.977 53.1339 208.826 53.0123 208.698C52.8907 208.571 52.7437 208.47 52.5807 208.403C52.4178 208.336 52.2426 208.304 52.0665 208.309C51.8904 208.315 51.7173 208.357 51.5586 208.433C50.6152 208.921 50.3661 210.818 50.4986 211.751C50.4986 211.83 50.8643 213.071 50.8802 213.06C50.8378 213.362 50.7954 213.68 50.7583 214.035C50.6947 214.682 50.6258 215.419 50.6099 216.224C50.6099 216.373 50.6099 216.521 50.6099 216.675C50.2071 216.055 48.9351 214.305 47.5571 214.676C45.8823 215.1 46.2692 216.574 47.6154 216.897Z" fill="#263238"/>
<path d="M40.7359 204.304L40.614 204.426C40.6405 204.389 40.6617 204.347 40.6882 204.304H40.7359Z" fill="#263238"/>
<path d="M128.997 38.4833H57.0651C51.2109 38.4833 46.4651 43.2291 46.4651 49.0833V209.122C46.4651 214.976 51.2109 219.722 57.0651 219.722H128.997C134.851 219.722 139.597 214.976 139.597 209.122V49.0833C139.597 43.2291 134.851 38.4833 128.997 38.4833Z" fill="#92E3A9" stroke="#263238" stroke-miterlimit="10"/>
<path d="M139.597 55.173V49.661C139.597 48.1934 139.309 46.74 138.748 45.3839C138.187 44.0278 137.364 42.7955 136.326 41.7575C135.289 40.7195 134.057 39.8961 132.701 39.3343C131.345 38.7725 129.892 38.4833 128.424 38.4833H57.6428C54.6783 38.4833 51.8352 39.661 49.739 41.7572C47.6427 43.8534 46.4651 46.6965 46.4651 49.661V55.173H139.597Z" fill="white" stroke="#263238" stroke-miterlimit="10"/>
<path d="M46.958 211.825C47.6592 214.112 49.0756 216.113 50.999 217.534C52.9223 218.956 55.2511 219.723 57.6428 219.722H128.424C130.816 219.722 133.144 218.955 135.067 217.533C136.991 216.112 138.407 214.111 139.109 211.825H46.958Z" fill="white" stroke="#263238" stroke-miterlimit="10"/>
<path d="M128.827 44.8698H119.992V49.714H128.827V44.8698Z" stroke="#263238" stroke-width="0.821067" stroke-linecap="round" stroke-linejoin="round"/>
<path d="M126.882 44.8698H119.992V49.714H126.882V44.8698Z" fill="#263238" stroke="#263238" stroke-width="0.725073" stroke-linecap="round" stroke-linejoin="round"/>
<path d="M130.057 46.2266H128.811V48.3625H130.057V46.2266Z" fill="#263238" stroke="#263238" stroke-width="0.725073" stroke-linecap="round" stroke-linejoin="round"/>
<path d="M56.3283 46.375H54.7065V49.1522H56.3283V46.375Z" fill="#263238" stroke="#263238" stroke-width="0.883086" stroke-linecap="round" stroke-linejoin="round"/>
<path d="M58.8723 45.3998H57.2505V49.1522H58.8723V45.3998Z" fill="#263238" stroke="#263238" stroke-width="0.883086" stroke-linecap="round" stroke-linejoin="round"/>
<path d="M61.4162 44.2444H59.7944V49.1469H61.4162V44.2444Z" fill="#263238" stroke="#263238" stroke-width="0.883086" stroke-linecap="round" stroke-linejoin="round"/>
<path d="M130.624 36.994H54.1606C51.6937 36.994 49.3278 37.974 47.5835 39.7184C45.8391 41.4627 44.8591 43.8286 44.8591 46.2955V213.33C44.8591 214.552 45.0998 215.761 45.5673 216.889C46.0348 218.017 46.72 219.042 47.5838 219.906C48.4476 220.769 49.473 221.454 50.6015 221.92C51.73 222.387 52.9394 222.627 54.1606 222.627H130.624C133.089 222.627 135.454 221.647 137.197 219.904C138.94 218.16 139.92 215.796 139.92 213.33V46.2955C139.921 45.0743 139.681 43.8649 139.214 42.7364C138.747 41.6079 138.062 40.5825 137.199 39.7187C136.336 38.8549 135.311 38.1697 134.182 37.7022C133.054 37.2346 131.845 36.994 130.624 36.994ZM135.786 208.894C135.786 211.36 134.807 213.724 133.063 215.468C131.32 217.211 128.955 218.19 126.49 218.19H58.2999C55.8344 218.19 53.4699 217.211 51.7265 215.468C49.9831 213.724 49.0037 211.36 49.0037 208.894V50.7316C49.003 49.5104 49.243 48.301 49.7098 47.1725C50.1767 46.044 50.8613 45.0186 51.7247 44.1548C52.588 43.291 53.613 42.6058 54.7412 42.1383C55.8694 41.6707 57.0787 41.4301 58.2999 41.4301H70.9881L71.7778 45.0977C72.0056 46.1701 72.5958 47.1312 73.4491 47.8195C74.3024 48.5077 75.3668 48.8811 76.463 48.8766H110.399C111.494 48.8798 112.557 48.506 113.41 47.8178C114.262 47.1297 114.851 46.1692 115.079 45.0977L115.869 41.4301H126.469C127.692 41.4273 128.903 41.6659 130.034 42.1322C131.164 42.5984 132.192 43.2832 133.058 44.1473C133.923 45.0113 134.61 46.0377 135.078 47.1676C135.546 48.2974 135.787 49.5086 135.786 50.7316V208.894Z" fill="#263238" stroke="#263238" stroke-width="1.6935" stroke-miterlimit="10"/>
<path d="M121.587 66.3507H62.6141C60.1758 66.3507 58.1992 68.3273 58.1992 70.7656V199.031C58.1992 201.469 60.1758 203.446 62.6141 203.446H121.587C124.025 203.446 126.002 201.469 126.002 199.031V70.7656C126.002 68.3273 124.025 66.3507 121.587 66.3507Z" fill="white" stroke="#263238" stroke-miterlimit="10"/>
<path d="M83.2471 74.4226C84.3601 74.4226 84.9325 75.0851 84.9325 76.2511V76.479H83.8725V76.1769C83.8725 75.6469 83.6658 75.4614 83.3001 75.4614C82.9344 75.4614 82.733 75.6575 82.733 76.1769C82.733 77.6715 84.9643 77.9524 84.9643 80.03C84.9643 81.1907 84.3813 81.8585 83.263 81.8585C82.1447 81.8585 81.5564 81.1907 81.5564 80.03V79.5848H82.6164V80.1148C82.6164 80.6448 82.8443 80.8197 83.21 80.8197C83.5757 80.8197 83.7983 80.6342 83.7983 80.1148C83.7983 78.6202 81.567 78.3393 81.567 76.2617C81.567 75.0851 82.15 74.4226 83.2471 74.4226Z" fill="#263238"/>
<path d="M85.6003 74.5021H86.7398V81.7737H85.6003V74.5021Z" fill="#263238"/>
<path d="M89.2837 77.7245H90.8737V80.03C90.8737 81.1907 90.2907 81.8585 89.1724 81.8585C88.0541 81.8585 87.4658 81.1907 87.4658 80.03V76.2511C87.4658 75.0851 88.0488 74.4226 89.1724 74.4226C90.296 74.4226 90.8737 75.0851 90.8737 76.2511V76.956H89.8137V76.1769C89.8137 75.6469 89.5858 75.4614 89.2254 75.4614C88.865 75.4614 88.6318 75.6575 88.6318 76.1769V80.1042C88.6318 80.6342 88.8597 80.8091 89.2254 80.8091C89.5911 80.8091 89.8137 80.6236 89.8137 80.1042V78.7633H89.2837V77.7245Z" fill="#263238"/>
<path d="M92.6385 76.5108V81.7737H91.6104V74.5021H93.0466L94.218 78.8587V74.5021H95.2355V81.7737H94.0642L92.6385 76.5108Z" fill="#263238"/>
<path d="M97.6682 74.5021H98.813V81.7737H97.6682V74.5021Z" fill="#263238"/>
<path d="M100.663 76.5108V81.7737H99.6399V74.5021H101.071L102.247 78.8587V74.5021H103.265V81.7737H102.088L100.663 76.5108Z" fill="#263238"/>
<path d="M64.1882 102.189V102.719H62.8473V104.67H64.4903V105.2H62.2378V99.7672H64.4903V100.297H62.8473V102.168L64.1882 102.189Z" fill="#263238"/>
<path d="M67.0768 105.237H66.4885L65.5769 100.875V105.242H65.0469V99.7672H65.9002L66.8012 104.14L67.6704 99.7672H68.5237V105.242H67.9407V100.838L67.0768 105.237Z" fill="#263238"/>
<path d="M69.7638 104.14L69.5518 105.242H68.99L70.05 99.7672H70.9351L71.9951 105.242H71.3803L71.1736 104.14H69.7638ZM69.8433 103.61H71.0623L70.4475 100.43L69.8433 103.61Z" fill="#263238"/>
<path d="M73.0604 99.7672V105.242H72.4456V99.7672H73.0604Z" fill="#263238"/>
<path d="M73.6699 105.242V99.7672H74.2794V104.691H75.8429V105.221L73.6699 105.242Z" fill="#263238"/>
<path d="M78.1484 104.14L77.9417 105.242H77.3799L78.4399 99.7672H79.325L80.385 105.242H79.7755L79.5635 104.14H78.1484ZM78.2279 103.61H79.4522L78.8321 100.43L78.2279 103.61Z" fill="#263238"/>
<path d="M82.118 99.7672C82.9713 99.7672 83.3635 100.297 83.3635 101.129V103.88C83.3635 104.717 82.9713 105.232 82.118 105.232H80.8354V99.7672H82.118ZM82.118 104.691C82.5579 104.691 82.7699 104.415 82.7699 103.912V101.098C82.7699 100.594 82.5579 100.318 82.1127 100.318H81.4555V104.691H82.118Z" fill="#263238"/>
<path d="M85.2133 99.7672C86.0666 99.7672 86.4588 100.297 86.4588 101.129V103.88C86.4588 104.717 86.0666 105.232 85.2133 105.232H83.9307V99.7672H85.2133ZM85.2133 104.691C85.6532 104.691 85.8652 104.415 85.8652 103.912V101.098C85.8652 100.594 85.6532 100.318 85.2027 100.318H84.5455V104.691H85.2133Z" fill="#263238"/>
<path d="M88.2502 99.7672C89.1141 99.7672 89.4746 100.202 89.4746 101.018V101.463C89.4746 102.067 89.2625 102.444 88.7908 102.592C89.2943 102.741 89.4798 103.149 89.4798 103.732V104.585C89.4599 104.81 89.4982 105.036 89.5911 105.242H88.971C88.8859 105.032 88.8514 104.805 88.8703 104.58V103.716C88.8703 103.101 88.5788 102.905 88.07 102.905H87.6407V105.242H87.0312V99.7672H88.2502ZM88.0965 102.348C88.5788 102.348 88.8703 102.189 88.8703 101.596V101.066C88.8703 100.573 88.6901 100.313 88.2343 100.313H87.6407V102.343L88.0965 102.348Z" fill="#263238"/>
<path d="M92.0609 102.189V102.719H90.7252V104.67H92.3683V105.2H90.0999V99.7672H92.3577V100.297H90.7147V102.168L92.0609 102.189Z" fill="#263238"/>
<path d="M95.2993 101.082V101.23H94.7216V101.05C94.7216 100.557 94.5308 100.265 94.0962 100.265C93.6616 100.265 93.4708 100.557 93.4708 101.039C93.4708 102.269 95.3099 102.385 95.3099 103.928C95.3099 104.76 94.9071 105.3 94.0697 105.3C93.2323 105.3 92.8401 104.77 92.8401 103.928V103.615H93.4125V103.96C93.4125 104.452 93.6192 104.744 94.0538 104.744C94.4884 104.744 94.6951 104.452 94.6951 103.96C94.6951 102.741 92.8666 102.624 92.8666 101.082C92.8666 100.234 93.2588 99.7089 94.0803 99.7089C94.9018 99.7089 95.2993 100.25 95.2993 101.082Z" fill="#263238"/>
<path d="M98.209 101.082V101.23H97.6313V101.05C97.6313 100.557 97.4458 100.265 97.0059 100.265C96.566 100.265 96.3805 100.557 96.3805 101.039C96.3805 102.269 98.2196 102.385 98.2196 103.928C98.2196 104.76 97.8168 105.3 96.9794 105.3C96.142 105.3 95.7551 104.77 95.7551 103.928V103.615H96.3222V103.96C96.3222 104.452 96.5289 104.744 96.9635 104.744C97.3981 104.744 97.6101 104.452 97.6101 103.96C97.6101 102.741 95.7763 102.624 95.7763 101.082C95.7763 100.234 96.1685 99.7089 96.99 99.7089C97.8115 99.7089 98.209 100.25 98.209 101.082Z" fill="#263238"/>
<path d="M63.4357 127.147C64.2943 127.147 64.6653 127.677 64.6653 128.483V129.145C64.6941 129.321 64.6813 129.502 64.6279 129.672C64.5746 129.842 64.4822 129.998 64.3581 130.126C64.234 130.254 64.0817 130.351 63.9132 130.41C63.7448 130.469 63.565 130.488 63.388 130.465H62.858V132.627H62.2485V127.147H63.4357ZM63.388 129.919C63.8438 129.919 64.0611 129.707 64.0611 129.182V128.456C64.0611 127.926 63.8809 127.704 63.4357 127.704H62.8474V129.919H63.388Z" fill="#263238"/>
<path d="M65.6564 131.52L65.4444 132.627H64.8826L65.9426 127.147H66.8277L67.8877 132.627H67.257L67.045 131.52H65.6564ZM65.7359 130.99H66.9549L66.3401 127.81L65.7359 130.99Z" fill="#263238"/>
<path d="M70.7126 128.461V128.61H70.1349V128.43C70.1349 127.937 69.9441 127.645 69.5095 127.645C69.0749 127.645 68.8788 127.937 68.8788 128.424C68.8788 129.654 70.7179 129.771 70.7179 131.313C70.7179 132.14 70.3204 132.68 69.483 132.68C68.6456 132.68 68.2534 132.15 68.2534 131.313V131H68.8258V131.345C68.8258 131.838 69.0272 132.124 69.4671 132.124C69.907 132.124 70.1084 131.838 70.1084 131.345C70.1084 130.12 68.2799 130.004 68.2799 128.461C68.2799 127.619 68.6668 127.094 69.4936 127.094C70.3204 127.094 70.7126 127.629 70.7126 128.461Z" fill="#263238"/>
<path d="M73.6223 128.461V128.61H73.0446V128.43C73.0446 127.937 72.8538 127.645 72.4192 127.645C71.9846 127.645 71.7885 127.937 71.7885 128.424C71.7885 129.654 73.6276 129.771 73.6276 131.313C73.6276 132.14 73.2301 132.68 72.3927 132.68C71.5553 132.68 71.1631 132.15 71.1631 131.313V131H71.7355V131.345C71.7355 131.838 71.9422 132.124 72.3768 132.124C72.8114 132.124 73.0181 131.838 73.0181 131.345C73.0181 130.12 71.1896 130.004 71.1896 128.461C71.1896 127.619 71.5818 127.094 72.4033 127.094C73.2248 127.094 73.6223 127.629 73.6223 128.461Z" fill="#263238"/>
<path d="M75.615 132.627H74.7776L74.0303 127.147H74.6239L75.2652 131.811L75.8747 127.152H76.4789L77.0831 131.822L77.6979 127.147H78.2279L77.4806 132.627H76.675L76.145 128.917L75.615 132.627Z" fill="#263238"/>
<path d="M78.6731 128.472C78.6731 127.629 79.0918 127.094 79.9292 127.094C80.7666 127.094 81.1853 127.624 81.1853 128.472V131.302C81.1853 132.134 80.7719 132.68 79.9292 132.68C79.0865 132.68 78.6731 132.15 78.6731 131.302V128.472ZM79.2773 131.334C79.2773 131.838 79.4893 132.124 79.9292 132.124C80.3691 132.124 80.5758 131.838 80.5758 131.334V128.44C80.5758 127.947 80.3744 127.645 79.9292 127.645C79.484 127.645 79.2773 127.947 79.2773 128.44V131.334Z" fill="#263238"/>
<path d="M82.9872 127.147C83.8458 127.147 84.2062 127.587 84.2062 128.398V128.843C84.2062 129.447 83.9942 129.824 83.5278 129.972C84.026 130.12 84.2168 130.528 84.2168 131.117V131.97C84.1988 132.194 84.2352 132.42 84.3228 132.627H83.708C83.618 132.417 83.5816 132.187 83.602 131.959V131.101C83.602 130.481 83.3158 130.285 82.807 130.285H82.3777V132.627H81.7629V127.147H82.9872ZM82.8282 129.728C83.3158 129.728 83.602 129.574 83.602 128.981V128.451C83.602 127.958 83.4218 127.698 82.9713 127.698H82.3777V129.723L82.8282 129.728Z" fill="#263238"/>
<path d="M86.1303 127.147C86.9836 127.147 87.3758 127.677 87.3758 128.509V131.27C87.3758 132.108 86.9836 132.627 86.1303 132.627H84.8477V127.147H86.1303ZM86.1303 132.071C86.5649 132.071 86.7769 131.795 86.7769 131.297V128.477C86.7769 127.974 86.5649 127.704 86.1197 127.704H85.4625V132.071H86.1303Z" fill="#263238"/>
<path d="M72.7743 153.785C73.6329 153.785 73.9933 154.219 73.9933 155.036V155.481C73.9933 156.085 73.7813 156.461 73.3149 156.61C73.8131 156.758 74.004 157.166 74.004 157.749V158.603C73.9855 158.829 74.0218 159.056 74.11 159.265H73.4951C73.4058 159.054 73.3694 158.825 73.3891 158.597V157.739C73.3891 157.119 73.1029 156.922 72.5941 156.922H72.1649V159.265H71.55V153.785H72.7743ZM72.61 156.35C73.0976 156.35 73.3839 156.196 73.3839 155.597V155.067C73.3839 154.575 73.2037 154.32 72.7532 154.32H72.1595V156.35H72.61Z" fill="#263238"/>
<path d="M76.5849 156.212V156.742H75.2599V158.693H76.9029V159.249H74.6504V153.785H76.9029V154.315H75.2599V156.186L76.5849 156.212Z" fill="#263238"/>
<path d="M79.4682 159.254H78.8852L77.9736 154.893V159.265H77.4436V153.785H78.2969L79.1979 158.157L80.0671 153.785H80.9204V159.265H80.3374V154.855L79.4682 159.254Z" fill="#263238"/>
<path d="M83.4909 156.212V156.742H82.15V158.693H83.7983V159.249H81.5405V153.785H83.7983V154.315H82.15V156.186L83.4909 156.212Z" fill="#263238"/>
<path d="M86.3898 159.254H85.8015L84.8952 154.893V159.265H84.3652V153.785H85.2185L86.1195 158.157L86.9887 153.785H87.842V159.265H87.2643V154.855L86.3898 159.254Z" fill="#263238"/>
<path d="M89.676 153.785C90.5293 153.785 90.8685 154.188 90.8685 154.999V155.253C90.8685 155.836 90.7042 156.196 90.2272 156.345C90.7572 156.493 90.9639 156.912 90.9639 157.516V157.977C90.9886 158.149 90.9735 158.325 90.9196 158.49C90.8658 158.655 90.7746 158.806 90.6532 158.931C90.5318 159.055 90.3834 159.15 90.2194 159.208C90.0555 159.266 89.8804 159.285 89.7078 159.265H88.4517V153.785H89.676ZM89.5276 156.106C90.0152 156.106 90.2643 155.953 90.2643 155.38V155.057C90.2643 154.575 90.1 154.341 89.6654 154.341H89.04V156.106H89.5276ZM89.7078 158.709C90.1583 158.709 90.3597 158.47 90.3597 157.961V157.479C90.3597 156.869 90.1159 156.663 89.5912 156.663H89.0612V158.709H89.7078Z" fill="#263238"/>
<path d="M93.4655 156.212V156.742H92.1246V158.693H93.7729V159.249H91.5151V153.785H93.7729V154.315H92.1246V156.186L93.4655 156.212Z" fill="#263238"/>
<path d="M95.5535 153.785C96.4121 153.785 96.7725 154.219 96.7725 155.036V155.481C96.7725 156.085 96.5605 156.461 96.0941 156.61C96.5923 156.758 96.7831 157.166 96.7831 157.749V158.603C96.7637 158.829 96.802 159.057 96.8944 159.265H96.2743C96.1899 159.053 96.1554 158.825 96.1736 158.597V157.739C96.1736 157.119 95.8821 156.922 95.3733 156.922H94.944V159.265H94.3398V153.785H95.5535ZM95.3998 156.35C95.8874 156.35 96.1789 156.196 96.1789 155.597V155.067C96.1789 154.575 95.9987 154.32 95.5429 154.32H94.9493V156.35H95.3998Z" fill="#263238"/>
<path d="M99.4333 159.254H98.845L97.9387 154.893V159.265H97.4087V153.785H98.262L99.163 158.157L100.027 153.785H100.88V159.265H100.302V154.855L99.4333 159.254Z" fill="#263238"/>
<path d="M103.456 156.212V156.742H102.115V158.693H103.758V159.249H101.506V153.785H103.758V154.315H102.115V156.186L103.456 156.212Z" fill="#263238"/>
<path d="M119.769 172.52H65.9265C64.9518 172.52 64.1616 173.31 64.1616 174.285V182.675C64.1616 183.65 64.9518 184.44 65.9265 184.44H119.769C120.744 184.44 121.534 183.65 121.534 182.675V174.285C121.534 173.31 120.744 172.52 119.769 172.52Z" fill="#263238" stroke="#263238" stroke-miterlimit="10"/>
<path d="M81.6307 177.767L80.8778 177.98C80.8305 177.855 80.7607 177.733 80.6683 177.614C80.5784 177.494 80.4553 177.394 80.299 177.316C80.1428 177.238 79.9427 177.199 79.6989 177.199C79.3651 177.199 79.0869 177.276 78.8643 177.43C78.6442 177.581 78.5341 177.774 78.5341 178.009C78.5341 178.217 78.6098 178.381 78.7614 178.502C78.9129 178.623 79.1496 178.723 79.4716 178.804L80.2812 179.003C80.7689 179.121 81.1323 179.302 81.3714 179.546C81.6106 179.788 81.7301 180.099 81.7301 180.48C81.7301 180.793 81.6402 181.072 81.4602 181.318C81.2827 181.564 81.0341 181.759 80.7145 181.901C80.3949 182.043 80.0232 182.114 79.5994 182.114C79.0431 182.114 78.5826 181.993 78.218 181.751C77.8535 181.51 77.6226 181.157 77.5256 180.693L78.321 180.494C78.3968 180.788 78.54 181.008 78.7507 181.155C78.9638 181.302 79.242 181.375 79.5852 181.375C79.9759 181.375 80.286 181.292 80.5156 181.126C80.7476 180.958 80.8636 180.757 80.8636 180.523C80.8636 180.333 80.7973 180.175 80.6648 180.047C80.5322 179.917 80.3286 179.82 80.054 179.756L79.1449 179.543C78.6454 179.424 78.2784 179.241 78.044 178.992C77.812 178.741 77.696 178.428 77.696 178.051C77.696 177.743 77.7824 177.471 77.9553 177.234C78.1304 176.998 78.3684 176.812 78.669 176.677C78.9721 176.542 79.3153 176.474 79.6989 176.474C80.2386 176.474 80.6624 176.593 80.9702 176.83C81.2803 177.066 81.5005 177.379 81.6307 177.767ZM86.4292 179.77V176.545H87.2672V182H86.4292V181.077H86.3723C86.2445 181.354 86.0456 181.589 85.7757 181.783C85.5059 181.975 85.165 182.071 84.753 182.071C84.4121 182.071 84.1091 181.996 83.8439 181.847C83.5788 181.696 83.3704 181.469 83.2189 181.165C83.0674 180.86 82.9917 180.475 82.9917 180.011V176.545H83.8297V179.955C83.8297 180.352 83.941 180.67 84.1635 180.906C84.3884 181.143 84.6749 181.261 85.0229 181.261C85.2312 181.261 85.4431 181.208 85.6586 181.102C85.8764 180.995 86.0587 180.832 86.2054 180.612C86.3546 180.391 86.4292 180.111 86.4292 179.77ZM88.9158 182V174.727H89.7539V177.412H89.8249C89.8865 177.317 89.9717 177.197 90.0806 177.05C90.1919 176.901 90.3505 176.768 90.5565 176.652C90.7648 176.534 91.0465 176.474 91.4016 176.474C91.8609 176.474 92.2657 176.589 92.6161 176.819C92.9665 177.049 93.2399 177.374 93.4364 177.795C93.6329 178.217 93.7312 178.714 93.7312 179.287C93.7312 179.865 93.6329 180.365 93.4364 180.789C93.2399 181.21 92.9677 181.537 92.6197 181.769C92.2717 181.999 91.8704 182.114 91.4158 182.114C91.0655 182.114 90.7849 182.056 90.5742 181.94C90.3635 181.821 90.2013 181.688 90.0877 181.538C89.9741 181.387 89.8865 181.261 89.8249 181.162H89.7255V182H88.9158ZM89.7397 179.273C89.7397 179.685 89.8001 180.048 89.9208 180.363C90.0415 180.675 90.2179 180.92 90.4499 181.098C90.6819 181.273 90.966 181.361 91.3022 181.361C91.6526 181.361 91.945 181.268 92.1793 181.084C92.4161 180.897 92.5936 180.646 92.712 180.331C92.8327 180.014 92.8931 179.661 92.8931 179.273C92.8931 178.889 92.8339 178.544 92.7156 178.236C92.5996 177.926 92.4232 177.681 92.1864 177.501C91.9521 177.318 91.6573 177.227 91.3022 177.227C90.9613 177.227 90.6748 177.314 90.4428 177.487C90.2108 177.657 90.0356 177.896 89.9173 178.204C89.7989 178.509 89.7397 178.866 89.7397 179.273ZM95.0131 182V176.545H95.8228V177.398H95.8938C96.0075 177.107 96.1909 176.88 96.4442 176.719C96.6976 176.556 97.0018 176.474 97.3569 176.474C97.7167 176.474 98.0162 176.556 98.2553 176.719C98.4968 176.88 98.685 177.107 98.82 177.398H98.8768C99.0165 177.116 99.226 176.892 99.5053 176.727C99.7847 176.558 100.12 176.474 100.51 176.474C100.998 176.474 101.397 176.627 101.707 176.933C102.017 177.236 102.172 177.708 102.172 178.349V182H101.334V178.349C101.334 177.947 101.224 177.659 101.004 177.487C100.784 177.314 100.525 177.227 100.226 177.227C99.8427 177.227 99.5456 177.343 99.3349 177.575C99.1242 177.805 99.0188 178.096 99.0188 178.449V182H98.1665V178.264C98.1665 177.954 98.0659 177.704 97.8647 177.515C97.6635 177.323 97.4042 177.227 97.087 177.227C96.8692 177.227 96.6656 177.285 96.4762 177.401C96.2892 177.517 96.1377 177.678 96.0217 177.884C95.908 178.088 95.8512 178.323 95.8512 178.591V182H95.0131ZM103.705 182V176.545H104.543V182H103.705ZM104.131 175.636C103.967 175.636 103.826 175.581 103.708 175.469C103.592 175.358 103.534 175.224 103.534 175.068C103.534 174.912 103.592 174.778 103.708 174.667C103.826 174.556 103.967 174.5 104.131 174.5C104.294 174.5 104.434 174.556 104.55 174.667C104.668 174.778 104.727 174.912 104.727 175.068C104.727 175.224 104.668 175.358 104.55 175.469C104.434 175.581 104.294 175.636 104.131 175.636ZM108.45 176.545V177.256H105.623V176.545H108.45ZM106.447 175.239H107.285V180.438C107.285 180.674 107.319 180.852 107.388 180.97C107.459 181.086 107.549 181.164 107.658 181.205C107.769 181.242 107.886 181.261 108.009 181.261C108.102 181.261 108.177 181.257 108.237 181.247C108.296 181.235 108.343 181.226 108.379 181.219L108.549 181.972C108.492 181.993 108.413 182.014 108.311 182.036C108.209 182.059 108.08 182.071 107.924 182.071C107.687 182.071 107.455 182.02 107.228 181.918C107.003 181.817 106.816 181.661 106.667 181.453C106.52 181.245 106.447 180.982 106.447 180.665V175.239Z" fill="white"/>
<path d="M121.158 108.072H62.2961V117.013H121.158V108.072Z" fill="white" stroke="#263238" stroke-miterlimit="10"/>
<path d="M121.158 135.828H62.2961V144.77H121.158V135.828Z" fill="white" stroke="#263238" stroke-miterlimit="10"/>
<path d="M68.2587 153.525H63.0435V158.74H68.2587V153.525Z" fill="white" stroke="#263238" stroke-miterlimit="10"/>
<path d="M176.596 226.798C174.152 227.165 171.665 227.123 169.234 226.676C165.058 225.939 160.643 222.383 160.643 222.383L157.087 222.626V207.172C157.087 207.172 163.24 206.064 165.185 206.17C167.13 206.276 176.596 215.62 176.596 215.62V226.798Z" fill="white" stroke="#263238" stroke-miterlimit="10"/>
<path d="M160.569 228.435H149.184L147.271 205.863H162.482L160.569 228.435Z" fill="#92E3A9" stroke="#263238" stroke-miterlimit="10"/>
<path d="M162.138 202.068H147.971V203.313H162.138V202.068Z" fill="white" stroke="#263238" stroke-miterlimit="10"/>
<path d="M162.975 203.08H146.778V207.495H162.975V203.08Z" fill="white" stroke="#263238" stroke-miterlimit="10"/>
<path d="M169.966 223.241C164.326 222.626 163.712 216.494 163.712 216.494C163.712 216.494 159.419 219.441 157.574 219.441C155.73 219.441 155.242 218.09 154.877 217.146C154.511 216.203 163.097 210.606 163.097 210.606C163.097 210.606 164.687 209.016 166.044 209.016C167.4 209.016 173.156 216.865 174.264 218.217" fill="white"/>
<path d="M169.966 223.241C164.326 222.626 163.712 216.494 163.712 216.494C163.712 216.494 159.419 219.441 157.574 219.441C155.73 219.441 155.242 218.09 154.877 217.146C154.511 216.203 163.097 210.606 163.097 210.606C163.097 210.606 164.687 209.016 166.044 209.016C167.4 209.016 173.156 216.865 174.264 218.217" stroke="#263238" stroke-miterlimit="10"/>
<path d="M241.081 239.565L240.636 189.141L238.389 202.184L239.274 239.565H241.081Z" fill="#263238" stroke="#263238" stroke-miterlimit="10"/>
<path d="M237.53 239.56L237.822 212.138C237.822 212.138 242.104 203.403 242.433 199.312C242.761 195.22 245.051 185.24 242.925 180.661C240.8 176.082 242.666 160.574 242.666 160.574L240.678 153.504C239.369 150.07 226.776 142.056 222.033 140.418C217.338 138.904 212.376 138.402 207.474 138.945C203.234 139.438 200.928 141.892 200.435 142.708C199.942 143.524 197.33 151.379 194.218 155.635C191.107 159.89 188.494 162.996 186.205 166.266C183.915 169.536 182.442 176.246 180.968 180.174C179.495 184.101 177.041 201.601 175.896 210.914C174.889 219.129 175.531 235.712 175.7 239.534L237.53 239.56Z" fill="#808080" stroke="#263238" stroke-miterlimit="10"/>
<path d="M192.623 169.558C194.272 167.856 196.127 166.367 198.146 165.127C203.218 162.18 206.817 159.562 206.817 159.562L205.836 153.838L211.073 156.292C211.073 156.292 212.217 152.693 215.487 146.476C218.758 140.259 218.922 138.95 218.922 138.95" stroke="#263238" stroke-miterlimit="10"/>
<path d="M188.373 174.407C189.422 173.033 190.546 171.717 191.738 170.464" stroke="#263238" stroke-miterlimit="10"/>
<path d="M211.178 167.559L203.536 239.507H206.234L212.98 169.807L211.178 167.559Z" fill="#263238" stroke="#263238" stroke-miterlimit="10"/>
<path d="M181.096 239.56C180.947 232.882 180.476 205.216 182.771 194.897C185.389 183.115 187.678 169.865 191.6 164.305C195.522 158.746 203.547 151.707 207.797 147.616C210.502 144.887 212.661 141.667 214.157 138.129L208.29 122.266C208.29 122.266 203.054 131.101 201.4 131.753C201.4 131.753 203.038 139.114 201.893 143.37C200.748 147.626 193.222 159.726 190.933 162.673C188.643 165.62 181.626 181.79 180.152 192.607C178.854 202.147 178.7 232.527 178.684 239.565L181.096 239.56Z" fill="white" stroke="#263238" stroke-miterlimit="10"/>
<path d="M201.904 134.429L210.166 134.254L207.352 128.101L201.904 134.429Z" fill="#263238" stroke="#263238" stroke-miterlimit="10"/>
<path d="M181.096 239.56C180.947 232.882 180.476 205.216 182.771 194.897C185.389 183.115 187.678 169.865 191.6 164.305C195.522 158.746 203.547 151.707 207.797 147.616C209.166 146.281 210.385 144.8 211.433 143.201C206.764 146.381 203.054 146.487 200.833 146.073C198.374 151.405 192.835 160.214 190.927 162.668C188.638 165.614 181.605 181.806 180.131 192.602C178.833 202.142 178.679 232.522 178.663 239.56H181.096Z" fill="#92E3A9" stroke="#263238" stroke-miterlimit="10"/>
<path d="M201.522 133.253C201.522 133.253 203.112 139.332 202.953 142.008C202.794 144.685 200.451 152.375 197.589 156.488C194.727 160.601 190.084 166.855 186.332 168.466C182.58 170.077 181.149 170.056 181.149 170.056C183.471 168.922 185.482 167.239 187.008 165.153C188.534 163.067 189.528 160.64 189.904 158.083C191.335 149.142 186.687 127.518 186.507 126.087C186.327 124.656 201.522 133.253 201.522 133.253Z" fill="#263238" stroke="#263238" stroke-miterlimit="10"/>
<path d="M180.963 108.496C180.963 108.496 180.608 115.572 181.318 116.807C182.029 118.042 183.968 118.927 183.968 121.047C183.968 123.167 182.198 127.062 183.083 128.297C183.968 129.532 187.148 129.537 187.148 129.537C187.148 129.537 191.918 135.017 193.164 136.258C194.409 137.498 196.169 139.438 197.054 139.088C197.939 138.738 204.66 131.837 206.25 129.182C207.84 126.527 208.725 117.156 208.02 113.091C207.315 109.026 197.42 102.301 191.924 101.961C188.412 101.784 184.893 102.141 181.488 103.021L180.963 108.496Z" fill="white" stroke="#263238" stroke-miterlimit="10"/>
<path d="M187.154 116.457L188.277 119.425L192.411 116.87" stroke="#263238" stroke-miterlimit="10"/>
<path d="M185.156 115.291C185.156 115.291 184.032 111.083 190.212 112.206" stroke="#263238" stroke-miterlimit="10"/>
<path d="M189.454 130.253C189.454 130.253 192.459 129.368 194.754 125.652" stroke="#263238" stroke-miterlimit="10"/>
<path d="M190.302 118.72C190.471 119.043 190.233 119.504 189.772 119.78C189.311 120.056 188.786 119.971 188.616 119.653C188.447 119.335 188.685 118.868 189.146 118.593C189.608 118.317 190.127 118.418 190.302 118.72Z" fill="#263238"/>
<path d="M184.853 92.4002C184.853 92.4002 173.358 99.8202 174.253 102.306C175.149 104.792 180.974 108.496 180.974 108.496L181.504 104.606C181.504 104.606 187.519 107.611 193.164 109.737L198.824 111.857C199.662 112.785 200.546 113.669 201.474 114.507C202.184 115.037 204.654 115.037 204.654 115.037C204.654 115.037 205.539 133.958 208.894 138.383C212.249 142.809 221.98 146.863 228.504 149.699C235.028 152.534 237.928 152.751 239.698 155.226C241.468 157.702 242.21 165.577 242.21 165.577C242.21 165.577 252.905 154.532 237.758 128.302C226.771 109.275 228.032 107.102 224.317 100.716C220.602 94.3294 211.597 84.9749 202.741 84.2859C193.885 83.5969 184.853 92.4002 184.853 92.4002Z" fill="#263238" stroke="#263238" stroke-miterlimit="10"/>
<path d="M227.062 137.355C228.284 138.011 229.545 138.593 230.836 139.099" stroke="#787878" stroke-miterlimit="10"/>
<path d="M199.455 91.2766C205.026 95.9848 208.648 102.597 209.615 109.827C210.797 119.276 214.777 128.726 223.183 134.927" stroke="#787878" stroke-miterlimit="10"/>
<path d="M194.462 100.568C196.703 101.247 198.875 102.134 200.95 103.218" stroke="#787878" stroke-miterlimit="10"/>
<path d="M178.833 102.931C178.833 102.931 175.844 101.739 179.135 99.3485C181.08 97.9281 186.285 98.4051 191.447 99.7089" stroke="#787878" stroke-miterlimit="10"/>
<path d="M204.665 113.446C204.665 113.446 203.25 101.601 199.895 97.0165" stroke="#787878" stroke-miterlimit="10"/>
<path d="M143.837 192.284L131.164 182.596C131.063 182.518 130.986 182.412 130.945 182.291C130.903 182.17 130.898 182.039 130.931 181.915C130.964 181.791 131.033 181.68 131.129 181.596C131.226 181.511 131.345 181.457 131.472 181.44L138.129 180.539C138.588 180.476 139.055 180.506 139.502 180.628C139.95 180.75 140.368 180.962 140.731 181.249L153.652 191.463L143.837 192.284Z" fill="#263238" stroke="#263238" stroke-miterlimit="10"/>
<path d="M169.521 192.92C169.521 192.92 166.574 190.302 165.593 188.834C165.034 188.087 164.281 187.509 163.415 187.162C162.55 186.815 161.605 186.713 160.685 186.867C158.883 187.196 154.797 186.215 154.14 187.032C153.483 187.848 153.488 189.978 153.488 189.978C153.488 189.978 143.344 190.63 142.528 190.466C141.711 190.302 141.054 191.611 141.706 192.756C142.358 193.9 147.112 195.172 147.112 195.172C147.109 196.091 147.318 196.998 147.722 197.822C148.421 199.243 149.582 201.448 150.541 202.402C152.015 203.875 155.12 204.522 158.396 205.184C161.671 205.847 166.902 205.02 166.902 205.02L169.521 192.92Z" fill="white" stroke="#263238" stroke-miterlimit="10"/>
<path d="M153.488 189.994L161.173 189.501" stroke="#263238" stroke-miterlimit="10"/>
<path d="M147.112 195.188C148.911 195.09 150.714 195.15 152.502 195.369C154.659 195.724 156.456 196.084 157.712 195.724" stroke="#263238" stroke-miterlimit="10"/>
<path d="M147.722 197.844C149.277 198.12 150.813 198.494 152.322 198.962C153.758 199.492 156.096 200.934 158.428 200.218" stroke="#263238" stroke-miterlimit="10"/>
<path d="M149.99 201.474C149.99 201.474 153.944 203.271 156.997 203.091" stroke="#263238" stroke-miterlimit="10"/>
<path d="M238.882 160.871C238.882 160.871 239.56 168.54 239.56 174.126C239.56 179.712 238.908 190.975 235.145 198.66C231.382 206.345 232.363 211.751 228.6 219.441C224.837 227.132 222.24 227.291 211.422 226.331C200.605 225.372 188.357 221.259 187.705 221.259C187.053 221.259 177.37 219.42 172.78 217.146C169.664 215.543 166.654 213.741 163.77 211.751C163.914 210.403 164.244 209.081 164.751 207.824C165.572 205.863 168.19 191.627 168.19 191.627C171.202 193.404 174.379 194.884 177.677 196.047C180.569 196.958 183.522 197.667 186.512 198.167C186.512 198.167 189.618 196.206 190.599 195.877C191.579 195.549 193.545 197.838 196.328 198.496C198.874 199.082 201.453 199.521 204.05 199.81C204.707 199.81 211.391 199.015 210.94 199.153C210.341 199.333 209.785 198.093 209.96 197.033C210.507 195.333 211.217 193.689 212.08 192.125C212.567 191.468 212.567 189.014 212.567 187.381C212.567 185.749 210.278 168.567 211.422 163.823C212.567 159.08 219.42 149.259 219.42 149.259C219.42 149.259 219.722 147.78 223.347 147.785C226.973 147.791 232.834 151.713 235.288 153.838" fill="#808080"/>
<path d="M238.882 160.871C238.882 160.871 239.56 168.54 239.56 174.126C239.56 179.712 238.908 190.975 235.145 198.66C231.382 206.345 232.363 211.751 228.6 219.441C224.837 227.132 222.24 227.291 211.422 226.331C200.605 225.372 188.357 221.259 187.705 221.259C187.053 221.259 177.37 219.42 172.78 217.146C169.664 215.543 166.654 213.741 163.77 211.751C163.914 210.403 164.244 209.081 164.751 207.824C165.572 205.863 168.19 191.627 168.19 191.627C171.202 193.404 174.379 194.884 177.677 196.047C180.569 196.958 183.522 197.667 186.512 198.167C186.512 198.167 189.618 196.206 190.599 195.877C191.579 195.549 193.545 197.838 196.328 198.496C198.874 199.082 201.453 199.521 204.05 199.81C204.707 199.81 211.391 199.015 210.94 199.153C210.341 199.333 209.785 198.093 209.96 197.033C210.507 195.333 211.217 193.689 212.08 192.125C212.567 191.468 212.567 189.014 212.567 187.381C212.567 185.749 210.278 168.567 211.422 163.823C212.567 159.08 219.42 149.259 219.42 149.259C219.42 149.259 219.722 147.78 223.347 147.785C226.973 147.791 232.834 151.713 235.288 153.838" stroke="#263238" stroke-miterlimit="10"/>
<path d="M234.912 170.167C233.622 168.819 232.088 167.727 230.391 166.95C228.384 166.105 226.146 165.981 224.058 166.6" stroke="#263238" stroke-miterlimit="10"/>
<path d="M237.069 172.589C237.069 172.589 236.581 171.937 235.776 171.063" stroke="#263238" stroke-miterlimit="10"/>
<path d="M167.952 209.965C167.952 210.153 167.896 210.338 167.791 210.495C167.686 210.652 167.537 210.774 167.363 210.846C167.188 210.918 166.997 210.937 166.812 210.9C166.627 210.864 166.457 210.773 166.323 210.639C166.19 210.506 166.099 210.336 166.062 210.151C166.025 209.966 166.044 209.774 166.116 209.6C166.189 209.425 166.311 209.276 166.468 209.172C166.625 209.067 166.809 209.011 166.998 209.011C167.25 209.012 167.492 209.113 167.671 209.292C167.849 209.47 167.95 209.712 167.952 209.965Z" stroke="#263238" stroke-miterlimit="10"/>
<path d="M217.719 205.513C218.331 206.183 219.007 206.792 219.738 207.331" stroke="#263238" stroke-miterlimit="10"/>
<path d="M211.231 198.337C211.231 198.337 214.141 201.729 216.627 204.368" stroke="#263238" stroke-miterlimit="10"/>
<path d="M200.34 207.352C200.868 208.141 201.439 208.9 202.052 209.626" stroke="#263238" stroke-miterlimit="10"/>
<path d="M195.204 198.824C195.204 198.824 197.298 202.63 199.402 205.905" stroke="#263238" stroke-miterlimit="10"/>
<path d="M173.617 208.322C172.944 211.502 172.192 214.332 171.497 215.514" stroke="#263238" stroke-miterlimit="10"/>
<path d="M175.732 196.211C175.732 196.211 175.075 200.833 174.142 205.624" stroke="#263238" stroke-miterlimit="10"/>
<path d="M48.7599 239.565H11.6599" stroke="#263238" stroke-miterlimit="10"/>
<path d="M250.367 239.565H54.0598" stroke="#263238" stroke-miterlimit="10"/>
</svg>
