<svg width="193" height="193" viewBox="0 0 193 193" fill="none" xmlns="http://www.w3.org/2000/svg">
<g clip-path="url(#clip0_58_305)">
<path d="M143.157 34.4984C144.784 28.0892 140.908 21.5742 134.498 19.9467C128.089 18.3193 121.574 22.1957 119.947 28.6049C118.319 35.0142 122.196 41.5292 128.605 43.1566C135.014 44.784 141.529 40.9076 143.157 34.4984Z" fill="#FAFAFA"/>
<path d="M158.983 32.7293C159.045 32.7227 159.103 32.703 159.157 32.6706C160.788 31.6743 162.955 31 164.839 31C166.955 31 168.105 31.8504 167.902 33.0551C167.852 33.3534 168.1 33.6159 168.399 33.5746C168.656 33.5395 168.909 33.521 169.154 33.521C170.851 33.521 171.53 34.4134 170.674 35.5123C170.631 35.5675 170.584 35.6231 170.535 35.6775C170.453 35.7683 170.333 35.8161 170.211 35.8161H154.451C154.085 35.8161 153.867 35.3946 154.09 35.1055C154.092 35.1028 154.094 35.1005 154.096 35.0982C155.016 33.9151 157.093 32.9331 158.983 32.7293Z" fill="#F5F5F5"/>
<path d="M71.983 51.7297C72.0451 51.7231 72.1034 51.7034 72.1567 51.6706C73.7875 50.6743 75.9545 50 77.8386 50C79.955 50 81.1049 50.8507 80.9019 52.0551C80.8517 52.3534 81.0995 52.6159 81.3994 52.5746C81.6557 52.5395 81.909 52.521 82.1541 52.521C83.8505 52.521 84.5295 53.4134 83.6741 54.5123C83.6309 54.5675 83.5842 54.6231 83.5348 54.6775C83.453 54.7683 83.3329 54.8161 83.2109 54.8161H67.4513C67.0854 54.8161 66.8665 54.3946 67.0904 54.1055C67.0923 54.1028 67.0943 54.1005 67.0962 54.0982C68.0157 52.9158 70.0931 51.9335 71.983 51.7297Z" fill="#F5F5F5"/>
<path d="M164.426 49.5479H164.421C164.147 49.5482 163.918 49.3599 163.859 49.092C163.647 48.12 162.463 47.4766 160.546 47.4766C160.131 47.4766 159.703 47.5063 159.271 47.5634C158.981 47.6016 158.72 47.4113 158.65 47.1276C158.334 45.8446 156.743 45 154.189 45C150.726 45 146.611 46.5544 144.209 48.6481C144.128 48.7187 144.031 48.7627 143.924 48.7778C141.718 49.0897 139.361 50.24 138.295 51.6106C138.178 51.7612 138.079 51.9113 138 52.0557H166.313L166.327 52.0379C167.397 50.6638 166.545 49.5479 164.426 49.5479Z" fill="#F5F5F5"/>
<path d="M56.1962 38.7877C56.195 38.7877 56.1939 38.7877 56.1931 38.7877C56.0252 38.7877 55.8847 38.6723 55.8488 38.5082C55.7187 37.9126 54.9934 37.5181 53.8184 37.5181C53.564 37.5181 53.3019 37.5363 53.0368 37.5714C52.8592 37.595 52.699 37.478 52.6562 37.3043C52.4624 36.518 51.4874 36 49.9221 36C47.7999 36 45.2778 36.9526 43.8056 38.2357C43.7558 38.2789 43.6963 38.306 43.6311 38.3152C42.2786 38.5063 40.8345 39.2115 40.1806 40.0515C40.1089 40.1437 40.0486 40.2356 40 40.3244H57.353L57.3615 40.3135C58.0169 39.4717 57.4951 38.7877 56.1962 38.7877Z" fill="#F5F5F5"/>
<path d="M181.133 129.028C184.199 136.832 186.208 146.034 181.547 153.004C166.666 175.255 106.832 170.135 64.0316 167.737C48.4273 166.863 26.5925 165.041 26.0133 149.423C25.6387 139.324 33.2814 126.878 37.5358 109.919C41.0258 96.0063 36.2344 81.8427 33.3791 67.7862C28.8274 45.3793 35.9846 27.5539 56.854 20.8606C69.9688 16.6543 84.3297 20.4267 95.4182 28.5958C107.741 37.6744 119.363 49.8188 128.733 62.2405C136.64 72.7224 145.451 82.5378 154.998 91.5506C166.508 102.415 175.342 114.282 181.133 129.028Z" fill="#2D7165"/>
<path d="M96.5001 165.039C137.834 165.039 171.341 163.082 171.341 160.668C171.341 158.254 137.834 156.297 96.5001 156.297C55.1665 156.297 21.6589 158.254 21.6589 160.668C21.6589 163.082 55.1665 165.039 96.5001 165.039Z" fill="#F5F5F5"/>
<path d="M178.546 131.503C177.475 132.138 176.452 132.819 175.468 133.531C175.798 132.983 176.126 132.435 176.448 131.888C188.348 111.639 182.8 103.746 170.362 118.289C171.976 112.984 173.124 107.908 173.416 103.606C174.751 83.956 162.806 88.9617 157.662 111.332C157.08 113.865 156.336 116.974 155.507 120.373C155.578 118.01 155.543 115.666 155.369 113.385C153.837 93.336 142.857 98.4755 141.049 121.311C140.052 133.907 140.679 151.709 140.866 156.27C140.892 156.909 141.371 157.431 142.004 157.52L145.999 158.076L147.819 158.329L150.456 158.696L152.905 159.037L156.531 159.542L157.362 159.657L160.872 160.146C161.362 160.214 161.847 160.005 162.133 159.601C163.887 157.123 170.549 148.141 179.408 141.524C195.682 129.368 194.316 122.152 178.546 131.503Z" fill="#92E3A9"/>
<path opacity="0.2" d="M178.546 131.503C177.475 132.138 176.452 132.819 175.468 133.531C175.798 132.983 176.126 132.435 176.448 131.888C188.348 111.639 182.8 103.746 170.362 118.289C171.976 112.984 173.124 107.908 173.416 103.606C174.751 83.956 162.806 88.9617 157.662 111.332C157.08 113.865 156.336 116.974 155.507 120.373C155.578 118.01 155.543 115.666 155.369 113.385C153.837 93.336 142.857 98.4755 141.049 121.311C140.052 133.907 140.679 151.709 140.866 156.27C140.892 156.909 141.371 157.431 142.004 157.52L145.999 158.076L147.819 158.329L150.456 158.696L152.905 159.037L156.531 159.542L157.362 159.657L160.872 160.146C161.362 160.214 161.847 160.005 162.133 159.601C163.887 157.123 170.549 148.141 179.408 141.524C195.682 129.368 194.316 122.152 178.546 131.503Z" fill="black"/>
<path d="M126.641 147.541C126.769 148.054 126.969 148.592 127.268 149.16C131.252 156.723 140.263 148.499 143.112 140.815C137.934 139.514 131.092 140.241 128.05 142.996L130.938 133.679C131.066 134.192 131.266 134.73 131.565 135.298C135.549 142.862 144.559 134.638 147.409 126.953C142.231 125.653 135.389 126.38 132.347 129.134L135.235 119.817C135.364 120.331 135.564 120.869 135.863 121.437C139.846 129 148.857 120.776 151.707 113.092C146.529 111.791 139.687 112.518 136.644 115.273L139.533 105.955C139.662 106.469 139.861 107.007 140.16 107.575C144.144 115.139 153.155 106.914 156.004 99.2302C150.826 97.9294 143.984 98.6565 140.942 101.411L143.83 92.0938C143.959 92.6076 144.159 93.1456 144.458 93.7135C148.441 101.277 157.452 93.0529 160.301 85.3686C155.124 84.0678 148.281 84.795 145.239 87.5495L148.127 78.2322C148.256 78.746 148.455 79.2835 148.755 79.8519C152.738 87.4155 161.749 79.1913 164.599 71.5065C159.421 70.2058 152.579 70.9329 149.536 73.6874L150.569 70.3574C156.398 68.4354 151.85 60.4399 146.646 57C143.921 62.2957 143.749 70.921 148.98 70.6691L146.3 79.3125C145.35 75.3199 140.119 70.8497 135.113 68.9939C133.116 76.9429 135.894 88.8217 143.458 84.8377C144.026 84.5388 144.494 84.208 144.891 83.8573L142.003 93.1745C141.052 89.182 135.821 84.7118 130.816 82.8559C128.819 90.805 131.597 102.684 139.16 98.6998C139.728 98.4009 140.197 98.0701 140.594 97.7193L137.706 107.037C136.755 103.044 131.524 98.5739 126.518 96.718C124.521 104.667 127.3 116.546 134.863 112.562C135.431 112.263 135.9 111.933 136.297 111.581L133.409 120.899C132.458 116.906 127.227 112.436 122.221 110.58C120.224 118.529 123.002 130.407 130.566 126.423C131.134 126.125 131.603 125.794 132 125.443L129.111 134.76C128.161 130.768 122.93 126.298 117.924 124.442C115.927 132.39 118.705 144.269 126.269 140.286C126.837 139.987 127.305 139.656 127.702 139.305L124.814 148.622C123.863 144.63 118.632 140.16 113.626 138.304C111.629 146.252 114.408 158.131 121.971 154.148C122.539 153.849 123.008 153.518 123.405 153.167L120.571 162.309C120.455 162.683 120.666 163.085 121.041 163.201C121.416 163.317 121.817 163.105 121.933 162.731L126.641 147.541Z" fill="#92E3A9"/>
<path opacity="0.7" d="M126.641 147.541C126.769 148.054 126.969 148.592 127.268 149.16C131.252 156.723 140.263 148.499 143.112 140.815C137.934 139.514 131.092 140.241 128.05 142.996L130.938 133.679C131.066 134.192 131.266 134.73 131.565 135.298C135.549 142.862 144.559 134.638 147.409 126.953C142.231 125.653 135.389 126.38 132.347 129.134L135.235 119.817C135.364 120.331 135.564 120.869 135.863 121.437C139.846 129 148.857 120.776 151.707 113.092C146.529 111.791 139.687 112.518 136.644 115.273L139.533 105.955C139.662 106.469 139.861 107.007 140.16 107.575C144.144 115.139 153.155 106.914 156.004 99.2302C150.826 97.9294 143.984 98.6565 140.942 101.411L143.83 92.0938C143.959 92.6076 144.159 93.1456 144.458 93.7135C148.441 101.277 157.452 93.0529 160.301 85.3686C155.124 84.0678 148.281 84.795 145.239 87.5495L148.127 78.2322C148.256 78.746 148.455 79.2835 148.755 79.8519C152.738 87.4155 161.749 79.1913 164.599 71.5065C159.421 70.2058 152.579 70.9329 149.536 73.6874L150.569 70.3574C156.398 68.4354 151.85 60.4399 146.646 57C143.921 62.2957 143.749 70.921 148.98 70.6691L146.3 79.3125C145.35 75.3199 140.119 70.8497 135.113 68.9939C133.116 76.9429 135.894 88.8217 143.458 84.8377C144.026 84.5388 144.494 84.208 144.891 83.8573L142.003 93.1745C141.052 89.182 135.821 84.7118 130.816 82.8559C128.819 90.805 131.597 102.684 139.16 98.6998C139.728 98.4009 140.197 98.0701 140.594 97.7193L137.706 107.037C136.755 103.044 131.524 98.5739 126.518 96.718C124.521 104.667 127.3 116.546 134.863 112.562C135.431 112.263 135.9 111.933 136.297 111.581L133.409 120.899C132.458 116.906 127.227 112.436 122.221 110.58C120.224 118.529 123.002 130.407 130.566 126.423C131.134 126.125 131.603 125.794 132 125.443L129.111 134.76C128.161 130.768 122.93 126.298 117.924 124.442C115.927 132.39 118.705 144.269 126.269 140.286C126.837 139.987 127.305 139.656 127.702 139.305L124.814 148.622C123.863 144.63 118.632 140.16 113.626 138.304C111.629 146.252 114.408 158.131 121.971 154.148C122.539 153.849 123.008 153.518 123.405 153.167L120.571 162.309C120.455 162.683 120.666 163.085 121.041 163.201C121.416 163.317 121.817 163.105 121.933 162.731L126.641 147.541Z" fill="white"/>
<path d="M93.657 155.101C81.9064 147.299 45.5251 120.846 32.5663 84.6513C32.6759 87.5676 33.7278 91.1682 35.5181 95.2162C32.9496 92.7801 28.4079 88.1022 24.0666 81.7857C27.0338 90.0465 32.2158 95.7944 35.6898 98.9472C32.7176 96.7355 28.677 93.4193 24.6008 89.1143C29.8346 98.6766 37.8379 103.878 41.1699 105.732C41.1807 105.749 41.1907 105.767 41.2015 105.784C37.5218 103.947 29.896 99.749 21.658 92.8913C25.9715 99.3247 31.1794 103.886 35.813 107.029C32.6991 105.318 29.2371 103.161 25.8024 100.514C30.4306 107.137 36.6429 112.128 41.8531 115.531C36.1283 112.577 29.0553 108.516 22.0837 103.446C32.2938 117.502 50.6388 124.626 56.5165 126.623C56.5192 126.627 56.5219 126.63 56.5246 126.633C50.6435 124.773 37.4589 120.17 23.6007 112.427C30.0971 119.443 38.4895 124.405 46.1145 127.817C40.9224 125.966 35.1965 123.628 29.6011 120.756C38.0591 129.459 50.9789 135.557 60.3726 139.153C54.3649 137.465 47.1231 134.898 39.9509 131.045C46.0362 138.38 54.7355 142.528 62.4122 144.872C56.9113 143.533 50.6558 141.665 44.3949 139.08C52.1284 146.684 62.8912 150.221 71.4763 151.865C65.1161 151.101 57.2777 149.734 49.6904 147.283C64.0411 159.59 90.0031 158.231 90.0031 158.231L92.9626 157.926C94.4058 157.778 94.866 155.904 93.657 155.101Z" fill="#92E3A9"/>
<path d="M111.38 140.167C109.804 136.809 108.045 133.294 106.117 129.657L102.284 133.82L104.739 127.092C102.961 123.82 101.058 120.463 99.0209 117.034H99.0205L94.8501 121.631L97.7726 114.952C95.5496 111.271 93.2787 107.676 90.9855 104.195L87.6594 108.911L88.7371 100.827C86.6341 97.7225 84.52 94.7229 82.4152 91.8472L79.2083 97.1635L80.5141 89.2814C77.7426 85.5855 74.9966 82.1207 72.322 78.9389L69.3471 82.8097L70.4723 76.7704C67.2488 73.0478 64.1473 69.7622 61.2523 67.0131L60.0121 70.7245L59.9357 65.7887C54.2464 60.5954 49.4392 57.6136 46.1948 57.6136C43.0296 57.6136 41.7439 60.453 42.1241 65.4189L51.1893 70.6438L42.4039 67.7812C42.8772 70.8102 43.8345 74.4362 45.2364 78.5417L56.1394 84.2677L46.5403 82.1589C48.0341 86.1062 49.8842 90.419 52.0671 95.0162L62.9731 99.8304L53.4995 97.9772C55.3299 101.692 57.3634 105.57 59.5875 109.573L71.0675 113.394L61.6449 113.213C62.3937 114.518 63.1599 115.833 63.9466 117.16C64.8641 118.707 65.7932 120.235 66.7277 121.752L77.9522 125.528L68.2385 124.182C70.0033 126.992 71.7897 129.743 73.5866 132.42L85.1747 136.69L75.6771 135.493C78.1819 139.13 80.6948 142.612 83.1852 145.905L94.429 148.629L84.979 148.249C86.8619 150.681 88.727 153.002 90.5586 155.189C92.1339 157.071 94.4641 158.276 96.537 158.276H113.484C116.414 158.276 117.895 155.903 116.808 152.973C115.558 149.603 114.039 145.955 112.271 142.085L107.57 145.576L111.38 140.167Z" fill="#92E3A9"/>
<path opacity="0.4" d="M111.38 140.167C109.804 136.809 108.045 133.294 106.117 129.657L102.284 133.82L104.739 127.092C102.961 123.82 101.058 120.463 99.0209 117.034H99.0205L94.8501 121.631L97.7726 114.952C95.5496 111.271 93.2787 107.676 90.9855 104.195L87.6594 108.911L88.7371 100.827C86.6341 97.7225 84.52 94.7229 82.4152 91.8472L79.2083 97.1635L80.5141 89.2814C77.7426 85.5855 74.9966 82.1207 72.322 78.9389L69.3471 82.8097L70.4723 76.7704C67.2488 73.0478 64.1473 69.7622 61.2523 67.0131L60.0121 70.7245L59.9357 65.7887C54.2464 60.5954 49.4392 57.6136 46.1948 57.6136C43.0296 57.6136 41.7439 60.453 42.1241 65.4189L51.1893 70.6438L42.4039 67.7812C42.8772 70.8102 43.8345 74.4362 45.2364 78.5417L56.1394 84.2677L46.5403 82.1589C48.0341 86.1062 49.8842 90.419 52.0671 95.0162L62.9731 99.8304L53.4995 97.9772C55.3299 101.692 57.3634 105.57 59.5875 109.573L71.0675 113.394L61.6449 113.213C62.3937 114.518 63.1599 115.833 63.9466 117.16C64.8641 118.707 65.7932 120.235 66.7277 121.752L77.9522 125.528L68.2385 124.182C70.0033 126.992 71.7897 129.743 73.5866 132.42L85.1747 136.69L75.6771 135.493C78.1819 139.13 80.6948 142.612 83.1852 145.905L94.429 148.629L84.979 148.249C86.8619 150.681 88.727 153.002 90.5586 155.189C92.1339 157.071 94.4641 158.276 96.537 158.276H113.484C116.414 158.276 117.895 155.903 116.808 152.973C115.558 149.603 114.039 145.955 112.271 142.085L107.57 145.576L111.38 140.167Z" fill="white"/>
<path d="M110.305 66.2978C110.925 68.4023 111.522 70.5292 112.103 72.6479C112.684 74.7647 113.259 76.8935 113.856 78.9548L114.075 79.6831C114.058 79.6658 114.031 79.6546 114.038 79.6847C114.051 79.7418 114.251 79.9337 114.574 80.0827C115.229 80.3926 116.201 80.6161 117.185 80.7419C118.181 80.879 119.23 80.9411 120.291 80.9755C120.822 80.9855 121.358 81.0071 121.895 81.0048L123.493 80.9874L123.908 83.3826C121.654 84.0226 119.421 84.434 116.988 84.4892C115.769 84.49 114.514 84.4487 113.088 83.9863C112.383 83.7419 111.581 83.3934 110.837 82.6364C110.471 82.2589 110.142 81.7726 109.929 81.2372L109.601 80.3984C108.789 78.2634 108.096 76.1505 107.424 74.0228C106.759 71.8944 106.14 69.7653 105.575 67.6052L110.305 66.2978Z" fill="#EFCBB8"/>
<path d="M104.498 65.2008C103.071 68.0796 107.639 77.5304 107.639 77.5304L113.507 75.2098C113.507 75.2098 113.276 70.7001 111.854 66.7946C110.356 62.6818 106.084 62.0001 104.498 65.2008Z" fill="#263238"/>
<path opacity="0.2" d="M104.352 65.5663C105.735 65.1058 107.139 65.8022 108.312 68.4463C109.47 71.0626 110.175 75.3553 110.137 76.5434L107.639 77.5304C107.639 77.5304 103.365 68.7756 104.352 65.5663Z" fill="black"/>
<path d="M122.767 81.2997L124.531 79.8688C125.457 79.1176 126.826 79.3091 127.51 80.2861C128.42 81.5857 127.578 83.3814 125.997 83.5153C125.205 83.5825 124.153 83.5343 123.407 83.4173L122.767 81.2997Z" fill="#EFCBB8"/>
<path d="M108.737 63.3989C108.737 63.3989 111.451 73.951 105.432 92.2582L87.5889 90.0912C87.7757 87.6359 90.4541 76.9143 90.2708 65.244C90.2322 62.7736 92.2676 60.7849 94.7372 60.8583C95.1985 60.8722 95.6678 60.8946 96.1322 60.9282C98.4254 61.0953 101.735 61.4234 103.717 61.8495C106.331 62.4119 108.737 63.3989 108.737 63.3989Z" fill="#263238"/>
<path opacity="0.2" d="M93.4486 62.1973C92.9658 61.9044 92.3339 61.8793 91.6279 62.0364C90.7775 62.8373 90.2491 63.9768 90.2695 65.2444C90.3066 67.4531 90.2364 69.629 90.1001 71.718C90.8516 71.2351 91.6978 70.6156 92.569 69.8436C95.8264 66.9617 96.3961 63.9853 93.4486 62.1973Z" fill="black"/>
<path d="M97.9208 52.4786C98.103 54.9772 98.0374 59.5069 96.1321 60.9282C98.35 62.2058 99.4366 64.0718 101.965 64.5361C103.935 64.8978 104.116 62.9535 103.717 61.8496C101.074 60.8691 101.39 58.8584 102.094 57.0199L97.9208 52.4786Z" fill="#EFCBB8"/>
<path opacity="0.2" d="M99.6222 54.3314L102.093 57.0176C101.924 57.4526 101.781 57.8969 101.695 58.3354C100.674 58.059 99.3844 56.7443 99.406 55.6423C99.4168 55.0926 99.5029 54.5734 99.6222 54.3314Z" fill="black"/>
<path d="M98.0767 48.7707C97.8783 52.1 97.593 54.0385 99.0563 55.9376C101.257 58.794 105.52 57.7757 106.709 54.5727C107.78 51.6897 107.924 46.7296 104.849 45.0215C101.819 43.3385 98.2747 45.4411 98.0767 48.7707Z" fill="#EFCBB8"/>
<path d="M97.9335 51.6518C97.9335 51.6518 99.5829 51.1199 99.3976 48.8217C99.8844 47.5405 105.544 46.6632 105.544 46.6632C105.544 46.6632 105.926 47.0021 106.757 46.2331C108.615 44.5127 105.521 42.5117 102.539 42.3284C102.832 42.8618 103.013 43.0969 103.013 43.0969C103.013 43.0969 98.99 42.4488 96.5872 43.762C97.0345 43.9226 97.436 43.911 97.436 43.911C97.436 43.911 95.5095 45.1037 94.3511 46.3767C96.3579 47.512 97.0577 47.6957 97.0577 47.6957L97.0921 49.9893L97.9335 51.6518Z" fill="#263238"/>
<path d="M96.8257 47.8115C96.7304 48.2512 96.6022 49.1861 96.9867 50.0129C97.094 50.2433 97.375 50.3356 97.6051 50.2271C98.6542 49.7319 100.873 48.47 103.412 47.9632C104.78 47.6903 105.901 47.7532 106.566 47.8439C106.902 47.8895 107.171 47.5714 107.078 47.246C106.951 46.8056 106.727 46.2285 106.335 45.7024C106.251 45.5885 106.116 45.5175 105.975 45.5017C103.333 45.2006 101.378 45.4233 97.1121 47.4521C96.9662 47.5212 96.8601 47.654 96.8257 47.8115Z" fill="#92E3A9"/>
<path d="M96.1416 52.232C96.5184 53.0487 97.2367 53.6154 97.9342 53.8597C98.9834 54.2276 99.5794 53.3066 99.3481 52.2791C99.1397 51.3542 98.343 50.0484 97.261 50.124C96.1949 50.1993 95.7109 51.2982 96.1416 52.232Z" fill="#EFCBB8"/>
<path d="M98.4679 92.2582C98.4679 92.2582 91.2736 115.643 87.0133 124.971C82.582 134.673 67.9063 155.903 67.9063 155.903L65.2695 154.178C65.2695 154.178 75.2959 132.735 79.4215 123.11C81.1419 117.09 88.5272 90.6448 88.5272 90.6448L98.4679 92.2582Z" fill="#EFCBB8"/>
<path d="M69.0295 154.744L65.9037 152.626C65.7898 152.549 65.6381 152.561 65.5381 152.656L63.3132 154.757C63.0824 154.975 63.1198 155.354 63.3854 155.528C64.4894 156.249 64.8445 156.596 66.219 157.527C67.0647 158.1 69.6969 160.571 71.1046 160.663C72.4811 160.754 72.6413 159.637 71.7929 159.339C69.2924 158.46 69.634 156.303 69.3657 155.221C69.3171 155.026 69.1962 154.857 69.0295 154.744Z" fill="#263238"/>
<path d="M70.594 155.892C70.6094 155.871 70.6237 155.849 70.6376 155.826C70.7082 155.706 70.6839 155.609 70.6511 155.548C70.4508 155.183 69.2596 155.121 69.0226 155.113C68.9844 155.111 68.9496 155.132 68.9334 155.167C68.9172 155.202 68.9237 155.243 68.9492 155.271C69.2457 155.596 69.8096 156.136 70.2539 156.09C70.3913 156.075 70.5052 156.009 70.594 155.892ZM69.2526 155.315C69.7706 155.355 70.3906 155.467 70.4851 155.639C70.4955 155.658 70.5021 155.683 70.4743 155.73C70.4133 155.834 70.3338 155.891 70.2342 155.901C70.0057 155.925 69.6467 155.709 69.2526 155.315Z" fill="white"/>
<path d="M70.4991 154.816C70.5161 154.794 70.5296 154.771 70.5396 154.748C70.5686 154.681 70.5948 154.549 70.4431 154.416C70.3462 154.332 70.2289 154.295 70.0942 154.307C69.5854 154.353 68.9713 155.116 68.9454 155.148C68.9219 155.176 68.9188 155.212 68.9323 155.244C68.9458 155.275 68.9759 155.297 69.0103 155.301C69.3809 155.337 70.2602 155.133 70.4991 154.816ZM69.2265 155.111C69.4488 154.869 69.8263 154.521 70.1112 154.495C70.1938 154.488 70.2617 154.508 70.3192 154.558C70.3895 154.619 70.374 154.655 70.3663 154.672C70.2853 154.863 69.6514 155.077 69.2265 155.111Z" fill="white"/>
<path d="M105.317 93.9466C105.317 93.9466 115.054 106.497 118.528 116.012C120.217 120.637 106.251 140.751 106.251 140.751L104.513 138.191C104.03 138.411 108.568 124.275 111.968 118.856C105.867 109.999 96.1545 99.5668 96.1545 99.5668L105.317 93.9466Z" fill="#EFCBB8"/>
<path d="M106.968 139.915L104.527 137.035C104.438 136.93 104.289 136.901 104.167 136.965L101.459 138.39C101.178 138.538 101.112 138.913 101.322 139.151C102.191 140.142 102.664 140.581 103.738 141.847C104.398 142.627 106.637 145.432 107.549 146.508C108.441 147.56 109.644 146.822 109.367 146.3C108.125 143.959 107.131 141.578 107.163 140.464C107.169 140.264 107.098 140.068 106.968 139.915Z" fill="#263238"/>
<path d="M108.166 141.441C108.187 141.425 108.206 141.408 108.226 141.389C108.326 141.293 108.329 141.193 108.314 141.126C108.219 140.72 107.088 140.34 106.862 140.268C106.826 140.256 106.787 140.267 106.761 140.296C106.737 140.325 106.732 140.366 106.749 140.4C106.947 140.794 107.345 141.465 107.786 141.54C107.921 141.563 108.049 141.53 108.166 141.441ZM107.029 140.525C107.517 140.703 108.085 140.977 108.129 141.168C108.134 141.189 108.133 141.215 108.094 141.253C108.008 141.337 107.916 141.371 107.817 141.354C107.591 141.315 107.303 141.01 107.029 140.525Z" fill="white"/>
<path d="M108.363 140.361C108.385 140.344 108.404 140.326 108.42 140.306C108.466 140.249 108.527 140.128 108.416 139.96C108.346 139.852 108.242 139.785 108.109 139.761C107.607 139.668 106.81 140.237 106.776 140.262C106.746 140.282 106.734 140.316 106.738 140.35C106.742 140.385 106.765 140.414 106.798 140.426C107.145 140.562 108.047 140.602 108.363 140.361ZM107.057 140.303C107.337 140.129 107.794 139.895 108.075 139.947C108.156 139.962 108.216 140 108.258 140.064C108.309 140.142 108.285 140.172 108.273 140.187C108.144 140.348 107.476 140.384 107.057 140.303Z" fill="white"/>
<path d="M105.432 92.2582C105.432 92.2582 110.418 99.2908 113.215 105.493C111.282 106.227 107.229 109.555 106.393 111.442C99.8295 104.905 93.261 97.8919 93.261 97.8919L98.2091 91.3813L105.432 92.2582Z" fill="#263238"/>
<path opacity="0.2" d="M97.0114 97.3411L96.5864 101.398C97.9073 102.785 99.5424 104.482 101.318 106.307C99.9716 101.526 97.0114 97.3411 97.0114 97.3411Z" fill="black"/>
<path d="M101.579 91.79C101.579 91.79 93.5261 108.424 92.0527 111.839C90.5219 111.136 85.19 109.227 83.3477 109.291C83.3716 107.293 87.589 90.0912 87.589 90.0912L101.579 91.79Z" fill="#263238"/>
<path d="M102.977 50.3031C102.944 50.5722 103.06 50.8076 103.236 50.8289C103.412 50.8501 103.581 50.6494 103.614 50.3803C103.647 50.1113 103.531 49.8758 103.354 49.8546C103.179 49.833 103.01 50.0341 102.977 50.3031Z" fill="#263238"/>
<path d="M106.019 50.6725C105.986 50.9416 106.102 51.177 106.278 51.1983C106.454 51.2195 106.623 51.0188 106.656 50.7497C106.688 50.4807 106.572 50.2452 106.396 50.2236C106.22 50.2024 106.051 50.4031 106.019 50.6725Z" fill="#263238"/>
<path d="M105.035 50.6888C105.035 50.6888 105.459 52.3154 106.041 53.1464C105.511 53.5328 104.726 53.2317 104.726 53.2317L105.035 50.6888Z" fill="#BA4D3C"/>
<path d="M103.862 53.8798C103.902 53.8798 103.936 53.8501 103.941 53.8099C103.946 53.7663 103.915 53.7266 103.871 53.7212C102.69 53.5776 102.239 52.6859 102.235 52.6766C102.215 52.6373 102.168 52.6207 102.128 52.6404C102.089 52.6597 102.073 52.7075 102.092 52.7469C102.112 52.787 102.586 53.7254 103.852 53.879C103.856 53.8798 103.859 53.8798 103.862 53.8798Z" fill="#263238"/>
<path d="M102.199 49.2119C102.241 49.2119 102.282 49.1957 102.313 49.1633C102.801 48.658 103.367 48.7541 103.39 48.7588C103.476 48.7746 103.56 48.7178 103.576 48.6318C103.592 48.5457 103.536 48.4627 103.45 48.4461C103.419 48.4403 102.696 48.3091 102.084 48.9421C102.023 49.0054 102.025 49.1062 102.088 49.1671C102.119 49.1973 102.159 49.2119 102.199 49.2119Z" fill="#263238"/>
<path d="M107.496 49.7905C107.513 49.7905 107.531 49.7878 107.548 49.7816C107.631 49.7531 107.675 49.6624 107.646 49.5794C107.36 48.7468 106.649 48.5596 106.619 48.5518C106.533 48.531 106.447 48.5823 106.425 48.6673C106.404 48.7522 106.456 48.8386 106.54 48.8603C106.566 48.8672 107.117 49.0197 107.345 49.6828C107.368 49.7492 107.43 49.7905 107.496 49.7905Z" fill="#263238"/>
<path d="M93.2706 65.9473C91.2429 66.6572 89.1581 67.4052 87.1436 68.1768C86.1311 68.5594 85.1368 68.9681 84.1656 69.3812C83.206 69.798 82.2522 70.2528 81.4794 70.7106C81.3852 70.7677 81.2876 70.8248 81.2096 70.8792C81.1243 70.9348 81.0405 70.9896 80.9799 71.0375L80.8854 71.1047C80.8788 71.1104 80.8707 71.107 80.8595 71.1186C80.8379 71.1301 80.8078 71.1599 80.7734 71.1969C80.6345 71.3482 80.4434 71.6806 80.2944 72.0689C79.9933 72.8621 79.7791 73.8603 79.6309 74.8755C79.4769 75.8976 79.3834 76.9618 79.3093 78.0364C79.2792 78.5738 79.2375 79.1161 79.2163 79.6592L79.1611 81.2769L76.7486 81.5761C76.2078 79.2913 75.8878 77.0317 75.8708 74.6227C75.879 73.4172 75.9403 72.187 76.2812 70.8418C76.4618 70.1678 76.6911 69.4514 77.1929 68.6871C77.3199 68.4968 77.46 68.305 77.6306 68.1147C77.7101 68.0201 77.8078 67.9256 77.9004 67.8333L78.1251 67.6303C78.2741 67.4944 78.4142 67.3832 78.5543 67.274C78.6971 67.1582 78.8322 67.0625 78.9693 66.9637C80.0562 66.1889 81.1015 65.6401 82.1549 65.102C83.2037 64.5705 84.2602 64.1022 85.3151 63.6506C87.4373 62.7582 89.5445 61.9796 91.7478 61.2813L93.2706 65.9473Z" fill="#EFCBB8"/>
<path d="M79.1627 80.2004L79.595 83.1984C79.7478 84.3811 78.8655 85.445 77.6754 85.5141C76.0917 85.6059 75.0058 83.9461 75.7226 82.5307C76.0816 81.8212 76.5112 81.1102 77.0022 80.5366L79.1627 80.2004Z" fill="#EFCBB8"/>
<path d="M97.0114 61.7094C94.9945 59.085 85.0986 63.189 85.0986 63.189L87.0908 69.7421C87.0908 69.7421 89.8036 69.8521 93.4216 68.5165C97.5035 67.0096 99.1112 64.4419 97.0114 61.7094Z" fill="#263238"/>
<path d="M87.3889 88.853L87.1152 90.287C87.077 90.4873 87.2028 90.6814 87.4016 90.727C88.6754 91.018 93.2179 92.0143 98.3432 92.6551C102.952 93.2314 105.083 93.143 105.838 93.0677C106.031 93.0484 106.176 92.8847 106.175 92.6902L106.172 91.3662C106.172 91.1628 106.013 90.9956 105.809 90.9883C104.362 90.9377 98.5543 90.6131 87.8351 88.553C87.6298 88.5133 87.4279 88.6472 87.3889 88.853Z" fill="#92E3A9"/>
<path fill-rule="evenodd" clip-rule="evenodd" d="M85.3315 38.951C84.7688 39.1144 84.1836 39.2301 83.5801 39.2929C78.1309 39.8598 73.2537 35.9019 72.6868 30.4527C72.389 27.5904 73.3396 24.886 75.0989 22.8811C70.58 24.1934 67.506 28.5868 68.0101 33.4326C68.5771 38.8819 73.4542 42.8398 78.9035 42.2728C81.4905 42.0037 83.7414 40.7631 85.3315 38.951Z" fill="#F5F5F5"/>
</g>
<defs>
<clipPath id="clip0_58_305">
<rect width="193" height="193" fill="white"/>
</clipPath>
</defs>
</svg>
