<svg width="360" height="427" viewBox="0 0 360 427" fill="none" xmlns="http://www.w3.org/2000/svg">
<path d="M243.288 96.8778C243.288 96.8778 196.881 75.7071 147.486 98.7395C98.0907 121.772 69.772 173.516 45.6124 214.883C21.4527 256.251 29.3864 301.061 63.5464 324.153C97.7064 347.245 124.65 319.883 175.113 322.812C225.576 325.741 238.488 334.093 282.717 309.285C326.946 284.476 340.345 217.992 311.71 165.462C283.076 112.933 243.288 96.8778 243.288 96.8778Z" fill="#92E3A9"/>
<path opacity="0.7" d="M243.288 96.8778C243.288 96.8778 196.881 75.7071 147.486 98.7395C98.0907 121.772 69.772 173.516 45.6124 214.883C21.4527 256.251 29.3864 301.061 63.5464 324.153C97.7064 347.245 124.65 319.883 175.113 322.812C225.576 325.741 238.488 334.093 282.717 309.285C326.946 284.476 340.345 217.992 311.71 165.462C283.076 112.933 243.288 96.8778 243.288 96.8778Z" fill="white"/>
<path d="M272.811 305.527C269.557 303.272 265.321 307.175 263.707 309.874C262.366 312.111 260.641 315.562 260.24 316.373L260.189 316.176L260.282 316.1L260.189 316.151C259.452 313.328 258.392 310.6 257.029 308.021C257.738 307.167 260.616 306.15 261.299 305.877C263.963 304.724 266.534 303.802 268.131 301.18C269.36 299.105 269.916 296.184 267.225 295.014C263.596 293.426 260.206 298.08 259.138 301.035C258.284 303.358 257.353 306.808 257.046 307.918C255.867 305.698 254.528 303.566 253.041 301.539C254.066 300.44 255.212 299.461 256.457 298.618C258.745 296.825 260.983 295.279 261.828 292.341C262.486 290.018 262.272 287.055 259.377 286.611C255.466 286.005 253.399 291.376 253.1 294.502C252.912 296.697 252.861 299.788 252.844 301.24C251.717 299.703 250.607 298.311 249.59 297.038C248.574 295.766 247.575 294.476 246.832 293.426L247.097 293.306C246.997 293.348 246.888 293.362 246.781 293.349L246.738 293.298C247.276 292.341 249.923 290.796 250.504 290.403C252.912 288.78 255.261 287.397 256.311 284.536C257.165 282.264 257.165 279.292 254.287 278.635C250.427 277.781 247.951 282.956 247.455 286.056C247.063 288.481 246.764 292.034 246.67 293.195C246.542 293.007 246.422 292.828 246.32 292.649C244.954 290.422 243.741 288.105 242.69 285.714L242.972 285.663C242.868 285.687 242.76 285.687 242.656 285.663C242.613 285.578 242.579 285.484 242.536 285.398C243.365 284.156 244.33 283.01 245.414 281.982C247.379 279.839 249.343 277.951 249.684 274.92C249.958 272.52 249.274 269.633 246.345 269.659C242.383 269.659 241.178 275.33 241.418 278.464C241.563 280.377 241.921 282.956 242.161 284.536C241.486 282.947 240.991 281.615 240.683 280.735C240.529 280.3 240.418 279.984 240.359 279.787C240.286 278.443 240.317 277.096 240.453 275.757C240.581 272.862 240.871 270.146 239.189 267.601C237.865 265.577 235.474 263.809 233.211 265.714C230.196 268.276 232.903 273.4 235.098 275.62C236.644 277.2 238.958 279.267 240.051 280.223C240.342 281.077 241.025 283.033 242.058 285.407C240.922 284.612 239.856 283.72 238.873 282.742C236.695 280.821 234.765 278.891 231.725 278.6C229.325 278.361 226.447 279.113 226.532 282.016C226.643 285.97 232.305 287.064 235.431 286.765C237.694 286.543 240.871 286.013 242.263 285.783C243.325 288.223 244.558 290.586 245.952 292.854C246.029 292.99 246.123 293.127 246.209 293.255C244.895 292.77 243.629 292.167 242.425 291.453C239.863 290.121 237.498 288.729 234.483 289.19C232.092 289.557 229.487 290.992 230.29 293.802C231.375 297.619 237.122 297.277 240.085 296.218C242.22 295.45 245.167 294.16 246.431 293.588C247.191 294.69 248.139 295.911 249.249 297.277C250.359 298.644 251.572 300.198 252.801 301.898C251.947 302.256 248.856 300.386 248.164 300.036C245.602 298.704 243.245 297.312 240.222 297.773C237.839 298.14 235.235 299.575 236.037 302.384C237.122 306.202 242.869 305.86 245.824 304.801C248.583 303.81 252.656 301.949 252.801 301.898V302.034C252.793 301.992 252.793 301.948 252.801 301.906C254.24 303.885 255.539 305.963 256.687 308.123C255.585 308.371 252.699 307.56 252.024 307.414C249.189 306.808 246.559 306.082 243.766 307.32C241.563 308.294 239.428 310.361 240.939 312.871C242.98 316.287 248.446 314.426 251.017 312.632C253.058 311.206 255.867 308.917 256.73 308.209C258.066 310.755 259.109 313.446 259.838 316.228C258.643 316.373 255.995 315.63 255.355 315.493C252.52 314.895 249.889 314.161 247.097 315.399C244.893 316.381 242.758 318.44 244.27 320.95C246.311 324.366 251.777 322.505 254.347 320.711C256.269 319.362 258.873 317.252 259.89 316.441C260.854 320.276 261.163 324.246 260.803 328.184H261.188C261.552 324.224 261.249 320.232 260.291 316.373C260.983 315.638 264.245 315.152 264.954 314.998C267.798 314.392 270.488 313.982 272.529 311.71C274.109 310.002 275.21 307.201 272.811 305.527Z" fill="white"/>
<path d="M298.644 319.738C295.638 320.259 293.862 322.3 291.812 324.409C291.351 324.879 289.566 326.971 288.49 327.509C287.544 324.792 286.916 321.975 286.62 319.114C287.73 319.225 291.334 319.567 293.819 319.618C296.962 319.678 302.521 318.166 302.359 314.212C302.222 311.292 299.302 310.796 296.927 311.172C293.913 311.693 292.137 313.734 290.095 315.835C289.609 316.33 287.662 318.61 286.611 319.012C286.366 316.577 286.292 314.129 286.389 311.684L286.483 311.778L286.406 311.667C286.534 311.667 290.975 310.916 293.819 310.207C296.868 309.447 301.838 306.526 300.651 302.76C299.754 299.976 296.791 300.198 294.605 301.249C291.838 302.547 290.668 305.006 289.259 307.542C288.883 308.217 287.329 311.505 286.44 311.667C286.517 309.566 286.679 307.611 286.833 305.852C286.987 304.092 287.106 302.555 287.124 301.223C288.49 300.984 291.658 300.42 293.862 299.874C296.91 299.114 301.881 296.193 300.694 292.427C299.84 289.643 296.834 289.865 294.647 290.915C291.812 292.196 290.659 294.63 289.25 297.192C288.644 298.457 287.927 299.666 287.106 300.804C287.106 300.642 287.106 300.48 287.106 300.326C287.005 297.665 286.719 295.014 286.252 292.393C287.516 291.829 290.454 290.505 292.453 289.421C295.219 287.935 299.285 283.887 297.209 280.53C295.655 278.054 292.854 279.027 290.984 280.53C288.618 282.469 288.089 285.142 287.346 287.943C287.07 289.306 286.679 290.643 286.176 291.94C285.714 289.378 285.211 287.397 284.963 286.508C285.339 285.108 286.116 282.102 286.526 279.933C287.106 276.841 286.526 271.111 282.589 270.641C279.685 270.3 278.678 273.092 278.695 275.509C278.695 278.566 280.471 280.633 282.187 282.99C283.043 284.03 283.816 285.135 284.502 286.295C284.562 286.491 284.647 286.816 284.758 287.26C284.989 288.165 285.313 289.549 285.612 291.24C284.929 289.796 283.802 287.456 282.854 285.783C281.308 283.041 277.183 279.019 273.869 281.197C271.418 282.802 272.452 285.586 274.015 287.422C275.996 289.745 278.677 290.232 281.504 290.915C282.968 291.169 284.4 291.581 285.774 292.145L285.825 292.427C285.761 292.514 285.676 292.584 285.578 292.632L285.843 292.521C286.308 295.091 286.593 297.691 286.697 300.301C286.697 300.514 286.697 300.728 286.697 300.95C285.979 300.044 283.75 297.252 282.076 295.45C279.941 293.144 274.988 290.198 272.273 293.084C270.266 295.211 271.922 297.687 273.869 299.062C276.338 300.864 279.062 300.702 281.957 300.719C282.657 300.719 285.723 300.531 286.697 301.026V301.095C286.612 301.165 286.513 301.215 286.406 301.24L286.697 301.189C286.697 302.495 286.551 304.015 286.406 305.723C286.261 307.431 286.124 309.139 286.039 311.027C285.185 309.831 283.477 307.295 282.076 305.57C280.112 303.119 275.39 299.822 272.477 302.495C270.317 304.477 271.786 307.064 273.622 308.619C275.953 310.591 278.678 310.634 281.573 310.856C283.071 310.865 284.564 311.046 286.022 311.394C285.914 313.907 285.985 316.424 286.235 318.926C285.381 318.166 282.657 315.835 280.676 314.366C278.114 312.504 272.742 310.514 270.599 313.854C269.019 316.322 271.103 318.44 273.28 319.481C276.039 320.788 278.686 320.13 281.538 319.61C282.222 319.481 285.194 318.756 286.252 319.046C286.549 321.956 287.183 324.822 288.14 327.586L288.208 327.782C287.422 327.33 284.075 325.417 281.718 324.307C278.874 322.957 273.178 322.06 271.734 325.75C270.667 328.474 273.109 330.156 275.449 330.746C278.413 331.506 280.881 330.344 283.579 329.277C284.254 329.012 287.235 327.569 288.225 327.825C289.574 331.563 291.536 335.049 294.032 338.141L294.34 337.902C291.857 334.834 289.908 331.37 288.575 327.654C289.873 327.782 293.213 328.09 295.561 328.141C298.704 328.201 304.263 326.698 304.101 322.735C303.964 319.857 301.044 319.328 298.644 319.738Z" fill="white"/>
<path d="M67.7652 309.942C64.7676 309.344 62.3679 310.634 59.729 311.838C59.1312 312.111 56.7144 313.409 55.5103 313.546C55.6064 310.66 56.0362 307.794 56.7913 305.006C57.7819 305.51 61.0613 307.124 63.3329 308.072C66.2365 309.259 71.9669 309.857 73.2222 306.099C74.1446 303.315 71.6082 301.769 69.2426 301.3C66.2451 300.702 63.8453 301.991 61.2065 303.204C60.5745 303.486 57.9356 304.912 56.8169 304.912C57.4602 302.552 58.2707 300.24 59.2423 297.995C59.265 298.032 59.2823 298.072 59.2935 298.114V297.978C59.4131 297.978 63.8282 298.926 66.7318 299.284C69.8489 299.677 75.5366 298.746 75.7586 294.792C75.9209 291.872 73.0685 291.043 70.6346 291.205C67.5858 291.419 65.6046 293.289 63.3842 295.151C62.7864 295.638 60.156 298.157 59.2679 297.978C60.1219 296.048 60.9759 294.28 61.7189 292.691C62.4618 291.103 63.1707 289.711 63.666 288.473C65.0324 288.754 68.1836 289.369 70.4382 289.651C73.5553 290.035 79.2429 289.105 79.465 285.151C79.6272 282.23 76.7749 281.402 74.341 281.564C71.2922 281.777 69.3109 283.648 67.082 285.509C66.0618 286.46 64.9585 287.317 63.7855 288.071C63.8453 287.926 63.8966 287.772 63.9478 287.627C64.8074 285.115 65.4922 282.547 65.9974 279.941C67.3894 279.873 70.6005 279.694 72.8294 279.412C75.9465 279.019 81.2328 276.713 80.5154 272.827C79.9518 269.949 76.9884 269.855 74.6911 270.607C71.7961 271.563 70.3357 273.861 68.6277 276.218C67.872 277.39 67.0147 278.493 66.0657 279.514C66.5525 276.952 66.8002 274.937 66.9197 274.014C67.7737 272.844 69.5842 270.317 70.7456 268.438C72.3939 265.765 73.9225 260.205 70.4126 258.361C67.8506 256.986 65.8864 259.215 65.0324 261.495C63.9563 264.356 64.8274 266.935 65.596 269.736C66.0144 271.014 66.337 272.321 66.561 273.647C66.561 273.852 66.5098 274.185 66.4586 274.638C66.3475 275.569 66.1511 276.978 65.8522 278.677C65.7327 277.08 65.5192 274.493 65.2373 272.588C64.7847 269.48 62.385 264.236 58.5078 265.073C55.6469 265.688 55.6042 268.66 56.407 270.94C57.4147 273.818 59.7461 275.21 62.1288 276.918C63.4089 277.68 64.6005 278.583 65.6814 279.608C65.6665 279.7 65.6465 279.791 65.6216 279.881C65.531 279.939 65.4291 279.977 65.3227 279.992H65.6046C65.1099 282.558 64.4364 285.087 63.5891 287.559C63.5208 287.755 63.4439 287.96 63.3671 288.165C63.0169 287.055 61.9494 283.656 61.0357 281.333C59.8742 278.421 56.313 273.886 52.7433 275.594C50.1045 276.867 50.7535 279.762 52.0601 281.794C53.7083 284.356 56.3301 285.21 59.0117 286.244C59.6607 286.5 62.5814 287.431 63.2817 288.242V288.31C63.1773 288.33 63.0701 288.33 62.9657 288.31L63.2475 288.37C62.7607 289.583 62.0946 290.932 61.3431 292.495C60.5916 294.058 59.8571 295.561 59.0971 297.312C58.764 295.894 58.0296 292.896 57.3891 290.796C56.4411 287.798 53.2216 283.016 49.5323 284.467C46.808 285.535 47.2521 288.473 48.405 290.591C49.8653 293.272 52.3932 294.297 55.015 295.544C56.409 296.096 57.7379 296.801 58.9775 297.645C57.9679 299.949 57.126 302.324 56.4582 304.75C55.9202 303.734 54.2293 300.574 52.9141 298.49C51.2061 295.843 46.9361 292.042 43.6995 294.382C41.3424 296.09 42.5124 298.84 44.1777 300.599C46.27 302.811 48.9772 303.161 51.8637 303.691C52.5469 303.819 55.5871 304.195 56.4582 304.861C55.6953 307.677 55.2597 310.571 55.1601 313.486H55.0491L55.1601 313.546C55.1601 313.614 55.1601 313.683 55.1601 313.751C54.5965 313.051 52.1541 310.053 50.3607 308.166C48.1915 305.894 43.2041 302.999 40.5226 305.92C38.5413 308.072 40.2237 310.523 42.2306 311.898C44.7157 313.666 47.44 313.478 50.335 313.452C51.0695 313.452 54.3574 313.204 55.1943 313.768C55.1068 317.744 55.684 321.707 56.9023 325.494L57.2695 325.374C56.0505 321.612 55.4731 317.671 55.5615 313.717C56.7315 314.306 59.7376 315.792 61.9067 316.68C64.8189 317.876 70.5492 318.465 71.7961 314.708C72.6671 311.958 70.1308 310.412 67.7652 309.942Z" fill="white"/>
<path d="M108.663 331.523C106.673 331.13 105.085 331.984 103.334 332.787C102.443 333.273 101.497 333.651 100.516 333.914C100.583 332.006 100.87 330.112 101.37 328.269C102.028 328.602 104.18 329.678 105.708 330.302C107.63 331.087 111.439 331.489 112.267 328.995C112.882 327.15 111.2 326.126 109.628 325.81C107.639 325.417 106.05 326.271 104.299 327.073C103.881 327.261 102.13 328.209 101.387 328.201C101.818 326.638 102.355 325.106 102.993 323.615C102.998 323.643 102.998 323.672 102.993 323.7V323.606C103.078 323.606 105.999 324.238 107.929 324.46C109.996 324.716 113.77 324.102 113.907 321.48C114.018 319.541 112.122 318.986 110.491 319.097C108.475 319.242 107.16 320.481 105.683 321.71C105.29 322.043 103.539 323.709 102.95 323.589C103.497 322.308 104.06 321.138 104.573 320.079C105.085 319.02 105.529 318.106 105.862 317.287C106.767 317.466 108.86 317.876 110.354 318.064C112.421 318.32 116.196 317.705 116.332 315.075C116.443 313.136 114.547 312.59 112.916 312.701C110.901 312.837 109.586 314.084 108.108 315.314C107.429 315.947 106.694 316.519 105.913 317.022C105.913 316.919 105.99 316.817 106.024 316.723C106.597 315.049 107.051 313.337 107.382 311.599C108.305 311.556 110.44 311.437 111.934 311.249C114.001 310.984 117.502 309.455 116.998 306.876C116.631 304.972 114.658 304.904 113.138 305.407C111.217 306.039 110.252 307.568 109.116 309.122C108.612 309.903 108.041 310.637 107.408 311.317C107.732 309.609 107.895 308.277 107.955 307.671C108.518 306.893 109.722 305.22 110.517 303.973C111.61 302.196 112.626 298.507 110.303 297.286C108.595 296.372 107.297 297.867 106.733 299.361C106.016 301.257 106.597 302.974 107.101 304.827C107.383 305.663 107.6 306.519 107.75 307.389C107.75 307.525 107.707 307.747 107.673 308.046C107.604 308.661 107.476 309.601 107.271 310.719C107.194 309.66 107.049 307.944 106.87 306.68C106.562 304.622 104.974 301.146 102.404 301.701C100.508 302.111 100.473 304.075 101.003 305.587C101.678 307.5 103.223 308.439 104.803 309.541C105.654 310.045 106.445 310.643 107.16 311.326C107.16 311.385 107.16 311.445 107.16 311.505C107.099 311.544 107.028 311.568 106.955 311.573H107.143C106.815 313.277 106.367 314.955 105.802 316.595C105.76 316.723 105.708 316.86 105.657 316.996C105.427 316.262 104.718 314.007 104.112 312.487C103.343 310.557 100.977 307.551 98.6117 308.687C96.9037 309.541 97.288 311.445 98.1591 312.795C99.2522 314.503 100.977 315.049 102.771 315.749C103.206 315.912 105.136 316.535 105.623 317.073V317.116C105.555 317.128 105.486 317.128 105.418 317.116L105.606 317.159C105.281 317.961 104.837 318.867 104.342 319.891C103.847 320.916 103.351 321.924 102.848 323.085C102.626 322.146 102.139 320.156 101.703 318.764C101.071 316.774 98.9363 313.64 96.4938 314.562C94.6833 315.271 94.9737 317.227 95.7423 318.627C96.7073 320.404 98.3897 321.087 100.123 321.915C101.052 322.274 101.935 322.741 102.754 323.307C102.075 324.834 101.504 326.406 101.046 328.013C100.695 327.347 99.5682 325.254 98.6971 323.871C97.5784 322.112 94.709 319.601 92.5825 321.147C91.0197 322.291 91.7968 324.102 92.8985 325.263C94.2905 326.732 96.0839 326.971 97.9798 327.321C98.4324 327.407 100.448 327.654 101.029 328.09C100.524 329.958 100.238 331.878 100.175 333.812C100.175 333.854 100.175 333.905 100.175 333.948C99.7988 333.487 98.1847 331.497 96.9891 330.242C95.5544 328.739 92.2494 326.826 90.4731 328.756C89.158 330.182 90.2682 331.813 91.5748 332.735C93.223 333.914 95.0335 333.786 96.955 333.769C97.4418 333.769 99.6195 333.607 100.175 333.982C100.12 336.618 100.503 339.244 101.31 341.754L101.558 341.677C100.752 339.179 100.373 336.563 100.439 333.94C101.216 334.332 103.206 335.323 104.65 335.912C106.571 336.698 110.38 337.099 111.208 334.606C111.917 332.864 110.235 331.839 108.663 331.523Z" fill="white"/>
<path d="M102.455 331.019C100.747 332.044 100.089 333.743 99.3205 335.511C98.9765 336.455 98.5176 337.353 97.9541 338.184C96.7301 336.721 95.6784 335.122 94.8199 333.419C95.5373 333.222 97.8516 332.565 99.4144 332.035C101.379 331.343 104.47 329.106 103.428 326.689C102.66 324.913 100.721 325.263 99.3461 326.083C97.6381 327.108 96.9805 328.807 96.2119 330.575C95.8725 331.565 95.3952 332.502 94.7943 333.359C94.0749 331.906 93.4557 330.405 92.9411 328.867H93.018L92.9411 328.816C93.018 328.773 95.6056 327.278 97.2111 326.168C98.8166 325.058 101.319 322.009 99.6792 319.96C98.475 318.44 96.6987 319.294 95.58 320.438C94.1623 321.89 94.0086 323.692 93.7353 325.562C93.6585 326.066 93.4621 328.474 92.9497 328.781C92.497 327.458 92.1469 326.219 91.8224 325.084C91.4979 323.948 91.2246 322.974 90.9171 322.137C91.7199 321.668 93.5475 320.583 94.7858 319.721C96.4938 318.542 98.902 315.562 97.2624 313.512C96.0497 311.992 94.2734 312.846 93.1546 313.99C91.7455 315.442 91.5918 317.244 91.31 319.114C91.2292 320.041 91.0662 320.958 90.8232 321.856C90.8232 321.753 90.7463 321.659 90.7122 321.565C90.0232 319.937 89.2214 318.359 88.3124 316.843C88.97 316.194 90.4816 314.682 91.4722 313.546C92.8386 311.975 94.4271 308.499 92.3262 306.911C90.7805 305.741 89.2689 307.004 88.4662 308.388C87.4584 310.147 87.7488 311.932 87.9538 313.845C88.0961 314.755 88.1646 315.674 88.1587 316.595C87.3047 315.117 86.4934 314.033 86.1347 313.503C86.0408 312.555 85.8188 310.506 85.5626 309.063C85.1953 307.013 83.4959 303.588 80.9424 304.22C79.0551 304.69 79.0892 306.654 79.67 308.149C80.3959 310.045 81.9758 310.933 83.5898 311.975C84.3633 312.423 85.1026 312.929 85.8017 313.486L86.186 314.024C86.5447 314.537 87.04 315.314 87.6719 316.287C86.9119 315.553 85.6565 314.366 84.6744 313.546C83.0774 312.214 79.5504 310.685 78.0303 312.812C76.8859 314.383 78.1755 315.869 79.5846 316.638C81.3523 317.62 83.1287 317.287 85.0416 317.048C86.0121 316.861 87.0003 316.784 87.9879 316.817C88.0223 316.866 88.0537 316.918 88.0819 316.971C88.0621 317.04 88.0271 317.104 87.9794 317.159L88.116 317.03C89.0011 318.519 89.7857 320.066 90.4645 321.659L90.6182 322.06C89.9607 321.668 87.9281 320.455 86.4593 319.729C84.5975 318.798 80.8314 318.132 79.8237 320.583C79.0807 322.376 80.6777 323.521 82.2234 323.948C84.1791 324.486 85.8273 323.751 87.6292 323.094C88.0648 322.932 89.9265 322.103 90.6439 322.18C90.6091 322.243 90.5592 322.296 90.4987 322.334L90.6695 322.24C90.9598 323.051 91.2417 324.025 91.5235 325.118C91.8053 326.211 92.1469 327.296 92.5397 328.534C91.7455 327.987 90.0631 326.826 88.7992 326.083C87.0058 325.015 83.308 324.076 82.1209 326.424C81.2669 328.132 82.7614 329.413 84.273 329.951C86.1774 330.635 87.8769 330.02 89.7301 329.482C90.662 329.134 91.6304 328.894 92.6166 328.764C93.1361 330.351 93.7697 331.898 94.5125 333.393C93.7951 333.128 91.5662 332.317 89.9948 331.864C87.9879 331.301 84.162 331.335 83.624 333.905C83.2226 335.81 85.0075 336.638 86.6044 336.775C88.6199 336.937 90.1058 335.921 91.7284 334.913C92.1298 334.674 93.7951 333.521 94.521 333.461C95.3894 335.191 96.4524 336.815 97.6894 338.304H97.621H97.6979L97.7918 338.406C97.194 338.312 94.6662 337.911 92.9411 337.774C90.8659 337.603 87.1254 338.38 87.0912 341.011C87.0912 342.949 88.9786 343.419 90.567 343.24C92.5824 343.018 93.8378 341.72 95.264 340.421C95.6227 340.097 97.1428 338.526 97.826 338.432C99.5384 340.435 101.573 342.138 103.847 343.47L103.983 343.248C101.722 341.923 99.7008 340.225 98.0053 338.227C98.8593 338.005 100.986 337.415 102.455 336.894C104.419 336.194 107.51 333.957 106.468 331.54C105.768 329.849 103.83 330.199 102.455 331.019Z" fill="white"/>
<path d="M80.9167 234.338C80.9177 230.617 79.4803 227.04 76.905 224.355C74.3298 221.67 70.8162 220.085 67.099 219.931V219.777H74.58C74.3035 217.83 73.3336 216.048 71.8486 214.759C70.3636 213.47 68.4633 212.761 66.4969 212.761C64.5305 212.761 62.6302 213.47 61.1452 214.759C59.6602 216.048 58.6903 217.83 58.4138 219.777H65.9034V219.931C62.8394 220.055 59.895 221.153 57.498 223.066C55.1009 224.978 53.3762 227.605 52.5743 230.565C51.7725 233.525 51.9353 236.663 53.0392 239.524C54.1431 242.385 56.1306 244.819 58.7127 246.473L56.8083 252.118C56.7667 252.241 56.7499 252.372 56.7587 252.501C56.7675 252.631 56.8019 252.758 56.8598 252.875C56.9177 252.991 56.998 253.095 57.0961 253.181C57.1943 253.266 57.3083 253.332 57.4317 253.373C57.5336 253.407 57.6403 253.424 57.7477 253.425C57.9476 253.421 58.1421 253.359 58.3063 253.245C58.4705 253.131 58.5971 252.97 58.67 252.784L60.4548 247.472C62.3051 248.325 64.3152 248.776 66.3526 248.796C68.39 248.815 70.4083 248.401 72.2742 247.583L73.9822 252.784C74.0149 252.917 74.075 253.042 74.1585 253.151C74.2421 253.26 74.3473 253.35 74.4676 253.416C74.5878 253.482 74.7204 253.522 74.8571 253.534C74.9937 253.546 75.1314 253.53 75.2613 253.486C75.3913 253.442 75.5107 253.372 75.612 253.279C75.7134 253.187 75.7944 253.074 75.8499 252.949C75.9055 252.824 75.9344 252.688 75.9349 252.551C75.9353 252.414 75.9072 252.278 75.8525 252.152L74.042 246.618C76.1418 245.329 77.8763 243.524 79.0798 241.374C80.2834 239.224 80.9158 236.801 80.9167 234.338ZM66.5012 245.815C64.2314 245.814 62.0132 245.139 60.1268 243.877C58.2404 242.615 56.7706 240.821 55.9032 238.724C55.0358 236.627 54.8097 234.319 55.2535 232.093C55.6974 229.867 56.7912 227.823 58.3967 226.219C60.0023 224.614 62.0474 223.522 64.2736 223.08C66.4999 222.638 68.8072 222.865 70.904 223.734C73.0008 224.603 74.7929 226.074 76.0537 227.962C77.3145 229.849 77.9875 232.068 77.9875 234.338C77.9829 237.382 76.7711 240.3 74.6177 242.452C72.4643 244.603 69.5453 245.813 66.5012 245.815Z" fill="#263238"/>
<path d="M66.5011 233.005H66.4499L62.6239 226.951C62.5808 226.872 62.5221 226.803 62.4513 226.747C62.3804 226.692 62.299 226.652 62.2121 226.63C62.1252 226.607 62.0346 226.602 61.9458 226.616C61.8571 226.63 61.7721 226.662 61.6962 226.71C61.6202 226.758 61.5549 226.821 61.5042 226.895C61.4535 226.969 61.4185 227.053 61.4014 227.141C61.3843 227.229 61.3855 227.32 61.4048 227.407C61.4241 227.495 61.4612 227.578 61.5137 227.651L65.3311 233.706C65.2284 233.898 65.1728 234.111 65.1689 234.329C65.1699 234.564 65.2328 234.794 65.3513 234.996C65.4697 235.199 65.6395 235.366 65.8435 235.482V240.529C65.862 240.692 65.9397 240.842 66.0618 240.951C66.1838 241.06 66.3417 241.12 66.5054 241.12C66.669 241.12 66.8269 241.06 66.949 240.951C67.071 240.842 67.1487 240.692 67.1672 240.529V235.482C67.4208 235.335 67.6189 235.109 67.7308 234.838C67.8427 234.567 67.8623 234.267 67.7864 233.984C67.7106 233.701 67.5435 233.451 67.3112 233.273C67.0788 233.094 66.7941 232.997 66.5011 232.997V233.005Z" fill="#263238"/>
<path d="M72.9543 260.97C88.0102 257.561 97.4515 242.592 94.0419 227.536C90.6323 212.48 75.6631 203.039 60.6072 206.448C45.5513 209.858 36.1101 224.827 39.5196 239.883C42.9292 254.939 57.8984 264.38 72.9543 260.97Z" stroke="#92E3A9" stroke-width="2" stroke-linecap="round" stroke-linejoin="round"/>
<path d="M310.13 228.018V219.41C310.072 218.85 309.796 218.335 309.361 217.977C308.926 217.619 308.368 217.447 307.807 217.497H293.11C292.549 217.447 291.991 217.619 291.556 217.977C291.122 218.335 290.845 218.85 290.787 219.41V228.018C290.804 228.394 290.931 228.756 291.153 229.06C291.375 229.364 291.681 229.595 292.034 229.726C291.68 229.855 291.372 230.086 291.15 230.39C290.928 230.694 290.802 231.058 290.787 231.434V236.285C290.818 236.716 290.988 237.126 291.274 237.452C291.559 237.777 291.943 238 292.367 238.087C291.461 239.15 290.909 240.47 290.787 241.861V253.237C290.848 253.795 291.125 254.308 291.559 254.664C291.994 255.02 292.55 255.191 293.11 255.141H307.807C308.367 255.191 308.924 255.02 309.358 254.664C309.793 254.308 310.07 253.795 310.13 253.237V241.802C310.008 240.41 309.456 239.091 308.55 238.027C308.974 237.94 309.358 237.717 309.644 237.392C309.929 237.066 310.1 236.657 310.13 236.225V231.374C310.116 230.998 309.989 230.634 309.767 230.33C309.545 230.026 309.237 229.795 308.883 229.666C309.227 229.54 309.527 229.317 309.749 229.025C309.97 228.733 310.102 228.383 310.13 228.018Z" fill="#263238"/>
<path d="M299.003 212.347H301.906C302.077 212.347 302.246 212.381 302.403 212.446C302.561 212.511 302.704 212.607 302.824 212.727C302.945 212.848 303.04 212.991 303.106 213.148C303.171 213.306 303.204 213.475 303.204 213.645V216.429H297.705V213.645C297.705 213.475 297.738 213.306 297.803 213.148C297.869 212.991 297.964 212.848 298.085 212.727C298.205 212.607 298.348 212.511 298.506 212.446C298.663 212.381 298.832 212.347 299.003 212.347Z" fill="#263238"/>
<path d="M302.598 215.234H298.328V219.316H302.598V215.234Z" fill="#263238"/>
<path d="M291.906 228.812C291.938 229.134 292.056 229.442 292.249 229.702C292.441 229.962 292.701 230.165 292.999 230.29C292.684 230.419 292.413 230.635 292.218 230.914C292.023 231.192 291.911 231.521 291.897 231.861V236.404C291.912 236.802 292.056 237.183 292.307 237.492C292.558 237.8 292.903 238.018 293.289 238.112C292.482 239.125 291.997 240.357 291.897 241.648V252.289C291.937 252.797 292.175 253.269 292.56 253.604C292.945 253.938 293.447 254.107 293.956 254.074H306.962C307.471 254.107 307.972 253.938 308.357 253.604C308.743 253.269 308.981 252.797 309.02 252.289V241.622C308.92 240.331 308.435 239.099 307.628 238.087C308.014 237.992 308.359 237.774 308.61 237.466C308.862 237.158 309.006 236.776 309.02 236.379V231.861C309.006 231.521 308.895 231.192 308.7 230.914C308.505 230.635 308.233 230.419 307.918 230.29C308.217 230.165 308.476 229.962 308.669 229.702C308.861 229.442 308.98 229.134 309.012 228.812C309.012 228.812 309.012 228.744 309.012 228.71V223.902C306.976 224.66 304.857 225.176 302.701 225.439C298.67 225.857 297.534 224.457 293.981 224.457C293.252 224.465 292.535 224.647 291.889 224.986V228.71C291.889 228.71 291.889 228.778 291.889 228.812H291.906Z" fill="white"/>
<path d="M304.827 237.105C304.854 237.717 304.756 238.329 304.54 238.903C304.324 239.477 303.994 240.001 303.569 240.444C303.145 240.887 302.636 241.239 302.072 241.48C301.508 241.721 300.901 241.845 300.288 241.845C299.675 241.845 299.068 241.721 298.504 241.48C297.94 241.239 297.431 240.887 297.006 240.444C296.582 240.001 296.252 239.477 296.036 238.903C295.82 238.329 295.722 237.717 295.749 237.105C295.749 234.594 300.284 229.419 300.284 229.419C300.284 229.419 304.827 234.594 304.827 237.105Z" fill="#263238"/>
<path d="M320.224 253.48C331.14 242.565 331.14 224.867 320.224 213.951C309.309 203.035 291.611 203.035 280.695 213.951C269.779 224.867 269.779 242.565 280.695 253.48C291.611 264.396 309.309 264.396 320.224 253.48Z" stroke="#92E3A9" stroke-width="2" stroke-linecap="round" stroke-linejoin="round"/>
<path d="M86.4507 182.286C92.535 182.286 97.4673 176.635 97.4673 169.664C97.4673 162.693 92.535 157.042 86.4507 157.042C80.3664 157.042 75.4341 162.693 75.4341 169.664C75.4341 176.635 80.3664 182.286 86.4507 182.286Z" fill="#263238"/>
<path d="M86.4507 182.688C80.1482 182.688 75.0327 176.846 75.0327 169.664C75.0327 162.482 80.1567 156.641 86.4507 156.641C92.7447 156.641 97.8687 162.482 97.8687 169.664C97.8687 176.846 92.7447 182.688 86.4507 182.688ZM86.4507 157.443C80.5923 157.443 75.8269 162.926 75.8269 169.664C75.8269 176.402 80.5923 181.902 86.4507 181.902C92.3091 181.902 97.1001 176.402 97.1001 169.664C97.1001 162.926 92.3006 157.443 86.4507 157.443Z" fill="white"/>
<path d="M82.8467 182.286C88.931 182.286 93.8633 176.635 93.8633 169.664C93.8633 162.693 88.931 157.042 82.8467 157.042C76.7624 157.042 71.8301 162.693 71.8301 169.664C71.8301 176.635 76.7624 182.286 82.8467 182.286Z" fill="#263238"/>
<path d="M82.8467 182.688C76.5442 182.688 71.4202 176.846 71.4202 169.664C71.4202 162.482 76.5442 156.641 82.8467 156.641C89.1492 156.641 94.2647 162.482 94.2647 169.664C94.2647 176.846 89.1407 182.688 82.8467 182.688ZM82.8467 157.443C76.9882 157.443 72.2229 162.926 72.2229 169.664C72.2229 176.402 76.9882 181.902 82.8467 181.902C88.7051 181.902 93.4619 176.419 93.4619 169.681C93.4619 162.943 88.6966 157.443 82.8467 157.443Z" fill="white"/>
<path d="M84.0424 171.065H61.4028V167.461H84.0424C84.2793 167.46 84.5142 167.506 84.7333 167.596C84.9524 167.686 85.1515 167.819 85.3191 167.986C85.4866 168.154 85.6193 168.353 85.7094 168.572C85.7996 168.791 85.8455 169.026 85.8443 169.263C85.8443 169.499 85.7977 169.734 85.7072 169.952C85.6166 170.171 85.4839 170.37 85.3165 170.537C85.1492 170.704 84.9506 170.837 84.7319 170.928C84.5133 171.018 84.279 171.065 84.0424 171.065Z" fill="#263238"/>
<path d="M84.0424 171.466H60.9844V167.059H84.0424C84.6267 167.059 85.1872 167.292 85.6004 167.705C86.0136 168.118 86.2457 168.678 86.2457 169.263C86.2457 169.847 86.0136 170.408 85.6004 170.821C85.1872 171.234 84.6267 171.466 84.0424 171.466ZM61.8384 170.663H84.0424C84.4138 170.663 84.7701 170.516 85.0327 170.253C85.2954 169.99 85.4429 169.634 85.4429 169.263C85.4429 168.891 85.2954 168.535 85.0327 168.272C84.7701 168.01 84.4138 167.862 84.0424 167.862H61.8384V170.663Z" fill="white"/>
<path d="M66.8171 182.286C72.9014 182.286 77.8337 176.635 77.8337 169.664C77.8337 162.693 72.9014 157.042 66.8171 157.042C60.7328 157.042 55.8005 162.693 55.8005 169.664C55.8005 176.635 60.7328 182.286 66.8171 182.286Z" fill="#263238"/>
<path d="M66.8171 182.688C60.5146 182.688 55.3906 176.846 55.3906 169.664C55.3906 162.482 60.5146 156.641 66.8171 156.641C73.1197 156.641 78.2351 162.482 78.2351 169.664C78.2351 176.846 73.1111 182.688 66.8171 182.688ZM66.8171 157.443C60.9587 157.443 56.1934 162.926 56.1934 169.664C56.1934 176.402 60.9587 181.902 66.8171 181.902C72.6756 181.902 77.458 176.402 77.458 169.664C77.458 162.926 72.667 157.443 66.8171 157.443Z" fill="white"/>
<path d="M63.2047 182.286C69.289 182.286 74.2213 176.635 74.2213 169.664C74.2213 162.693 69.289 157.042 63.2047 157.042C57.1204 157.042 52.1881 162.693 52.1881 169.664C52.1881 176.635 57.1204 182.286 63.2047 182.286Z" fill="#263238"/>
<path d="M63.2047 182.688C56.9107 182.688 51.7867 176.846 51.7867 169.664C51.7867 162.482 56.9107 156.641 63.2047 156.641C69.4987 156.641 74.6312 162.482 74.6312 169.664C74.6312 176.846 69.5072 182.688 63.2047 182.688ZM63.2047 157.443C57.3548 157.443 52.5895 162.926 52.5895 169.664C52.5895 176.402 57.3548 181.902 63.2047 181.902C69.0546 181.902 73.8285 176.419 73.8285 169.681C73.8285 162.943 69.0632 157.443 63.2047 157.443Z" fill="white"/>
<path d="M67.21 169.664C67.21 172.226 65.408 174.267 63.1876 174.267C60.9672 174.267 59.1653 172.209 59.1653 169.664C59.1653 167.119 60.9672 165.053 63.1876 165.053C65.408 165.053 67.21 167.119 67.21 169.664Z" fill="#263238"/>
<path d="M63.2047 174.669C60.7708 174.669 58.781 172.423 58.781 169.664C58.781 166.906 60.7708 164.651 63.2047 164.651C65.6386 164.651 67.6284 166.897 67.6284 169.664C67.6284 172.431 65.6472 174.669 63.2047 174.669ZM63.2047 165.454C61.2064 165.454 59.5838 167.341 59.5838 169.664C59.5838 171.987 61.2064 173.866 63.2047 173.866C65.2031 173.866 66.8257 171.979 66.8257 169.664C66.8257 167.35 65.2031 165.454 63.2047 165.454Z" fill="white"/>
<path d="M65.6301 169.664C65.6301 172.226 63.8282 174.267 61.6078 174.267C59.3874 174.267 57.5854 172.209 57.5854 169.664C57.5854 167.119 59.3788 165.053 61.6078 165.053C63.8367 165.053 65.6301 167.119 65.6301 169.664Z" fill="#263238"/>
<path d="M61.6078 174.669C59.1654 174.669 57.1841 172.423 57.1841 169.664C57.1841 166.906 59.1654 164.651 61.6078 164.651C64.0502 164.651 66.0315 166.897 66.0315 169.664C66.0315 172.431 64.0417 174.669 61.6078 174.669ZM61.6078 165.454C59.6094 165.454 57.9783 167.341 57.9783 169.664C57.9783 171.987 59.6094 173.866 61.6078 173.866C63.6062 173.866 65.2288 171.979 65.2288 169.664C65.2288 167.35 63.5976 165.454 61.6078 165.454Z" fill="white"/>
<path d="M101.041 180.112C107.18 165.948 100.673 149.489 86.5088 143.351C72.3445 137.213 55.8861 143.719 49.7478 157.883C43.6096 172.048 50.116 188.506 64.2803 194.644C78.4446 200.783 94.903 194.276 101.041 180.112Z" stroke="#92E3A9" stroke-width="2" stroke-linecap="round" stroke-linejoin="round"/>
<path d="M313.777 156.197C313.777 156.197 316.996 152.354 314.494 151.363C311.992 150.372 309.746 158.084 309.746 158.084C309.746 158.084 310.25 153.976 308.568 152.106C306.885 150.236 306.39 154.309 306.971 157.648C307.215 159.128 307.618 160.577 308.175 161.97C307.478 161.233 306.721 160.556 305.912 159.946C300.497 155.795 295.083 165.07 295.083 165.07C295.083 165.07 281.871 176.172 279.668 183.858C277.465 191.544 300.634 179.101 306.996 174.242C311.582 170.749 311.796 167.025 309.558 163.661C311.821 163.857 316.51 164.105 317.833 163.046C319.601 161.628 314.768 160.911 314.768 160.911C314.768 160.911 322.197 158.639 323.145 155.274C324.093 151.91 313.777 156.197 313.777 156.197Z" fill="#263238"/>
<path d="M287.636 178.213C287.572 178.231 287.505 178.235 287.44 178.223C287.375 178.211 287.313 178.184 287.26 178.144C286.788 177.805 286.239 177.588 285.663 177.512C285.607 177.509 285.553 177.495 285.503 177.47C285.453 177.446 285.408 177.411 285.371 177.369C285.335 177.327 285.307 177.278 285.289 177.225C285.272 177.172 285.266 177.115 285.27 177.06C285.273 177.004 285.288 176.95 285.312 176.899C285.337 176.849 285.372 176.805 285.414 176.768C285.456 176.731 285.505 176.704 285.558 176.686C285.611 176.669 285.667 176.662 285.723 176.667C286.461 176.75 287.164 177.024 287.764 177.461C287.853 177.528 287.913 177.627 287.931 177.737C287.948 177.847 287.922 177.959 287.858 178.05C287.805 178.129 287.726 178.186 287.636 178.213Z" fill="white"/>
<path d="M301.419 175.36C301.311 175.393 301.194 175.381 301.093 175.329C300.993 175.276 300.917 175.186 300.881 175.079C300.374 173.248 299.437 171.564 298.149 170.168C298.088 170.085 298.059 169.983 298.068 169.88C298.077 169.778 298.122 169.682 298.196 169.61C298.27 169.539 298.367 169.496 298.47 169.49C298.572 169.484 298.674 169.516 298.755 169.579C300.144 171.064 301.155 172.863 301.701 174.822C301.734 174.931 301.722 175.048 301.67 175.149C301.617 175.249 301.527 175.325 301.419 175.36Z" fill="white"/>
<path d="M296.808 168.87C296.754 168.893 296.696 168.905 296.637 168.905C296.578 168.905 296.52 168.893 296.466 168.87C295.83 168.471 295.122 168.198 294.383 168.067C294.27 168.052 294.168 167.994 294.097 167.905C294.027 167.815 293.995 167.702 294.007 167.589C294.02 167.477 294.076 167.375 294.164 167.304C294.252 167.234 294.365 167.201 294.477 167.213C295.337 167.36 296.161 167.673 296.902 168.136C296.971 168.179 297.026 168.24 297.061 168.314C297.097 168.387 297.11 168.469 297.1 168.55C297.09 168.631 297.057 168.707 297.006 168.77C296.954 168.832 296.885 168.879 296.808 168.904V168.87Z" fill="white"/>
<path d="M306.791 172.833C306.726 172.846 306.66 172.846 306.595 172.833C306.483 172.812 306.385 172.748 306.319 172.656C306.254 172.563 306.227 172.449 306.245 172.337C306.428 171.388 306.325 170.406 305.948 169.516C305.571 168.626 304.937 167.869 304.127 167.341C304.028 167.284 303.957 167.189 303.928 167.079C303.899 166.968 303.915 166.851 303.973 166.752C304.031 166.654 304.125 166.582 304.236 166.553C304.346 166.524 304.464 166.541 304.562 166.598C305.519 167.22 306.271 168.11 306.727 169.156C307.182 170.202 307.32 171.358 307.124 172.482C307.113 172.569 307.075 172.649 307.015 172.712C306.955 172.775 306.877 172.817 306.791 172.833Z" fill="white"/>
<path d="M294.758 178.717C294.649 178.749 294.532 178.738 294.432 178.685C294.331 178.632 294.256 178.543 294.22 178.435C293.986 177.858 293.639 177.334 293.199 176.894C292.759 176.454 292.235 176.107 291.658 175.873C291.554 175.829 291.471 175.747 291.427 175.643C291.382 175.54 291.379 175.423 291.419 175.318C291.438 175.265 291.467 175.217 291.505 175.176C291.543 175.135 291.589 175.101 291.64 175.078C291.691 175.055 291.746 175.043 291.802 175.041C291.858 175.04 291.914 175.05 291.966 175.07C292.672 175.35 293.312 175.773 293.847 176.313C294.382 176.852 294.8 177.496 295.074 178.204C295.098 178.314 295.078 178.428 295.019 178.524C294.96 178.619 294.867 178.688 294.758 178.717Z" fill="white"/>
<path d="M307.449 196.196C322.484 192.698 331.837 177.673 328.338 162.637C324.839 147.602 309.814 138.25 294.778 141.748C279.743 145.247 270.391 160.272 273.89 175.308C277.389 190.343 292.414 199.695 307.449 196.196Z" stroke="#92E3A9" stroke-width="2" stroke-linecap="round" stroke-linejoin="round"/>
<path d="M128.331 114.872C128.847 114.725 129.291 114.394 129.578 113.941C130.577 112.361 130.116 109.389 129.526 107.279C128.266 105.53 126.63 104.085 124.739 103.051C122.847 102.017 120.748 101.419 118.595 101.301C123.753 103.522 127.562 108.689 128.331 114.872Z" fill="#263238"/>
<path d="M113.574 119.645C118.084 120.315 122.683 120.08 127.101 118.954C127.165 118.361 127.2 117.765 127.204 117.169C127.204 116.878 127.204 116.594 127.204 116.315H127.161C123.975 116.315 121.08 114.316 118.023 112.216C116.558 111.169 115.042 110.197 113.48 109.303C111.213 108.032 108.649 107.383 106.05 107.425C104.317 109.856 103.383 112.766 103.377 115.751C104.368 116.75 107.152 118.791 113.574 119.645Z" fill="#263238"/>
<path d="M131.422 110.858C131.546 112.163 131.276 113.475 130.645 114.624C130.398 115.013 130.076 115.35 129.698 115.613C129.319 115.877 128.893 116.063 128.442 116.161C128.442 116.494 128.442 116.827 128.442 117.169C128.442 117.51 128.442 118.083 128.391 118.535C129.76 118.074 131.054 117.415 132.234 116.58C132.234 116.306 132.234 116.042 132.234 115.777C132.251 114.102 131.976 112.438 131.422 110.858Z" fill="#263238"/>
<path d="M127.844 122.071C128.793 121.951 129.753 122.176 130.551 122.703C131.304 121.308 131.823 119.799 132.088 118.236C130.889 118.95 129.611 119.523 128.28 119.944C128.179 120.662 128.033 121.372 127.844 122.071Z" fill="#263238"/>
<path d="M125.811 123.984C125.051 124.351 124.214 124.838 123.309 125.367C121.012 126.708 118.416 128.228 115.512 128.689C114.851 128.79 114.183 128.841 113.514 128.843C112.747 128.841 111.981 128.776 111.225 128.647C114.403 130.287 118.08 130.68 121.533 129.748C123.391 128.189 124.857 126.214 125.811 123.984Z" fill="#263238"/>
<path d="M127.648 123.352L127.408 123.403C126.734 125.305 125.731 127.074 124.445 128.629C126.636 127.504 128.503 125.837 129.868 123.787C129.214 123.355 128.416 123.198 127.648 123.352Z" fill="#263238"/>
<path d="M114.06 108.176C115.664 109.09 117.22 110.085 118.723 111.157C121.704 113.206 124.308 115 127.067 115.025C126.213 108.048 121.191 102.463 114.829 101.609C111.819 102.254 109.091 103.839 107.041 106.135C109.506 106.267 111.908 106.966 114.06 108.176Z" fill="#263238"/>
<path d="M115.316 127.434C117.98 127.015 120.44 125.555 122.66 124.274C123.85 123.517 125.108 122.874 126.418 122.353C126.622 121.691 126.787 121.018 126.913 120.337C124.305 120.986 121.625 121.304 118.937 121.285C117.089 121.28 115.243 121.154 113.412 120.909C108.091 120.201 105.085 118.697 103.462 117.493C103.863 120.822 105.409 123.907 107.835 126.221C110.152 127.362 112.757 127.784 115.316 127.434Z" fill="#263238"/>
<path d="M124.167 143.003C139.203 139.504 148.555 124.479 145.056 109.444C141.557 94.4086 126.532 85.0564 111.497 88.5552C96.4616 92.0541 87.1093 107.079 90.6082 122.114C94.107 137.15 109.132 146.502 124.167 143.003Z" stroke="#92E3A9" stroke-width="2" stroke-linecap="round" stroke-linejoin="round"/>
<path d="M272.341 116.75C272.341 124.248 266.209 132.208 260.333 132.208C258.899 132.208 255.15 132.208 253.817 131.695C246.541 128.886 243.732 121.917 243.732 115.854C243.732 112.711 244.671 109.278 247.148 107.177C250.453 104.402 254.091 106.152 257.925 106.152C261.264 106.152 265.944 104.786 268.489 106.656C271.717 109.03 272.341 113.018 272.341 116.75Z" fill="#263238"/>
<path d="M257.558 107.168C258.131 105.388 258.801 103.64 259.565 101.933C260.106 100.858 260.952 99.9665 261.999 99.3715L263.528 100.012C262.416 100.749 261.425 101.654 260.59 102.694C259.533 104.395 258.636 106.19 257.908 108.057" fill="#263238"/>
<path d="M258.549 104.871C258.563 104.485 258.489 104.101 258.334 103.748C258.179 103.395 257.945 103.081 257.652 102.83C256.065 101.77 254.401 100.831 252.673 100.02C252.673 100.02 252.289 102.19 253.527 103.436C254.765 104.683 258.549 104.871 258.549 104.871Z" fill="#263238"/>
<path d="M268.404 111.712C267.926 112.566 266.465 112.617 265.15 111.857C263.835 111.097 263.152 109.799 263.639 108.962C264.125 108.125 265.577 108.057 266.901 108.817C268.225 109.577 268.891 110.875 268.404 111.712Z" fill="white"/>
<path d="M284.171 125.635C289.615 111.19 282.318 95.0666 267.873 89.6226C253.428 84.1785 237.304 91.4755 231.86 105.921C226.416 120.366 233.713 136.49 248.158 141.934C262.604 147.378 278.727 140.081 284.171 125.635Z" stroke="#92E3A9" stroke-width="2" stroke-linecap="round" stroke-linejoin="round"/>
<mask id="mask0_16_233" style="mask-type:luminance" maskUnits="userSpaceOnUse" x="170" y="69" width="48" height="48">
<path d="M193.841 116.827C207 116.827 217.668 106.16 217.668 93.0006C217.668 79.8415 207 69.174 193.841 69.174C180.682 69.174 170.014 79.8415 170.014 93.0006C170.014 106.16 180.682 116.827 193.841 116.827Z" fill="white"/>
</mask>
<g mask="url(#mask0_16_233)">
<path d="M209.392 91.0962L209.264 91.0279C209.179 91.0279 200.579 86.3821 198.538 85.9722C196.056 85.708 193.558 85.6337 191.065 85.7502H190.126C188.828 85.7502 187.752 86.0149 187.615 86.3565C187.564 86.5102 187.701 86.8518 188.273 87.3727C189.981 88.927 193.294 89.1662 194.883 89.2857C195.256 89.2927 195.628 89.3356 195.993 89.4138C196.868 89.9565 197.645 90.6438 198.29 91.4463L198.82 92.0441L176.693 94.3158C176.419 94.3305 176.162 94.4535 175.978 94.6577C175.795 94.8619 175.7 95.1306 175.715 95.4046C175.73 95.6787 175.853 95.9357 176.057 96.119C176.261 96.3024 176.53 96.3972 176.804 96.3824L193.457 96.1262L174.728 100.319C174.613 100.344 174.504 100.393 174.409 100.462C174.313 100.531 174.233 100.619 174.173 100.721C174.11 100.821 174.068 100.934 174.05 101.052C174.032 101.169 174.039 101.289 174.071 101.404C174.129 101.601 174.251 101.772 174.419 101.89C174.586 102.008 174.789 102.065 174.993 102.053L189.007 100.866L189.161 101.669L176.633 105.332C176.401 105.41 176.207 105.571 176.087 105.785C175.968 105.998 175.933 106.249 175.988 106.487C176.044 106.725 176.186 106.934 176.388 107.072C176.589 107.211 176.835 107.27 177.077 107.237L189.187 105.119L189.4 105.913L182.116 108.569C182.05 108.596 181.991 108.639 181.947 108.694C181.902 108.749 181.872 108.815 181.859 108.885C181.85 108.956 181.86 109.029 181.889 109.095C181.918 109.161 181.963 109.218 182.022 109.261C182.059 109.29 182.101 109.311 182.147 109.323C182.192 109.334 182.24 109.337 182.286 109.329C184.31 109.124 194.481 108.048 196.181 107.672C198.034 107.262 207.701 103.274 207.795 103.232H207.941L227.369 102.813L222.945 88.5257H222.903L209.392 91.0962Z" fill="#263238"/>
<path d="M179.297 103.718L183.362 102.531L183.61 102.164L179.938 102.48L179.297 103.718Z" fill="#263238"/>
<path d="M183.755 102.155L183.661 102.437L185.011 102.044L183.755 102.155Z" fill="#263238"/>
<path d="M178.068 97.2023C177.743 97.6976 177.478 98.0563 177.308 98.3381C177.137 98.6199 177.043 98.7737 176.923 99.0042L185.463 97.0913L178.068 97.2023Z" fill="#263238"/>
<path d="M181.347 99.6106L180.348 101.626L189.024 100.892L189.178 101.694L183.345 103.402L182.363 106.34L186.804 105.563C188.051 104.299 189.204 103.001 189.204 103.001C188.605 103.763 188.063 104.568 187.581 105.409L189.204 105.127L189.417 105.922L187.231 106.716C187.244 106.756 187.264 106.794 187.291 106.827C187.931 107.467 188.999 108.099 189.631 107.467C190.263 106.835 195.37 100.243 196.463 99.602C199.087 98.1139 201.576 96.3994 203.901 94.478C204.61 93.8717 206.096 92.3003 207.941 90.2763C205.379 88.9612 200.118 86.2455 198.547 85.938C196.065 85.6738 193.567 85.5996 191.074 85.716H190.135C188.837 85.716 187.76 85.9807 187.624 86.3223C187.573 86.476 187.709 86.8176 188.281 87.3386C189.989 88.8929 193.303 89.132 194.891 89.2515C195.265 89.2586 195.636 89.3015 196.002 89.3796C196.877 89.9223 197.654 90.6096 198.299 91.4122L198.828 92.01L180.22 93.94C179.639 94.794 179.092 95.648 178.623 96.3397L193.474 96.1092L176.522 99.918C176.259 100.585 176.045 101.27 175.881 101.968L179.349 101.677C180.339 100.627 181.347 99.6106 181.347 99.6106Z" fill="#263238"/>
<path d="M177.308 104.077C177.655 103.548 178.053 103.053 178.495 102.6L175.676 102.839L175.608 103.223C175.608 103.223 176.881 104.922 177.308 104.077Z" fill="#263238"/>
<path d="M181.133 86.6554C182.538 86.364 183.969 86.2209 185.403 86.2284L180.792 93.086L197.112 91.378C196.706 90.9128 196.234 90.5099 195.711 90.1824C195.411 90.1351 195.109 90.1066 194.806 90.097C192.995 89.9604 189.622 89.7127 187.709 87.9706C187.41 87.7058 186.514 86.886 186.855 86.0491C187.231 85.067 189.067 84.9218 190.126 84.9218H191.048C193.613 84.8015 196.182 84.8814 198.734 85.1609C200.442 85.5025 206.045 88.3805 208.513 89.6786C214.371 83.1882 223.236 72.8377 223.236 72.8377L208.974 67.5343C208.333 67.5343 201.749 80.4895 201.749 80.4895C201.749 80.4895 190.28 78.7815 188.794 79.0036C187.308 79.2256 180.715 82.8295 179.229 83.47C177.743 84.1105 176.044 84.7424 176.889 85.5964C177.465 86.0919 178.149 86.4457 178.886 86.6295C179.623 86.8134 180.392 86.8223 181.133 86.6554Z" fill="#263238"/>
<path d="M184.208 107.818L183.61 108.04C183.77 108.019 183.926 107.973 184.071 107.903L184.208 107.818Z" fill="#263238"/>
<path d="M184.806 106.75L182.355 107.177C182.431 107.308 182.519 107.431 182.619 107.544L184.806 106.75Z" fill="#263238"/>
<path d="M182.637 103.599L178.794 104.717L178.58 105.136C178.656 105.747 178.814 106.344 179.05 106.912L180.433 106.665C181.065 105.896 181.928 104.624 182.637 103.599Z" fill="#263238"/>
</g>
<path d="M186.872 78.8157C186.872 78.8157 183.849 72.368 181.603 74.5457C179.212 76.9283 186.872 78.8157 186.872 78.8157Z" fill="#263238"/>
<path d="M196.164 78.8157C196.164 78.8157 199.187 72.368 201.442 74.5457C203.85 76.9283 196.164 78.8157 196.164 78.8157Z" fill="#263238"/>
<path d="M188.35 78.3545C188.24 78.3523 188.136 78.3072 188.059 78.229C187.983 78.1507 187.94 78.0456 187.94 77.936V63.7938C187.942 63.6858 187.986 63.5828 188.062 63.5064C188.139 63.43 188.242 63.3861 188.35 63.3839C188.404 63.3839 188.457 63.3945 188.507 63.4151C188.556 63.4357 188.602 63.4659 188.64 63.5039C188.678 63.542 188.708 63.5872 188.729 63.6369C188.749 63.6867 188.76 63.74 188.76 63.7938V77.936C188.761 77.9906 188.751 78.0448 188.731 78.0955C188.711 78.1463 188.681 78.1925 188.643 78.2314C188.605 78.2704 188.559 78.3014 188.509 78.3225C188.458 78.3436 188.404 78.3545 188.35 78.3545Z" fill="#263238"/>
<path d="M191.356 83.4956C191.247 83.4956 191.143 83.4524 191.066 83.3755C190.989 83.2987 190.946 83.1944 190.946 83.0857V80.0796C190.946 79.9709 190.989 79.8666 191.066 79.7897C191.143 79.7129 191.247 79.6697 191.356 79.6697C191.464 79.6719 191.567 79.7157 191.643 79.7922C191.72 79.8686 191.764 79.9716 191.766 80.0796V83.0857C191.764 83.1937 191.72 83.2967 191.643 83.3731C191.567 83.4495 191.464 83.4934 191.356 83.4956Z" fill="white"/>
<path d="M191.356 80.4981C191.301 80.4981 191.247 80.4872 191.197 80.4661C191.147 80.4449 191.101 80.414 191.063 80.375C191.025 80.336 190.995 80.2898 190.975 80.2391C190.955 80.1884 190.945 80.1341 190.946 80.0796V72.3936C190.945 72.3394 190.955 72.2856 190.975 72.2354C190.995 72.1851 191.025 72.1394 191.064 72.1011C191.102 72.0628 191.148 72.0327 191.198 72.0125C191.248 71.9923 191.302 71.9825 191.356 71.9837C191.41 71.9837 191.463 71.9943 191.513 72.0149C191.563 72.0355 191.608 72.0657 191.646 72.1037C191.684 72.1418 191.714 72.187 191.735 72.2367C191.755 72.2865 191.766 72.3398 191.766 72.3936V80.0796C191.766 80.1891 191.723 80.2943 191.646 80.3725C191.57 80.4507 191.466 80.4958 191.356 80.4981Z" fill="#263238"/>
<path d="M194.994 82.2061C194.885 82.2061 194.781 82.1629 194.704 82.086C194.627 82.0091 194.584 81.9048 194.584 81.7961V69.174C194.584 69.0645 194.627 68.9593 194.704 68.8811C194.78 68.8029 194.884 68.7578 194.994 68.7556C195.048 68.7555 195.102 68.7664 195.153 68.7876C195.203 68.8087 195.249 68.8396 195.287 68.8786C195.325 68.9176 195.355 68.9638 195.375 69.0145C195.395 69.0652 195.405 69.1195 195.404 69.174V81.8132C195.403 81.8659 195.391 81.9179 195.37 81.9662C195.349 82.0145 195.318 82.0581 195.28 82.0946C195.242 82.131 195.197 82.1597 195.148 82.1788C195.099 82.1979 195.047 82.2072 194.994 82.2061Z" fill="#263238"/>
<path d="M194.994 68.32C194.94 68.32 194.887 68.3094 194.837 68.2888C194.787 68.2682 194.742 68.238 194.704 68.1999C194.666 68.1619 194.636 68.1167 194.615 68.067C194.595 68.0172 194.584 67.9639 194.584 67.9101V64.6563C194.584 64.5468 194.627 64.4417 194.704 64.3634C194.78 64.2852 194.884 64.2401 194.994 64.2379C195.048 64.2379 195.102 64.2487 195.153 64.2699C195.203 64.291 195.249 64.322 195.287 64.3609C195.325 64.3999 195.355 64.4461 195.375 64.4968C195.395 64.5476 195.405 64.6018 195.404 64.6563V67.8674C195.411 67.925 195.406 67.9835 195.389 68.0388C195.371 68.0942 195.342 68.1452 195.303 68.1882C195.264 68.2313 195.216 68.2653 195.163 68.2881C195.11 68.3108 195.052 68.3217 194.994 68.32Z" fill="#263238"/>
<path d="M184.498 88.2267C183.663 87.8389 182.759 87.6203 181.838 87.5836C180.918 87.547 179.999 87.693 179.135 88.0132C176.138 89.0807 177.427 91.2243 179.349 90.7973C181.27 90.3703 184.498 88.2267 184.498 88.2267Z" fill="#263238"/>
<path d="M185.566 92.9238C185.457 92.9238 185.353 92.8806 185.276 92.8037C185.199 92.7268 185.156 92.6226 185.156 92.5138V88.6538C185.158 88.5457 185.202 88.4427 185.278 88.3663C185.355 88.2899 185.458 88.246 185.566 88.2438C185.675 88.2438 185.779 88.287 185.856 88.3639C185.933 88.4408 185.976 88.545 185.976 88.6538V92.5138C185.977 92.568 185.967 92.6218 185.947 92.6721C185.927 92.7223 185.897 92.768 185.858 92.8063C185.82 92.8446 185.774 92.8747 185.724 92.8949C185.674 92.9151 185.62 92.9249 185.566 92.9238Z" fill="white"/>
<path d="M212.368 113.07C223.283 102.154 223.283 84.4563 212.368 73.5406C201.452 62.6249 183.754 62.6249 172.838 73.5406C161.923 84.4563 161.923 102.154 172.838 113.07C183.754 123.986 201.452 123.986 212.368 113.07Z" stroke="#92E3A9" stroke-width="2" stroke-linecap="round" stroke-linejoin="round"/>
<path d="M174.814 374.906C216.117 374.906 249.599 369.744 249.599 363.377C249.599 357.01 216.117 351.848 174.814 351.848C133.512 351.848 100.029 357.01 100.029 363.377C100.029 369.744 133.512 374.906 174.814 374.906Z" fill="#263238"/>
<path d="M162.414 237.83C161.133 243.334 160.163 248.905 159.51 254.518C158.281 264.518 160.313 280.138 160.313 280.138C160.313 280.138 145.795 272.691 137.896 273.673C129.996 274.655 98.1845 285.945 93.9914 285.552C93.9914 285.552 90.8572 291.112 93.906 291.035C98.0735 290.932 142.49 291.889 149.672 292.7C157.008 293.554 167.401 295.774 171.022 292.461C173.499 290.215 182.56 262.033 182.696 252.793C182.743 247.597 183.108 242.409 183.789 237.258" fill="white"/>
<path d="M162.414 237.83C161.133 243.334 160.163 248.905 159.51 254.518C158.28 264.518 160.313 280.138 160.313 280.138C160.313 280.138 145.795 272.691 137.896 273.673C129.996 274.655 98.1845 285.945 93.9914 285.552C93.9914 285.552 90.8572 291.112 93.906 291.035C98.0735 290.932 142.49 291.889 149.672 292.7C157.008 293.554 167.401 295.774 171.022 292.461C173.499 290.215 182.56 262.033 182.696 252.793C182.743 247.597 183.108 242.409 183.789 237.258" stroke="#263238" stroke-linecap="round" stroke-linejoin="round"/>
<path d="M159.502 254.492C158.281 264.492 160.356 280.112 160.356 280.112C160.356 280.112 145.838 272.665 137.938 273.647C135.142 274.129 132.379 274.782 129.663 275.603C127.682 279.454 125.914 285.356 128.672 291.709C138.305 292 146.888 292.341 149.715 292.674C157.051 293.528 167.444 295.749 171.065 292.435C173.542 290.189 182.602 262.007 182.739 252.767C182.785 247.571 183.15 242.384 183.832 237.233L162.431 237.771C161.142 243.285 160.164 248.868 159.502 254.492Z" fill="#263238" stroke="#263238" stroke-linecap="round" stroke-linejoin="round"/>
<path d="M173.345 241.981L168.588 244.381C168.588 244.381 167 244.21 170.015 240.042" fill="white"/>
<path d="M173.345 241.981L168.588 244.381C168.588 244.381 167 244.21 170.015 240.042" stroke="#263238" stroke-linecap="round" stroke-linejoin="round"/>
<path d="M189.281 142.738C189.281 142.738 184.498 139.424 176.42 139.057C168.341 138.69 162.858 149.715 163.926 156.7C164.993 163.686 164.66 171.031 155.104 169.929C145.547 168.827 133.796 169.929 131.192 180.177C128.587 190.425 140.005 203.329 152.866 198.555C165.728 193.781 162.627 184.336 168.665 182.38C174.703 180.425 180.792 180.544 181.527 173.2C182.261 165.855 177.487 159.237 180.792 152.618C182.77 148.68 185.685 145.287 189.281 142.738Z" fill="#263238" stroke="#263238" stroke-linecap="round" stroke-linejoin="round"/>
<path d="M184.054 144.241C184.054 144.241 174.028 142.293 170.681 150.646C167.333 158.998 174.865 166.24 172.389 174.558C169.912 182.876 160.433 189.315 152.619 186.514C144.804 183.712 137.238 181.048 136.709 185.463C136.179 189.878 141.995 191.031 143.387 190.194C144.779 189.357 142.832 187.692 142.832 187.692" stroke="white" stroke-linecap="round" stroke-linejoin="round"/>
<path d="M151.953 176.863C150.789 176.558 149.6 176.358 148.4 176.266" stroke="white" stroke-linecap="round" stroke-linejoin="round"/>
<path d="M176.257 143.13C176.257 143.13 166.786 144.838 166.786 154.822C166.786 164.805 171.518 170.979 167.342 177.384C164.447 181.825 160.51 179.844 155.539 178.025" stroke="white" stroke-linecap="round" stroke-linejoin="round"/>
<path d="M194.755 152.644C194.755 152.644 195.088 158.016 193.901 161.184C192.714 164.352 187.41 169.417 187.718 172.115C188.025 174.814 195.763 180.365 198.231 179.434C200.699 178.503 202.757 164.48 202.757 164.48C202.757 164.48 198.419 154.506 194.755 152.644Z" fill="white" stroke="#263238" stroke-linecap="round" stroke-linejoin="round"/>
<path d="M199.085 162.405C200.673 165.377 202.031 167.845 205.566 168.494C210.409 169.348 212.193 163.114 212.843 156.794C213.003 156.864 213.173 156.91 213.346 156.931C213.952 157.021 214.569 156.972 215.152 156.787C215.736 156.602 216.269 156.286 216.711 155.864C217.104 155.462 216.506 154.694 215.721 153.865C213.415 151.423 213.218 149.535 213.244 146.179C213.321 144.677 213.194 143.172 212.868 141.704C212.781 141.385 212.675 141.072 212.552 140.765C209.025 132.139 191.373 131.823 190.416 142.473C190.143 146.239 190.583 150.023 191.715 153.626" fill="white"/>
<mask id="mask1_16_233" style="mask-type:luminance" maskUnits="userSpaceOnUse" x="190" y="134" width="27" height="35">
<path d="M199.085 162.405C200.673 165.377 202.031 167.845 205.566 168.494C210.409 169.348 212.193 163.114 212.843 156.794C213.003 156.864 213.173 156.91 213.346 156.931C213.952 157.021 214.569 156.972 215.152 156.787C215.736 156.602 216.269 156.286 216.711 155.864C217.104 155.462 216.506 154.694 215.721 153.865C213.415 151.423 213.218 149.535 213.244 146.179C213.321 144.677 213.194 143.172 212.868 141.704C212.781 141.385 212.675 141.072 212.552 140.765C209.025 132.139 191.373 131.823 190.416 142.473C190.143 146.239 190.583 150.023 191.715 153.626" fill="white"/>
</mask>
<g mask="url(#mask1_16_233)">
<path d="M213.244 146.205C213.321 144.703 213.194 143.198 212.868 141.73C212.781 141.411 212.675 141.097 212.552 140.79C209.025 132.165 191.373 131.849 190.416 142.498C190.141 146.247 190.579 150.014 191.706 153.6C198.742 151.276 205.965 149.562 213.295 148.476C213.244 147.785 213.244 147.042 213.244 146.205Z" fill="#92E3A9"/>
<path opacity="0.5" d="M213.244 146.205C213.321 144.703 213.194 143.198 212.868 141.73C212.781 141.411 212.675 141.097 212.552 140.79C209.025 132.165 191.373 131.849 190.416 142.498C190.141 146.247 190.579 150.014 191.706 153.6C198.742 151.276 205.965 149.562 213.295 148.476C213.244 147.785 213.244 147.042 213.244 146.205Z" fill="white"/>
</g>
<path d="M199.085 162.405C200.673 165.377 202.031 167.845 205.566 168.494C210.409 169.348 212.193 163.114 212.843 156.794C213.003 156.864 213.173 156.91 213.346 156.931C213.952 157.021 214.569 156.972 215.152 156.787C215.736 156.602 216.269 156.286 216.711 155.864C217.104 155.462 216.506 154.694 215.721 153.865C213.415 151.423 213.218 149.535 213.244 146.179C213.321 144.677 213.194 143.172 212.868 141.704C212.781 141.385 212.675 141.072 212.552 140.765C209.025 132.139 191.373 131.823 190.416 142.473C190.143 146.239 190.583 150.023 191.715 153.626" stroke="#263238" stroke-linecap="round" stroke-linejoin="round"/>
<path d="M210.802 150.116C210.802 150.765 210.622 151.303 210.315 151.32C210.007 151.337 209.734 150.825 209.691 150.176C209.649 149.527 209.871 148.989 210.178 148.972C210.486 148.955 210.767 149.45 210.802 150.116Z" fill="#263238"/>
<path d="M210.682 159.365C210.682 159.365 208.06 159.536 207.531 157.614" stroke="#263238" stroke-linecap="round" stroke-linejoin="round"/>
<path d="M211.536 139.065C206.523 132.182 190.288 137.212 189.4 147.067C188.956 152.046 188.768 158.733 193.551 159.51C195.028 154.873 199.802 154.745 199.648 152.362C199.435 148.827 206.48 148.946 205.541 143.6C204.798 138.963 208.479 141.764 211.536 139.065Z" fill="#263238" stroke="#263238" stroke-linecap="round" stroke-linejoin="round"/>
<path d="M189.571 151.021L214.166 142.729C214.166 142.729 210.955 134.189 206.788 132.003C202.62 129.817 192.714 132.003 189.332 136.341C185.95 140.679 187.974 143.822 189.571 151.021Z" fill="#92E3A9"/>
<mask id="mask2_16_233" style="mask-type:luminance" maskUnits="userSpaceOnUse" x="187" y="131" width="28" height="21">
<path d="M189.571 151.021L214.166 142.729C214.166 142.729 210.955 134.189 206.788 132.003C202.62 129.817 192.714 132.003 189.332 136.341C185.95 140.679 187.974 143.822 189.571 151.021Z" fill="white"/>
</mask>
<g mask="url(#mask2_16_233)">
<path opacity="0.2" d="M193.807 138.801C194.08 134.718 198.342 132.045 199.512 131.388C195.523 132.011 191.313 133.805 189.332 136.341C185.916 140.679 187.974 143.822 189.571 151.021L197.155 148.459C195.746 145.692 193.602 141.764 193.807 138.801Z" fill="black"/>
</g>
<path d="M189.571 151.021L214.166 142.729C214.166 142.729 210.955 134.189 206.788 132.003C202.62 129.817 192.714 132.003 189.332 136.341C185.95 140.679 187.974 143.822 189.571 151.021Z" stroke="#263238" stroke-linecap="round" stroke-linejoin="round"/>
<path d="M205.951 145.692C205.951 145.692 216.541 145.325 221.758 145.863C226.976 146.401 223.74 143.728 214.166 142.729C214.166 142.729 207.778 145.001 205.951 145.692Z" fill="white" stroke="#263238" stroke-linecap="round" stroke-linejoin="round"/>
<path d="M190.442 165.949C190.442 165.949 200.366 173.208 202.501 179.758C205.165 187.948 204.047 194.558 201.493 201.962C198.94 209.367 195.6 209.708 193.602 217.582C191.399 226.276 190.963 243.262 186.685 251.008C178.743 265.398 156.547 252.553 156.171 238.753C155.761 223.833 169.571 214.926 171.168 207.428C172.876 199.298 170.988 188.042 174.746 180.425C178.503 172.807 185.686 165.676 190.442 165.949Z" fill="#263238" stroke="#263238" stroke-linecap="round" stroke-linejoin="round"/>
<path d="M187.521 173.055C184.985 173.753 182.719 175.203 181.023 177.214C176.881 182.15 171.868 201.578 170.851 204.542C169.357 208.931 166.752 224.73 167.803 225.038C168.853 225.345 175.395 225.14 186.71 226.225C198.026 227.309 219.205 221.357 219.205 221.357C219.205 221.357 222.698 223.705 225.738 222.783C226.131 222.663 226.481 222.544 226.805 222.433C227.744 222.104 228.539 221.457 229.051 220.605C229.259 220.283 229.418 219.932 229.521 219.563C229.693 219.01 229.717 218.421 229.589 217.855C229.571 216.623 229.279 215.409 228.735 214.303C228.01 213.064 227.548 213.748 226.541 213.21C225.276 212.655 223.867 212.517 222.518 212.817C221.664 213.167 218.667 217.266 218.667 217.266C218.667 217.266 206.233 218.709 195.31 215.208C185.446 212.057 183.098 212.074 183.098 212.074C183.098 212.074 192.611 190.22 195.908 184.105" fill="#92E3A9"/>
<path d="M187.521 173.055C184.985 173.753 182.719 175.203 181.023 177.214C176.881 182.15 171.868 201.578 170.851 204.542C169.357 208.931 166.752 224.73 167.803 225.038C168.853 225.345 175.395 225.14 186.71 226.225C198.026 227.309 219.205 221.357 219.205 221.357C219.205 221.357 222.698 223.705 225.738 222.783C226.131 222.663 226.481 222.544 226.805 222.433C227.744 222.104 228.539 221.457 229.051 220.605C229.259 220.283 229.418 219.932 229.521 219.563C229.693 219.01 229.717 218.421 229.589 217.855C229.571 216.623 229.279 215.409 228.735 214.303C228.01 213.064 227.548 213.748 226.541 213.21C225.276 212.655 223.867 212.517 222.518 212.817C221.664 213.167 218.667 217.266 218.667 217.266C218.667 217.266 206.233 218.709 195.31 215.208C185.446 212.057 183.098 212.074 183.098 212.074C183.098 212.074 192.611 190.22 195.908 184.105" stroke="#263238" stroke-linecap="round" stroke-linejoin="round"/>
<path d="M225.738 222.843L226.515 222.587C227.109 222.401 227.66 222.099 228.136 221.697C228.611 221.295 229.001 220.802 229.282 220.247C229.389 220.05 229.469 219.841 229.521 219.623C229.693 219.07 229.717 218.481 229.59 217.915C229.571 216.682 229.279 215.469 228.736 214.363C228.01 213.124 227.549 213.807 226.541 213.269C225.276 212.714 223.867 212.577 222.518 212.877C221.664 213.227 218.667 217.326 218.667 217.326C215.8 217.585 212.918 217.659 210.042 217.548L210.153 223.637C215.413 222.484 219.239 221.408 219.239 221.408C219.239 221.408 222.698 223.748 225.738 222.843Z" fill="white" stroke="#263238" stroke-linecap="round" stroke-linejoin="round"/>
<path d="M226.507 213.278C226.507 213.278 227.557 216.182 226.908 217.71C226.259 219.239 224.073 215.533 224.073 215.533" stroke="#263238" stroke-linecap="round" stroke-linejoin="round"/>
<path d="M225.601 220.332L225.166 217.497C225.166 217.497 221.681 221.203 220.153 219.674" stroke="#263238" stroke-linecap="round" stroke-linejoin="round"/>
<path d="M206.515 193.004C206.096 191.074 205.55 189.161 204.96 187.257C204.175 184.754 203.304 182.269 202.501 179.801C202.31 179.239 202.079 178.69 201.809 178.161V176.898C201.809 175.531 203.406 173.029 203.406 173.029C202.219 171.709 200.925 170.489 199.537 169.382C196.583 166.88 191.348 163.473 191.348 163.473L188.888 166.154C184.225 167.205 178.111 173.678 174.746 180.51C170.988 188.128 172.91 199.383 171.168 207.513C170.262 211.783 165.429 216.472 161.492 222.467C170.652 227.698 180.809 230.945 191.305 231.998C192.039 226.617 192.663 221.391 193.602 217.668C194.614 213.791 196.571 210.226 199.298 207.291C203.235 202.996 207.941 199.554 206.515 193.004Z" fill="#92E3A9"/>
<mask id="mask3_16_233" style="mask-type:luminance" maskUnits="userSpaceOnUse" x="161" y="163" width="46" height="69">
<path d="M206.515 193.004C206.096 191.074 205.55 189.161 204.96 187.257C204.175 184.754 203.304 182.269 202.501 179.801C202.31 179.239 202.079 178.69 201.809 178.161V176.898C201.809 175.531 203.406 173.029 203.406 173.029C202.219 171.709 200.925 170.489 199.537 169.382C196.583 166.88 191.348 163.473 191.348 163.473L188.888 166.154C184.225 167.205 178.111 173.678 174.746 180.51C170.988 188.128 172.91 199.383 171.168 207.513C170.262 211.783 165.429 216.472 161.492 222.467C170.652 227.698 180.809 230.945 191.305 231.998C192.039 226.617 192.663 221.391 193.602 217.668C194.614 213.791 196.571 210.226 199.298 207.291C203.235 202.996 207.941 199.554 206.515 193.004Z" fill="white"/>
</mask>
<g mask="url(#mask3_16_233)">
<path opacity="0.2" d="M175.173 226.31C175.173 225.046 184.02 215.259 185.916 212.731C187.812 210.204 178.017 212.099 176.437 212.099C174.857 212.099 180.86 204.832 184.977 197.257C189.093 189.682 188.128 187.778 188.128 187.778L177.376 183.021C177.376 183.021 175.668 183.832 173.174 185.045C171.569 192.159 172.577 200.852 171.159 207.471C170.254 211.741 165.42 216.429 161.483 222.424C165.741 224.883 170.247 226.887 174.925 228.402C175.055 227.711 175.137 227.012 175.173 226.31Z" fill="black"/>
</g>
<path d="M206.515 193.004C206.096 191.074 205.55 189.161 204.96 187.257C204.175 184.754 203.304 182.269 202.501 179.801C202.31 179.239 202.079 178.69 201.809 178.161V176.898C201.809 175.531 203.406 173.029 203.406 173.029C202.219 171.709 200.925 170.489 199.537 169.382C196.583 166.88 191.348 163.473 191.348 163.473L188.888 166.154C184.225 167.205 178.111 173.678 174.746 180.51C170.988 188.128 172.91 199.383 171.168 207.513C170.262 211.783 165.429 216.472 161.492 222.467C170.652 227.698 180.809 230.945 191.305 231.998C192.039 226.617 192.663 221.391 193.602 217.668C194.614 213.791 196.571 210.226 199.298 207.291C203.235 202.996 207.941 199.554 206.515 193.004Z" stroke="#263238" stroke-linecap="round" stroke-linejoin="round"/>
<path d="M191.279 172.132C188.809 171.253 186.132 171.134 183.593 171.791C177.367 173.439 162.081 186.445 159.536 188.298C155.787 191.023 144.565 202.441 145.214 203.337C145.863 204.234 151.363 207.787 159.997 215.191C168.631 222.595 186.471 229.299 186.471 229.299C186.471 229.299 190.843 233.851 193.858 234.841C194.763 235.14 195.498 235.337 196.104 235.473C196.275 235.533 196.454 235.593 196.625 235.636C197.219 235.852 197.861 235.902 198.481 235.78C199.101 235.658 199.676 235.369 200.144 234.944C200.599 234.591 200.955 234.126 201.177 233.595C201.865 232.568 202.317 231.401 202.501 230.179C202.62 228.752 200.502 228.471 199.99 227.471C199.278 226.285 198.203 225.359 196.924 224.833C196.07 224.645 191.219 226.25 191.219 226.25C191.219 226.25 180.288 220.272 173.345 211.075C167.094 202.825 165.164 201.484 165.164 201.484C165.164 201.484 185.523 189.093 191.715 185.967" fill="#92E3A9"/>
<mask id="mask4_16_233" style="mask-type:luminance" maskUnits="userSpaceOnUse" x="145" y="171" width="58" height="65">
<path d="M191.279 172.132C188.809 171.253 186.132 171.134 183.593 171.791C177.367 173.439 162.081 186.445 159.536 188.298C155.787 191.023 144.565 202.441 145.214 203.337C145.863 204.234 151.363 207.787 159.997 215.191C168.631 222.595 186.471 229.299 186.471 229.299C186.471 229.299 190.843 233.851 193.858 234.841C194.763 235.14 195.498 235.337 196.104 235.473C196.275 235.533 196.454 235.593 196.625 235.636C197.219 235.852 197.861 235.902 198.481 235.78C199.101 235.658 199.676 235.369 200.144 234.944C200.599 234.591 200.955 234.126 201.177 233.595C201.865 232.568 202.317 231.401 202.501 230.179C202.62 228.752 200.502 228.471 199.99 227.471C199.278 226.285 198.203 225.359 196.924 224.833C196.07 224.645 191.219 226.25 191.219 226.25C191.219 226.25 180.288 220.272 173.345 211.075C167.094 202.825 165.164 201.484 165.164 201.484C165.164 201.484 185.523 189.093 191.715 185.967" fill="white"/>
</mask>
<g mask="url(#mask4_16_233)">
<path opacity="0.2" d="M199.179 234.508C192.227 232.613 184.02 226.293 178.016 222.501C172.013 218.709 155.59 204.815 153.378 204.183C151.167 203.551 154.01 202.603 157.486 200.075C160.962 197.547 153.063 200.075 151.167 200.075C149.271 200.075 178.648 181.125 182.765 176.394C185.865 172.815 181.757 173.2 179.562 173.601C172.363 177.675 161.628 186.77 159.519 188.298C155.77 191.023 144.548 202.441 145.197 203.337C145.846 204.234 151.346 207.787 159.98 215.191C168.614 222.595 186.454 229.299 186.454 229.299C186.454 229.299 190.826 233.851 193.841 234.841C194.746 235.14 195.481 235.337 196.087 235.473C196.258 235.533 196.437 235.593 196.608 235.636C197.202 235.852 197.843 235.902 198.464 235.78C199.084 235.658 199.659 235.369 200.126 234.944L200.263 234.824L199.179 234.508Z" fill="black"/>
</g>
<path d="M191.279 172.132C188.809 171.253 186.132 171.134 183.593 171.791C177.367 173.439 162.081 186.445 159.536 188.298C155.787 191.023 144.565 202.441 145.214 203.337C145.863 204.234 151.363 207.787 159.997 215.191C168.631 222.595 186.471 229.299 186.471 229.299C186.471 229.299 190.843 233.851 193.858 234.841C194.763 235.14 195.498 235.337 196.104 235.473C196.275 235.533 196.454 235.593 196.625 235.636C197.219 235.852 197.861 235.902 198.481 235.78C199.101 235.658 199.676 235.369 200.144 234.944C200.599 234.591 200.955 234.126 201.177 233.595C201.865 232.568 202.317 231.401 202.501 230.179C202.62 228.752 200.502 228.471 199.99 227.471C199.278 226.285 198.203 225.359 196.924 224.833C196.07 224.645 191.219 226.25 191.219 226.25C191.219 226.25 180.288 220.272 173.345 211.075C167.094 202.825 165.164 201.484 165.164 201.484C165.164 201.484 185.523 189.093 191.715 185.967" stroke="#263238" stroke-linecap="round" stroke-linejoin="round"/>
<path d="M199.999 227.471C199.287 226.285 198.212 225.359 196.933 224.833C196.079 224.645 191.228 226.25 191.228 226.25C189.465 225.248 187.755 224.156 186.104 222.979L182.167 227.565C184.729 228.667 186.437 229.273 186.437 229.273C186.437 229.273 190.809 233.825 193.824 234.816C194.729 235.115 195.464 235.311 196.07 235.448C196.241 235.508 196.42 235.567 196.591 235.61C197.185 235.826 197.827 235.876 198.447 235.754C199.067 235.632 199.642 235.343 200.11 234.918C200.565 234.565 200.921 234.1 201.143 233.569C201.831 232.542 202.283 231.375 202.467 230.153C202.629 228.752 200.511 228.488 199.999 227.471Z" fill="white" stroke="#263238" stroke-linecap="round" stroke-linejoin="round"/>
<path d="M198.555 154.164C198.555 154.164 195.891 149.313 193.79 151.021C191.689 152.729 194.191 155.966 196.984 156.897C199.777 157.828 198.624 156.043 198.624 156.043" fill="white"/>
<path d="M198.555 154.164C198.555 154.164 195.891 149.313 193.79 151.021C191.689 152.729 194.191 155.966 196.984 156.897C199.777 157.828 198.624 156.043 198.624 156.043" stroke="#263238" stroke-linecap="round" stroke-linejoin="round"/>
<path d="M168.119 251.119C172.012 255.215 176.132 259.089 180.459 262.725C188.145 269.241 202.142 275.193 202.142 275.193C202.142 275.193 194.516 292.982 194.798 300.898C195.079 308.815 203.483 341.549 202.714 345.682C202.714 345.682 207.343 349.192 208.171 346.263C209.521 341.532 212.048 303.076 213.056 295.749C214.047 288.567 216.677 275.637 216.669 272.298C216.669 265.893 199.452 247.592 191.809 242.408C187.495 239.511 183.363 236.354 179.434 232.954" fill="white"/>
<path d="M168.119 251.119C172.012 255.215 176.132 259.089 180.459 262.725C188.145 269.241 202.142 275.193 202.142 275.193C202.142 275.193 194.516 292.982 194.798 300.898C195.079 308.815 203.483 341.549 202.714 345.682C202.714 345.682 207.343 349.192 208.171 346.263C209.521 341.532 212.048 303.076 213.056 295.749C214.047 288.567 216.677 275.637 216.669 272.298C216.669 265.893 199.452 247.592 191.809 242.408C187.495 239.511 183.363 236.354 179.434 232.954" stroke="#263238" stroke-linecap="round" stroke-linejoin="round"/>
<path d="M191.809 242.399C187.495 239.503 183.363 236.346 179.434 232.946L168.119 251.119C172.012 255.215 176.132 259.089 180.459 262.725C188.145 269.241 202.142 275.193 202.142 275.193C202.142 275.193 194.516 292.982 194.798 300.898C195.117 304.459 195.662 307.996 196.429 311.488C201.406 312.521 206.524 312.701 211.562 312.017C212.168 304.639 212.706 298.302 213.056 295.749C214.047 288.567 216.677 275.637 216.669 272.298C216.66 265.893 199.452 247.592 191.809 242.399Z" fill="#263238" stroke="#263238" stroke-linecap="round" stroke-linejoin="round"/>
<path d="M166.325 253.296C170.185 256.422 176.232 260.982 180.459 262.69" stroke="white" stroke-linecap="round" stroke-linejoin="round"/>
<path d="M162.576 250.171C162.576 250.171 163.234 250.743 164.284 251.648" stroke="white" stroke-linecap="round" stroke-linejoin="round"/>
<path d="M174.848 231.613L188.025 239.094" stroke="white" stroke-linecap="round" stroke-linejoin="round"/>
<path d="M166.47 227.164C166.47 227.164 160.783 230.162 161.082 232.852C161.381 235.542 167.965 231.058 167.367 234.047C166.769 237.036 163.524 237.591 166.769 238.838C170.015 240.085 184.43 251.708 193.414 257.703C202.398 263.698 211.673 271.768 210.776 274.16C209.879 276.551 201.493 298.072 203.286 312.18" stroke="white" stroke-linecap="round" stroke-linejoin="round"/>
<path d="M127.844 286.09C127.844 286.09 149.399 289.378 158.374 290.275C167.35 291.171 168.255 289.378 166.761 287.585C165.266 285.791 168.255 288.182 168.853 285.484C169.451 282.785 170.655 266.03 170.954 261.836" stroke="white" stroke-linecap="round" stroke-linejoin="round"/>
<path d="M94.8113 286.013C94.8113 286.013 89.2689 278.259 87.4498 279.181C85.6308 280.103 81.3096 283.127 78.9696 284.382C76.6297 285.637 72.4451 290.702 72.4792 292.341C72.5134 293.981 76.9456 291.325 79.8834 290.736C82.8211 290.146 93.9061 291.086 93.9061 291.086C93.9061 291.086 93.3083 286.824 94.8113 286.013Z" fill="#92E3A9" stroke="#263238" stroke-linecap="round" stroke-linejoin="round"/>
<path d="M89.2176 279.736C88.5003 279.215 87.8768 278.951 87.4498 279.164C85.6394 280.069 81.3096 283.11 78.9696 284.365C76.6297 285.62 72.4451 290.685 72.4792 292.324C72.4792 292.931 73.1112 292.948 74.025 292.7C75.8098 289.156 79.6613 287.311 83.2994 284.16C85.1602 282.541 87.1384 281.063 89.2176 279.736Z" fill="white" stroke="#263238" stroke-linecap="round" stroke-linejoin="round"/>
<path d="M202.714 345.682C202.714 345.682 198.726 354.35 200.434 355.469C202.142 356.588 206.907 358.885 209.162 360.251C211.417 361.618 217.881 362.813 219.29 361.959C220.699 361.105 216.19 358.586 214.226 356.331C212.262 354.077 208.188 346.28 208.188 346.28C208.188 346.28 204.166 346.587 202.714 345.682Z" fill="#92E3A9" stroke="#263238" stroke-linecap="round" stroke-linejoin="round"/>
<path d="M219.273 361.942C219.88 361.575 219.376 360.892 218.419 360.055C217.141 360.204 215.851 360.23 214.568 360.132C212.091 359.884 203.611 355.366 200.05 353.419C199.904 354.41 199.964 355.187 200.391 355.469C202.099 356.596 206.865 358.885 209.119 360.251C211.374 361.618 217.864 362.788 219.273 361.942Z" fill="white" stroke="#263238" stroke-linecap="round" stroke-linejoin="round"/>
</svg>
