<svg width="245" height="245" viewBox="0 0 245 245" fill="none" xmlns="http://www.w3.org/2000/svg">
<g clip-path="url(#clip0_17_3576)">
<path opacity="0.7" d="M188.646 12.8809C188.646 12.8809 118.895 -10.1515 69.5 12.8809C20.1046 35.9133 15.1303 89.5189 -9.02935 130.887C-33.189 172.254 -25.2553 217.064 8.90465 240.156C43.0647 263.248 70.0083 235.886 120.471 238.815C170.934 241.744 183.847 250.096 228.075 225.288C272.304 200.479 285.703 133.995 257.068 81.4656C228.434 28.9361 188.646 12.8809 188.646 12.8809Z" fill="#DEF7E5"/>
<path d="M60.9844 229.974L44.0843 69.4493L169.986 56.1943L186.886 216.719L60.9844 229.974Z" fill="#E0E0E0" stroke="black" stroke-width="0.2"/>
<path d="M72.1732 225.121L50.1567 78.3313L174.801 59.6363L196.818 206.426L72.1732 225.121Z" fill="#EBEBEB" stroke="black" stroke-width="0.2"/>
<mask id="path-4-inside-1_17_3576" fill="white">
<path d="M223.989 72.7944C223.989 72.7944 219.03 69.5261 213.023 81.34C207.015 93.1539 204.717 99.96 204.717 99.96C204.717 99.96 203.125 102.41 201.424 100.817C199.724 99.225 197.392 94.6043 194.501 95.4275C191.502 96.285 190.512 99.6317 191.071 104.551C191.629 109.471 192.501 120.29 192.575 121.27C192.648 122.25 192.085 123.647 190.762 122.74C189.439 121.834 181.741 113.268 177.899 117.159C174.058 121.05 177.899 134.485 178.296 135.965C178.693 137.445 178.399 138.072 177.694 138.415C176.988 138.758 174.68 135.661 172.397 133.319C170.113 130.977 167.051 128.659 165.022 131.085C162.994 133.51 162.347 143.599 171.941 159.995L176.89 167.311L185.71 166.821C204.565 164.62 212.229 158.03 212.944 154.943C213.66 151.856 209.97 150.817 206.721 150.401C203.473 149.984 199.592 150.023 199.459 149.244C199.327 148.465 199.66 147.853 201.076 147.284C202.493 146.716 215.536 141.683 216.325 136.274C217.114 130.864 205.658 129.904 204.119 129.37C202.581 128.836 203.384 127.567 204.193 127.042C205.001 126.518 214.174 120.672 218.447 118.173C222.72 115.674 224.792 112.867 223.675 109.956C222.592 107.148 217.521 108.055 215.203 107.673C212.885 107.29 213.905 104.527 213.905 104.527C213.905 104.527 217.977 98.5978 223.783 86.6712C229.59 74.7446 223.857 72.7405 223.857 72.7405"/>
</mask>
<path d="M223.989 72.7944C223.989 72.7944 219.03 69.5261 213.023 81.34C207.015 93.1539 204.717 99.96 204.717 99.96C204.717 99.96 203.125 102.41 201.424 100.817C199.724 99.225 197.392 94.6043 194.501 95.4275C191.502 96.285 190.512 99.6317 191.071 104.551C191.629 109.471 192.501 120.29 192.575 121.27C192.648 122.25 192.085 123.647 190.762 122.74C189.439 121.834 181.741 113.268 177.899 117.159C174.058 121.05 177.899 134.485 178.296 135.965C178.693 137.445 178.399 138.072 177.694 138.415C176.988 138.758 174.68 135.661 172.397 133.319C170.113 130.977 167.051 128.659 165.022 131.085C162.994 133.51 162.347 143.599 171.941 159.995L176.89 167.311L185.71 166.821C204.565 164.62 212.229 158.03 212.944 154.943C213.66 151.856 209.97 150.817 206.721 150.401C203.473 149.984 199.592 150.023 199.459 149.244C199.327 148.465 199.66 147.853 201.076 147.284C202.493 146.716 215.536 141.683 216.325 136.274C217.114 130.864 205.658 129.904 204.119 129.37C202.581 128.836 203.384 127.567 204.193 127.042C205.001 126.518 214.174 120.672 218.447 118.173C222.72 115.674 224.792 112.867 223.675 109.956C222.592 107.148 217.521 108.055 215.203 107.673C212.885 107.29 213.905 104.527 213.905 104.527C213.905 104.527 217.977 98.5978 223.783 86.6712C229.59 74.7446 223.857 72.7405 223.857 72.7405" fill="#E0E0E0"/>
<path d="M204.717 99.96L204.885 100.069L204.899 100.048L204.907 100.024L204.717 99.96ZM194.501 95.4275L194.446 95.2351L194.446 95.2352L194.501 95.4275ZM171.941 159.995L171.768 160.096L171.775 160.107L171.941 159.995ZM176.89 167.311L176.724 167.423L176.788 167.516L176.901 167.51L176.89 167.311ZM185.71 166.821L185.721 167.021L185.733 167.019L185.71 166.821ZM223.675 109.956L223.862 109.884L223.862 109.884L223.675 109.956ZM213.905 104.527L213.74 104.414L213.726 104.434L213.717 104.458L213.905 104.527ZM223.989 72.7944C224.099 72.6274 224.099 72.6273 224.099 72.6271C224.098 72.6271 224.098 72.6269 224.098 72.6268C224.098 72.6265 224.097 72.6262 224.097 72.6259C224.095 72.6251 224.094 72.6242 224.092 72.6232C224.089 72.621 224.084 72.6181 224.078 72.6145C224.067 72.6074 224.05 72.5977 224.029 72.5859C223.987 72.5622 223.925 72.5303 223.846 72.4946C223.688 72.4234 223.457 72.3371 223.163 72.2729C222.572 72.1442 221.728 72.105 220.696 72.4471C218.633 73.1308 215.859 75.3217 212.844 81.2493L213.201 81.4306C216.194 75.5444 218.903 73.4625 220.821 72.8268C221.78 72.5093 222.551 72.5488 223.078 72.6637C223.342 72.7213 223.546 72.7981 223.682 72.8594C223.75 72.8901 223.801 72.9168 223.834 72.9353C223.851 72.9445 223.863 72.9517 223.87 72.9562C223.874 72.9585 223.877 72.9601 223.878 72.961C223.879 72.9614 223.879 72.9617 223.879 72.9618C223.879 72.9618 223.879 72.9618 223.879 72.9617C223.879 72.9617 223.879 72.9616 223.879 72.9616C223.879 72.9615 223.879 72.9614 223.989 72.7944ZM212.844 81.2493C209.838 87.1609 207.76 91.8205 206.433 95.0032C205.769 96.5946 205.293 97.8167 204.983 98.6416C204.828 99.054 204.714 99.3671 204.639 99.5773C204.602 99.6824 204.574 99.7619 204.555 99.8151C204.546 99.8417 204.539 99.8618 204.535 99.8753C204.532 99.8821 204.531 99.8872 204.529 99.8906C204.529 99.8924 204.528 99.8937 204.528 99.8946C204.528 99.895 204.528 99.8954 204.528 99.8956C204.528 99.8957 204.528 99.8958 204.528 99.8959C204.528 99.896 204.528 99.896 204.717 99.96C204.907 100.024 204.907 100.024 204.907 100.024C204.907 100.024 204.907 100.024 204.907 100.024C204.907 100.024 204.907 100.023 204.907 100.023C204.907 100.022 204.908 100.021 204.908 100.019C204.909 100.016 204.911 100.011 204.913 100.005C204.918 99.9919 204.924 99.9723 204.933 99.9462C204.952 99.894 204.979 99.8157 205.016 99.7116C205.09 99.5035 205.203 99.1926 205.357 98.7823C205.666 97.9618 206.14 96.7441 206.802 95.1572C208.125 91.9834 210.2 87.333 213.201 81.4306L212.844 81.2493ZM204.717 99.96C204.549 99.851 204.55 99.8509 204.55 99.8509C204.55 99.8509 204.55 99.8509 204.55 99.8509C204.55 99.8508 204.55 99.8509 204.55 99.8509C204.549 99.851 204.549 99.8513 204.549 99.8517C204.548 99.8525 204.548 99.8539 204.546 99.8559C204.544 99.8597 204.54 99.8658 204.534 99.8738C204.523 99.8898 204.506 99.9137 204.484 99.9439C204.44 100.004 204.374 100.09 204.29 100.188C204.121 100.385 203.882 100.627 203.596 100.82C203.31 101.014 202.989 101.15 202.653 101.155C202.323 101.16 201.953 101.039 201.561 100.672L201.288 100.963C201.745 101.392 202.212 101.562 202.659 101.555C203.1 101.549 203.496 101.371 203.821 101.152C204.146 100.931 204.411 100.661 204.594 100.448C204.685 100.341 204.757 100.248 204.807 100.18C204.831 100.147 204.85 100.12 204.864 100.1C204.87 100.091 204.875 100.083 204.879 100.078C204.881 100.075 204.882 100.073 204.883 100.072C204.884 100.071 204.884 100.07 204.884 100.07C204.884 100.07 204.885 100.07 204.885 100.069C204.885 100.069 204.885 100.069 204.885 100.069C204.885 100.069 204.885 100.069 204.717 99.96ZM201.561 100.672C201.15 100.286 200.695 99.7124 200.189 99.0646C199.688 98.4224 199.141 97.7139 198.556 97.0808C197.4 95.8303 196.016 94.7881 194.446 95.2351L194.555 95.6199C195.876 95.2437 197.104 96.1003 198.262 97.3524C198.834 97.9706 199.37 98.6644 199.874 99.3108C200.374 99.9516 200.849 100.553 201.288 100.963L201.561 100.672ZM194.446 95.2352C192.874 95.6846 191.833 96.7902 191.263 98.3993C190.696 99.999 190.591 102.1 190.872 104.574L191.269 104.529C190.992 102.083 191.102 100.051 191.64 98.5329C192.175 97.0244 193.129 96.0279 194.556 95.6198L194.446 95.2352ZM190.872 104.574C191.43 109.489 192.302 120.305 192.376 121.285L192.774 121.255C192.701 120.275 191.828 109.453 191.269 104.529L190.872 104.574ZM192.376 121.285C192.41 121.744 192.291 122.28 192.038 122.585C191.917 122.731 191.771 122.818 191.598 122.831C191.421 122.845 191.182 122.786 190.875 122.575L190.649 122.905C191.003 123.148 191.331 123.254 191.629 123.23C191.932 123.206 192.171 123.052 192.346 122.84C192.687 122.429 192.814 121.776 192.774 121.255L192.376 121.285ZM190.875 122.575C190.723 122.471 190.47 122.249 190.122 121.932C189.779 121.621 189.352 121.225 188.868 120.79C187.898 119.918 186.684 118.877 185.389 117.986C184.096 117.096 182.706 116.345 181.385 116.067C180.055 115.787 178.778 115.985 177.757 117.018L178.042 117.3C178.942 116.388 180.067 116.198 181.303 116.458C182.547 116.72 183.885 117.437 185.162 118.315C186.436 119.192 187.635 120.219 188.601 121.087C189.084 121.522 189.505 121.913 189.852 122.228C190.194 122.539 190.47 122.782 190.649 122.905L190.875 122.575ZM177.757 117.018C176.748 118.041 176.261 119.667 176.086 121.512C175.91 123.363 176.044 125.47 176.31 127.492C176.842 131.538 177.905 135.279 178.103 136.017L178.49 135.913C178.291 135.172 177.235 131.455 176.707 127.44C176.443 125.432 176.312 123.358 176.484 121.55C176.657 119.734 177.131 118.222 178.042 117.3L177.757 117.018ZM178.103 136.017C178.298 136.744 178.313 137.228 178.216 137.561C178.124 137.879 177.921 138.082 177.606 138.235L177.781 138.595C178.172 138.405 178.469 138.124 178.6 137.672C178.728 137.236 178.691 136.666 178.49 135.913L178.103 136.017ZM177.606 138.235C177.594 138.241 177.549 138.254 177.434 138.206C177.324 138.16 177.184 138.071 177.014 137.936C176.675 137.668 176.258 137.25 175.783 136.738C174.845 135.727 173.681 134.35 172.54 133.18L172.254 133.459C173.396 134.63 174.528 135.973 175.49 137.01C175.966 137.523 176.401 137.961 176.765 138.25C176.947 138.394 177.12 138.509 177.28 138.575C177.436 138.64 177.617 138.675 177.781 138.595L177.606 138.235ZM172.54 133.18C171.395 132.005 170.036 130.816 168.694 130.231C168.021 129.937 167.338 129.789 166.681 129.883C166.019 129.978 165.404 130.316 164.869 130.956L165.176 131.213C165.655 130.64 166.183 130.359 166.738 130.279C167.297 130.199 167.903 130.322 168.534 130.597C169.801 131.15 171.115 132.291 172.254 133.459L172.54 133.18ZM164.869 130.956C164.326 131.605 163.898 132.734 163.7 134.294C163.501 135.86 163.531 137.881 163.926 140.333C164.714 145.237 166.962 151.882 171.768 160.096L172.114 159.894C167.326 151.712 165.1 145.115 164.321 140.269C163.931 137.846 163.904 135.865 164.097 134.345C164.291 132.819 164.704 131.777 165.176 131.213L164.869 130.956ZM171.775 160.107L176.724 167.423L177.056 167.198L172.107 159.883L171.775 160.107ZM176.901 167.51L185.721 167.02L185.699 166.621L176.879 167.111L176.901 167.51ZM185.733 167.019C195.18 165.917 201.834 163.714 206.223 161.391C208.417 160.23 210.048 159.037 211.178 157.935C212.304 156.836 212.948 155.813 213.139 154.988L212.749 154.898C212.583 155.616 212 156.574 210.899 157.649C209.802 158.719 208.204 159.89 206.036 161.038C201.7 163.332 195.096 165.524 185.687 166.622L185.733 167.019ZM213.139 154.988C213.328 154.174 213.228 153.479 212.906 152.893C212.586 152.312 212.057 151.856 211.417 151.496C210.143 150.778 208.375 150.411 206.747 150.202L206.696 150.599C208.316 150.807 210.018 151.167 211.221 151.845C211.821 152.182 212.283 152.591 212.555 153.086C212.825 153.576 212.918 154.169 212.749 154.898L213.139 154.988ZM206.747 150.202C205.122 149.994 203.318 149.897 201.942 149.759C201.246 149.69 200.66 149.61 200.243 149.501C200.034 149.447 199.88 149.389 199.778 149.329C199.674 149.266 199.659 149.223 199.657 149.211L199.262 149.278C199.293 149.46 199.428 149.586 199.574 149.672C199.723 149.761 199.919 149.831 200.143 149.889C200.592 150.005 201.205 150.087 201.902 150.157C203.311 150.299 205.072 150.391 206.696 150.599L206.747 150.202ZM199.657 149.211C199.597 148.862 199.644 148.574 199.847 148.306C200.058 148.027 200.456 147.749 201.151 147.47L201.002 147.099C200.281 147.388 199.804 147.7 199.528 148.064C199.243 148.44 199.189 148.847 199.262 149.278L199.657 149.211ZM201.151 147.47C201.858 147.186 205.485 145.781 209.035 143.768C210.809 142.762 212.572 141.6 213.944 140.344C215.311 139.093 216.316 137.724 216.523 136.303L216.127 136.245C215.94 137.528 215.019 138.817 213.674 140.049C212.334 141.276 210.599 142.421 208.837 143.421C205.314 145.418 201.711 146.814 201.002 147.099L201.151 147.47ZM216.523 136.303C216.733 134.866 216.122 133.728 215.099 132.837C214.082 131.952 212.646 131.298 211.158 130.804C209.667 130.308 208.106 129.967 206.825 129.717C206.187 129.592 205.61 129.489 205.156 129.401C204.692 129.313 204.361 129.242 204.185 129.181L204.054 129.559C204.263 129.631 204.626 129.707 205.08 129.794C205.544 129.883 206.108 129.984 206.748 130.109C208.024 130.359 209.565 130.696 211.032 131.183C212.502 131.672 213.879 132.306 214.836 133.139C215.787 133.966 216.312 134.977 216.127 136.245L216.523 136.303ZM204.185 129.181C203.826 129.056 203.633 128.899 203.537 128.747C203.443 128.6 203.426 128.433 203.47 128.25C203.563 127.868 203.922 127.456 204.302 127.21L204.084 126.874C203.655 127.153 203.208 127.638 203.082 128.155C203.017 128.422 203.036 128.705 203.199 128.962C203.36 129.215 203.643 129.416 204.054 129.559L204.185 129.181ZM204.302 127.21C205.11 126.686 214.279 120.842 218.548 118.346L218.346 118.001C214.069 120.502 204.893 126.35 204.084 126.874L204.302 127.21ZM218.548 118.346C220.697 117.089 222.312 115.744 223.249 114.329C224.191 112.907 224.447 111.41 223.862 109.884L223.489 110.028C224.02 111.413 223.799 112.775 222.916 114.109C222.027 115.45 220.47 116.758 218.346 118.001L218.548 118.346ZM223.862 109.884C223.274 108.36 221.615 107.878 219.922 107.706C219.066 107.619 218.171 107.608 217.356 107.596C216.533 107.583 215.797 107.568 215.236 107.475L215.171 107.87C215.768 107.968 216.536 107.983 217.349 107.996C218.17 108.008 219.046 108.019 219.882 108.104C221.575 108.276 222.994 108.744 223.489 110.028L223.862 109.884ZM215.236 107.475C214.7 107.387 214.379 107.166 214.184 106.901C213.985 106.631 213.901 106.293 213.885 105.947C213.868 105.602 213.92 105.263 213.977 105.008C214.005 104.882 214.035 104.777 214.057 104.705C214.068 104.669 214.077 104.641 214.083 104.622C214.086 104.613 214.089 104.606 214.09 104.602C214.091 104.599 214.092 104.598 214.092 104.597C214.092 104.596 214.092 104.596 214.092 104.596C214.092 104.596 214.092 104.596 214.092 104.596C214.092 104.596 214.092 104.596 214.092 104.596C214.092 104.596 214.092 104.596 213.905 104.527C213.717 104.458 213.717 104.458 213.717 104.458C213.717 104.458 213.717 104.458 213.717 104.458C213.717 104.458 213.717 104.458 213.717 104.459C213.716 104.459 213.716 104.46 213.716 104.461C213.715 104.462 213.714 104.465 213.713 104.468C213.711 104.474 213.708 104.483 213.704 104.494C213.697 104.516 213.686 104.548 213.674 104.588C213.65 104.668 213.617 104.783 213.586 104.921C213.525 105.196 213.466 105.572 213.485 105.966C213.504 106.358 213.6 106.783 213.861 107.138C214.127 107.499 214.547 107.767 215.171 107.87L215.236 107.475ZM213.905 104.527C214.07 104.64 214.07 104.64 214.07 104.64C214.07 104.64 214.07 104.64 214.07 104.64C214.07 104.639 214.07 104.639 214.07 104.639C214.071 104.638 214.072 104.637 214.073 104.635C214.075 104.632 214.078 104.628 214.082 104.622C214.09 104.61 214.102 104.593 214.118 104.569C214.149 104.522 214.196 104.452 214.258 104.359C214.381 104.173 214.563 103.894 214.8 103.521C215.274 102.777 215.966 101.661 216.839 100.173C218.585 97.1953 221.057 92.7269 223.963 86.7587L223.603 86.5837C220.702 92.5421 218.235 97.0015 216.494 99.9703C215.623 101.455 214.934 102.566 214.463 103.307C214.227 103.677 214.046 103.954 213.924 104.138C213.863 104.231 213.817 104.3 213.786 104.346C213.771 104.368 213.759 104.386 213.751 104.397C213.747 104.403 213.744 104.407 213.743 104.41C213.742 104.411 213.741 104.412 213.74 104.413C213.74 104.413 213.74 104.413 213.74 104.413C213.74 104.413 213.74 104.414 213.74 104.414C213.74 104.414 213.74 104.414 213.905 104.527ZM223.963 86.7587C226.877 80.7739 226.919 77.2313 226.186 75.1664C225.819 74.1335 225.261 73.4814 224.79 73.0867C224.555 72.8897 224.342 72.7574 224.186 72.6737C224.108 72.6318 224.044 72.6021 223.999 72.5824C223.976 72.5726 223.958 72.5653 223.945 72.5602C223.939 72.5577 223.934 72.5558 223.93 72.5544C223.928 72.5537 223.926 72.5531 223.925 72.5526C223.925 72.5524 223.924 72.5522 223.924 72.5521C223.923 72.552 223.923 72.5519 223.923 72.5519C223.923 72.5518 223.923 72.5517 223.857 72.7405C223.791 72.9293 223.79 72.9292 223.79 72.9292C223.79 72.9292 223.79 72.9291 223.79 72.9291C223.79 72.9291 223.79 72.9291 223.79 72.9291C223.79 72.9291 223.791 72.9293 223.791 72.9296C223.793 72.9302 223.796 72.9313 223.8 72.933C223.809 72.9362 223.822 72.9416 223.84 72.9494C223.876 72.9649 223.929 72.9899 223.997 73.0261C224.132 73.0986 224.322 73.216 224.533 73.3933C224.955 73.747 225.468 74.3414 225.809 75.3003C226.49 77.2192 226.496 80.6419 223.603 86.5837L223.963 86.7587Z" fill="black" mask="url(#path-4-inside-1_17_3576)"/>
<path d="M194.516 131.522C200.226 120.244 205.466 109.878 209.59 101.666C205.512 109.892 200.298 120.271 194.568 131.554C189.326 141.878 184.494 151.453 180.553 159.302C184.462 151.439 189.284 141.857 194.516 131.522Z" fill="#EBEBEB" stroke="black" stroke-width="0.2"/>
<path d="M198.396 105.434C198.305 105.057 198.218 104.7 198.137 104.364C198.535 105.768 199.027 107.7 199.534 109.837C199.856 111.197 200.147 112.456 200.406 113.573C200.553 114.209 200.69 114.8 200.815 115.336C200.432 113.927 199.965 111.994 199.459 109.855C199.068 108.201 198.705 106.706 198.396 105.434Z" fill="#EBEBEB" stroke="black" stroke-width="0.2"/>
<path d="M211.246 115.304C208.966 115.958 206.881 116.545 205.293 116.981C206.866 116.505 208.941 115.894 211.223 115.236C213.49 114.583 215.566 114.001 217.15 113.568C215.579 114.043 213.513 114.653 211.246 115.304Z" fill="#EBEBEB" stroke="black" stroke-width="0.2"/>
<path d="M193.309 137.824H193.457H193.458C194.952 137.824 197.016 137.824 199.292 137.736C201.567 137.648 203.631 137.506 205.117 137.388L205.439 137.363C205.335 137.375 205.228 137.387 205.118 137.399L205.117 137.4C203.65 137.571 201.575 137.747 199.294 137.83C197.013 137.913 194.953 137.894 193.456 137.83L193.456 137.83C193.406 137.828 193.358 137.826 193.309 137.824Z" fill="#EBEBEB" stroke="black" stroke-width="0.2"/>
<path d="M187.345 131.011C187.295 130.923 187.245 130.835 187.195 130.748C187.266 130.827 187.338 130.904 187.414 130.979C188.415 132.724 189.317 134.316 189.975 135.508C189.275 134.341 188.348 132.759 187.345 131.011Z" fill="#EBEBEB" stroke="black" stroke-width="0.2"/>
<path d="M176.349 149.14C175.044 146.918 173.864 144.888 172.997 143.371C173.904 144.866 175.102 146.882 176.412 149.104C177.722 151.326 178.893 153.356 179.76 154.87C178.853 153.379 177.655 151.362 176.349 149.14Z" fill="#EBEBEB" stroke="black" stroke-width="0.2"/>
<path d="M191.681 156.769C188.956 156.954 186.474 157.021 184.607 157.04C186.468 156.972 188.953 156.875 191.675 156.699C194.398 156.523 196.88 156.303 198.738 156.122C196.888 156.346 194.412 156.584 191.681 156.769Z" fill="#EBEBEB" stroke="black" stroke-width="0.2"/>
<path d="M34.7509 153.409C35.6237 152.966 36.5771 152.704 37.5539 152.638C38.5306 152.572 39.5105 152.705 40.4349 153.027C42.2862 153.682 43.9625 154.753 45.3349 156.158C48.0495 158.784 49.7449 162.788 50.7249 166.448C46.6089 167.271 42.3508 164.909 40.2683 163.577C36.9706 161.47 32.2911 155.663 34.7558 153.419" fill="#92E3A9"/>
<path d="M57.874 167.301C56.8967 166.815 56.065 166.079 55.4628 165.169C54.8605 164.259 54.5091 163.206 54.444 162.117C54.396 161.024 54.5658 159.933 54.9435 158.907C55.3212 157.88 55.8993 156.939 56.6441 156.138C57.3203 155.389 58.217 154.703 59.2215 154.752C59.6918 154.804 60.1397 154.981 60.5194 155.263C60.899 155.545 61.1969 155.924 61.3824 156.359C61.7396 157.239 61.8563 158.198 61.7205 159.137C61.4118 162.357 60.5249 165.414 57.8985 167.301" fill="#92E3A9"/>
<path d="M64.5232 177.537C64.3255 177.369 64.1449 177.182 63.9842 176.978L62.5632 175.405C61.397 174.063 59.6918 172.186 58.5942 169.638C57.6221 167.48 57.2399 165.103 57.4868 162.749C57.5662 162.042 57.7307 161.348 57.9768 160.681C58.0443 160.499 58.1212 160.321 58.2071 160.147C58.261 160.029 58.2953 159.965 58.3051 159.97C57.9972 160.881 57.7822 161.82 57.6632 162.773C57.4795 165.093 57.8875 167.421 58.849 169.54C59.9172 172.039 61.5783 173.921 62.7102 175.293C63.2835 175.979 63.7539 176.532 64.0626 176.924C64.2352 177.113 64.3894 177.318 64.5232 177.537Z" fill="#263238"/>
<path d="M38.71 157.515C38.8131 157.565 38.9115 157.624 39.004 157.692L39.8027 158.236C40.4985 158.726 41.4932 159.417 42.7133 160.294C45.1633 162.053 48.5002 164.527 52.1262 167.345C55.7522 170.162 58.9862 172.789 61.2941 174.719C62.4456 175.699 63.3717 176.473 64.0087 177.027L64.7339 177.669C64.9005 177.821 64.9838 177.899 64.974 177.909C64.8766 177.853 64.7847 177.787 64.6996 177.713L63.9401 177.111L61.1716 174.871C58.8 172.97 55.5758 170.378 51.94 167.58C48.3042 164.782 44.9918 162.268 42.581 160.47L39.7243 158.343L38.9501 157.756C38.861 157.685 38.7805 157.604 38.71 157.515Z" fill="#263238"/>
<path d="M56.35 173.034C54.3133 171.949 52.0476 171.364 49.7403 171.328C47.4329 171.293 45.1502 171.807 43.0808 172.828C42.0371 173.357 40.9346 174.249 41.0277 175.415C41.1208 176.581 42.3605 177.292 43.4777 177.625C45.841 178.272 48.343 178.205 50.6679 177.431C52.9928 176.657 55.0366 175.213 56.5411 173.279" fill="#92E3A9"/>
<path d="M46.2168 174.597C46.4176 174.457 46.6327 174.338 46.8587 174.244C47.1123 174.108 47.3741 173.989 47.6427 173.886C47.9911 173.736 48.3477 173.605 48.7109 173.494C49.1463 173.346 49.5896 173.221 50.0388 173.122C50.5546 173.002 51.0763 172.908 51.6019 172.843C52.81 172.707 54.0295 172.707 55.2377 172.843C56.4447 172.993 57.6302 173.282 58.7706 173.705C59.2727 173.892 59.7635 174.108 60.2406 174.352C60.654 174.559 61.0563 174.788 61.446 175.038C61.8135 175.249 62.1026 175.498 62.377 175.689C62.6102 175.857 62.8328 176.038 63.0434 176.233C63.2348 176.38 63.412 176.544 63.5726 176.723C63.5285 176.772 62.769 176.052 61.3431 175.185C60.9546 174.948 60.5539 174.732 60.1426 174.538C59.6742 174.306 59.1932 174.1 58.702 173.921C57.5779 173.519 56.4128 173.243 55.2279 173.097C54.039 172.97 52.8398 172.97 51.6509 173.097C51.1324 173.156 50.6172 173.241 50.1074 173.352C49.6174 173.436 49.1862 173.573 48.7844 173.681C47.1674 174.161 46.2413 174.651 46.2168 174.597Z" fill="#263238"/>
<path d="M183.554 192.252C180.124 190.047 178.889 187.219 178.35 183.177C178.095 181.149 178.278 179.089 178.886 177.138C179.493 175.186 180.512 173.387 181.873 171.863C184.157 169.344 187.361 167.624 189.023 164.655C190.787 161.489 190.561 157.305 193.08 154.683C194.814 152.895 197.426 152.336 199.562 151.062C201.312 150.023 202.723 148.519 204.306 147.25C205.888 145.981 207.79 144.903 209.818 144.976C212.881 145.089 215.375 147.995 215.634 151.047C215.894 154.1 214.307 157.089 212.048 159.162C210.411 160.661 208.368 161.842 207.334 163.812C205.374 167.502 207.76 172.441 205.658 176.062C204.124 178.693 200.469 180.065 200.072 183.089C199.925 184.201 200.283 185.313 200.317 186.435C200.425 189.939 197.259 192.884 193.834 193.638C190.409 194.393 186.852 193.447 183.544 192.266" fill="#455A64"/>
<path d="M203.678 157.54C203.579 157.688 203.466 157.826 203.34 157.951L202.306 159.064C201.851 159.554 201.292 160.127 200.689 160.842C200.087 161.558 199.342 162.312 198.626 163.263C197.911 164.214 197.068 165.179 196.274 166.316C195.877 166.884 195.432 167.443 195.03 168.065L193.78 169.966C191.978 172.821 190.393 175.807 189.037 178.899C187.718 182.007 186.645 185.213 185.828 188.488C185.48 190.007 185.142 191.428 184.946 192.82C184.75 194.212 184.554 195.461 184.421 196.632C184.289 197.803 184.245 198.867 184.166 199.802C184.088 200.738 184.083 201.542 184.073 202.203C184.064 202.865 184.049 203.33 184.039 203.722C184.043 203.9 184.029 204.077 183.995 204.252C183.962 204.077 183.949 203.9 183.956 203.722C183.956 203.33 183.931 202.826 183.912 202.198C183.892 201.571 183.877 200.728 183.912 199.793C183.946 198.857 183.961 197.779 184.103 196.603C184.245 195.427 184.333 194.153 184.593 192.761C184.852 191.37 185.083 189.929 185.441 188.4C186.248 185.096 187.321 181.863 188.65 178.732C190.016 175.619 191.623 172.618 193.457 169.756L194.726 167.854C195.138 167.237 195.588 166.673 195.995 166.11C196.808 164.978 197.646 163.988 198.401 163.077C199.156 162.165 199.871 161.386 200.513 160.686C201.155 159.985 201.713 159.412 202.189 158.951C202.664 158.491 202.997 158.162 203.281 157.893C203.401 157.762 203.534 157.644 203.678 157.54Z" fill="#263238"/>
<path d="M186.612 68.1835H60.3728V216.815H186.612V68.1835Z" fill="#FAFAFA"/>
<path d="M186.617 216.815C186.617 215.835 186.568 156.746 186.499 68.1835L186.617 68.2962H60.3876L60.515 68.1688C60.515 123.049 60.515 174.161 60.515 216.801L60.4072 216.693L186.651 216.801L60.4072 216.908H60.27V216.801C60.27 174.171 60.27 123.044 60.27 68.1688V68.0414H60.4121H186.641H186.754V68.159C186.661 156.746 186.617 215.83 186.617 216.815Z" fill="#263238"/>
<path d="M130.619 92.4728H128.169L127.64 93.6537H127.15L129.169 89.2437H129.63L131.648 93.6537H131.158L130.619 92.4728ZM130.453 92.0955L129.389 89.7239L128.331 92.12L130.453 92.0955Z" fill="black"/>
<path d="M135.279 88.9693V93.6537H134.848V92.9971C134.715 93.2147 134.527 93.393 134.302 93.5136C134.077 93.6342 133.824 93.6927 133.569 93.6831C133.137 93.6598 132.731 93.4718 132.433 93.1578C132.136 92.8438 131.97 92.4276 131.97 91.995C131.97 91.5624 132.136 91.1463 132.433 90.8323C132.731 90.5183 133.137 90.3303 133.569 90.307C133.818 90.3012 134.063 90.3583 134.283 90.4731C134.504 90.588 134.691 90.7567 134.829 90.9636V88.9693H135.279ZM134.833 91.9926C134.822 91.751 134.74 91.5181 134.597 91.3228C134.454 91.1276 134.257 90.9785 134.031 90.8941C133.804 90.8098 133.558 90.7939 133.322 90.8483C133.086 90.9028 132.872 91.0253 132.705 91.2006C132.538 91.3759 132.427 91.5962 132.384 91.8343C132.342 92.0724 132.37 92.3178 132.466 92.5399C132.562 92.762 132.72 92.9512 132.923 93.0838C133.125 93.2165 133.362 93.2869 133.604 93.2862C133.771 93.2886 133.937 93.2562 134.092 93.1912C134.247 93.1262 134.386 93.0299 134.501 92.9084C134.617 92.7869 134.706 92.6429 134.763 92.4852C134.82 92.3276 134.844 92.1599 134.833 91.9926Z" fill="black"/>
<path d="M139.557 88.9693V93.6537H139.126V92.9971C138.993 93.2147 138.804 93.393 138.579 93.5136C138.355 93.6342 138.102 93.6927 137.847 93.6831C137.415 93.6598 137.008 93.4718 136.711 93.1578C136.413 92.8438 136.247 92.4276 136.247 91.995C136.247 91.5624 136.413 91.1463 136.711 90.8323C137.008 90.5183 137.415 90.3303 137.847 90.307C138.095 90.3012 138.341 90.3583 138.561 90.4731C138.781 90.588 138.969 90.7567 139.106 90.9636V88.9693H139.557ZM139.111 91.9926C139.1 91.751 139.017 91.5181 138.875 91.3228C138.732 91.1276 138.535 90.9785 138.308 90.8941C138.082 90.8098 137.835 90.7939 137.6 90.8483C137.364 90.9028 137.149 91.0253 136.983 91.2006C136.816 91.3759 136.705 91.5962 136.662 91.8343C136.62 92.0724 136.648 92.3178 136.744 92.5399C136.839 92.762 136.998 92.9512 137.2 93.0838C137.403 93.2165 137.639 93.2869 137.881 93.2862C138.049 93.2886 138.215 93.2562 138.37 93.1912C138.524 93.1262 138.664 93.0299 138.779 92.9084C138.895 92.7869 138.984 92.6429 139.041 92.4852C139.098 92.3276 139.122 92.1599 139.111 91.9926Z" fill="black"/>
<path d="M145.447 90.3315V93.6537H145.04V93.0461C144.918 93.2505 144.743 93.4178 144.533 93.5301C144.323 93.6423 144.087 93.6952 143.849 93.6831C143.658 93.7019 143.466 93.6778 143.285 93.6124C143.105 93.5471 142.942 93.4422 142.807 93.3054C142.673 93.1686 142.571 93.0035 142.509 92.8221C142.446 92.6407 142.426 92.4477 142.448 92.2572V90.3315H142.899V92.2131C142.899 92.9187 143.261 93.2813 143.879 93.2813C144.036 93.2894 144.193 93.2632 144.339 93.2045C144.485 93.1457 144.616 93.0559 144.724 92.9411C144.832 92.8264 144.913 92.6895 144.963 92.5401C145.012 92.3907 145.029 92.2323 145.011 92.0759V90.3315H145.447Z" fill="black"/>
<path d="M146.24 93.2764L146.441 92.9187C146.786 93.165 147.199 93.2954 147.622 93.2911C148.254 93.2911 148.514 93.0804 148.514 92.7521C148.514 91.8848 146.358 92.5659 146.358 91.2821C146.358 90.7382 146.848 90.3315 147.671 90.3315C148.084 90.3265 148.49 90.4331 148.847 90.6402L148.651 91.0028C148.361 90.8105 148.019 90.7114 147.671 90.7186C147.073 90.7186 146.809 90.9538 146.809 91.2674C146.809 92.1641 148.96 91.4879 148.96 92.7374C148.96 93.3107 148.47 93.6831 147.593 93.6831C147.11 93.6969 146.636 93.5543 146.24 93.2764Z" fill="black"/>
<path d="M152.679 92.12H149.901C149.91 92.2819 149.951 92.4402 150.022 92.586C150.093 92.7317 150.193 92.8619 150.314 92.969C150.436 93.0761 150.578 93.158 150.731 93.21C150.885 93.2619 151.047 93.2828 151.209 93.2715C151.4 93.2778 151.59 93.242 151.765 93.1666C151.94 93.0913 152.097 92.9782 152.223 92.8354L152.473 93.1294C152.313 93.3083 152.116 93.4494 151.894 93.5426C151.673 93.6358 151.434 93.6788 151.194 93.6684C150.966 93.6822 150.738 93.6482 150.524 93.5688C150.31 93.4893 150.115 93.3661 149.951 93.2071C149.788 93.048 149.659 92.8565 149.574 92.6449C149.488 92.4332 149.448 92.2061 149.455 91.9779C149.443 91.7584 149.476 91.5387 149.551 91.3323C149.627 91.1259 149.744 90.9371 149.895 90.7774C150.046 90.6178 150.228 90.4906 150.43 90.4037C150.632 90.3168 150.85 90.2719 151.069 90.2719C151.289 90.2719 151.507 90.3168 151.709 90.4037C151.911 90.4906 152.093 90.6178 152.244 90.7774C152.395 90.9371 152.512 91.1259 152.588 91.3323C152.663 91.5387 152.696 91.7584 152.684 91.9779C152.684 92.0318 152.679 92.0808 152.679 92.12ZM149.901 91.7819H152.253C152.226 91.4885 152.09 91.2158 151.873 91.0172C151.655 90.8186 151.371 90.7085 151.077 90.7085C150.782 90.7085 150.498 90.8186 150.281 91.0172C150.063 91.2158 149.928 91.4885 149.901 91.7819Z" fill="black"/>
<path d="M155.271 90.307V90.7431H155.163C155.005 90.735 154.847 90.762 154.7 90.8223C154.554 90.8825 154.422 90.9745 154.315 91.0917C154.209 91.2088 154.129 91.3481 154.083 91.4997C154.036 91.6512 154.024 91.8112 154.046 91.9681V93.6586H153.595V90.3364H154.027V90.9881C154.142 90.7627 154.322 90.5771 154.544 90.4556C154.766 90.3341 155.019 90.2823 155.271 90.307Z" fill="black"/>
<path d="M121.437 136.852C121.437 136.852 121.437 136.754 121.437 136.578C121.437 136.401 121.437 136.127 121.437 135.784C121.437 135.078 121.437 134.049 121.437 132.717C121.437 130.046 121.407 126.165 121.388 121.285L121.471 121.363L71.9368 121.412L72.0643 121.285C72.0643 126.675 72.0643 131.918 72.0643 136.852L71.9418 136.73L107.344 136.783L117.713 136.818H120.501H121.226H121.476H121.241H120.491H117.732L107.393 136.857L71.9026 136.911H71.7751V121.157H71.9026L121.437 121.202H121.52V121.285C121.52 126.185 121.486 130.105 121.476 132.766C121.476 134.089 121.476 135.113 121.476 135.813C121.476 136.151 121.476 136.411 121.476 136.592C121.476 136.774 121.437 136.852 121.437 136.852Z" fill="#263238"/>
<path d="M176.268 157.937C176.268 157.937 176.268 157.589 176.268 156.913C176.268 156.237 176.268 155.237 176.268 153.919C176.268 151.288 176.268 147.402 176.233 142.37L176.297 142.433L71.927 142.497L72.0545 142.37V157.937L71.927 157.814L146.182 157.868L168.232 157.903H174.195H175.743H176.277C176.277 157.903 176.106 157.903 175.763 157.903H174.229H168.295L146.245 157.942L71.9026 157.996H71.7751V142.242H71.9074L176.277 142.306H176.341V142.37C176.341 147.421 176.312 151.317 176.302 153.958C176.302 155.265 176.302 156.258 176.302 156.937C176.277 157.604 176.268 157.937 176.268 157.937Z" fill="#263238"/>
<path d="M176.268 178.879C176.268 178.879 176.268 178.527 176.268 177.855C176.268 177.184 176.268 176.175 176.268 174.861C176.268 172.225 176.268 168.344 176.233 163.312L176.297 163.371L71.927 163.439L72.0545 163.312V178.879L71.927 178.752L146.182 178.806L168.232 178.845H174.195H175.743H176.277H175.763H174.229H168.295L146.245 178.879L71.9026 178.938H71.7751V163.17H71.9074L176.277 163.239H176.341V163.302C176.341 168.349 176.312 172.245 176.302 174.886C176.302 176.193 176.302 177.186 176.302 177.865C176.277 178.546 176.268 178.879 176.268 178.879Z" fill="#263238"/>
<path d="M176.268 136.852C176.268 136.852 176.268 136.754 176.268 136.578C176.268 136.401 176.268 136.127 176.268 135.784C176.268 135.078 176.268 134.049 176.268 132.717C176.268 130.046 176.268 126.165 176.224 121.285L176.307 121.363L126.773 121.412L126.9 121.285V136.852L126.773 136.73L162.18 136.783L172.549 136.818H175.337H176.062H176.312H176.077H175.322H172.563L162.224 136.857L126.729 136.911H126.606V136.788C126.606 131.854 126.606 126.616 126.606 121.221V121.094H126.738L176.273 121.138H176.356V121.221C176.356 126.121 176.322 130.041 176.307 132.702C176.307 134.025 176.307 135.049 176.307 135.75C176.307 136.088 176.307 136.347 176.307 136.529C176.307 136.71 176.268 136.852 176.268 136.852Z" fill="#263238"/>
<path d="M82.2759 131.32C82.1508 131.337 82.0248 131.345 81.8986 131.344L80.7814 131.379C79.8014 131.408 78.4 131.447 76.7144 131.467H76.5576L76.6066 131.32C76.749 130.821 77.0193 130.369 77.3906 130.007C77.8094 129.63 78.3318 129.388 78.89 129.311L78.8606 129.551C78.5468 129.414 78.2764 129.193 78.0786 128.913C77.8809 128.634 77.7633 128.305 77.7385 127.963C77.7046 127.58 77.787 127.194 77.9749 126.858C78.1627 126.522 78.4474 126.249 78.792 126.077C79.1208 125.926 79.4897 125.886 79.8431 125.963C80.1965 126.04 80.5155 126.23 80.752 126.503C80.9622 126.745 81.1101 127.034 81.1827 127.346C81.2553 127.658 81.2504 127.982 81.1685 128.292C81.1013 128.561 80.9731 128.811 80.7938 129.022C80.6145 129.234 80.389 129.401 80.1346 129.512V129.34C80.5714 129.405 80.9864 129.573 81.3449 129.83C81.6081 130.028 81.831 130.274 82.0015 130.556C82.1553 130.789 82.2572 131.053 82.3004 131.33C82.3004 131.33 82.2612 131.256 82.2073 131.139C82.1249 130.955 82.0282 130.778 81.9182 130.609C81.7141 130.306 81.446 130.052 81.1327 129.864C80.8194 129.676 80.4686 129.559 80.1052 129.522L79.7769 129.482L80.0856 129.35C80.3093 129.246 80.5063 129.092 80.6617 128.9C80.817 128.708 80.9267 128.483 80.9823 128.243C81.0517 127.969 81.0532 127.682 80.9866 127.407C80.92 127.132 80.7873 126.877 80.6001 126.665C80.3929 126.437 80.1191 126.279 79.8175 126.215C79.5159 126.151 79.2017 126.183 78.9194 126.307C78.6228 126.459 78.3783 126.696 78.2176 126.987C78.0569 127.279 77.9873 127.612 78.0178 127.944C78.039 128.242 78.1416 128.528 78.3144 128.772C78.4873 129.016 78.7236 129.207 78.9978 129.326L79.4143 129.492L78.9684 129.566C78.4576 129.633 77.9792 129.853 77.5964 130.198C77.2503 130.527 76.9954 130.941 76.8565 131.398L76.7487 131.256C78.3804 131.256 79.7524 131.256 80.7373 131.291H81.8839C82.0151 131.292 82.146 131.302 82.2759 131.32Z" fill="#92E3A9"/>
<path d="M140.346 131.32C140.222 131.337 140.098 131.345 139.973 131.345L138.851 131.379C137.871 131.408 136.475 131.447 134.784 131.467H134.632L134.676 131.32C134.819 130.821 135.089 130.369 135.46 130.007C135.878 129.626 136.401 129.38 136.96 129.301L136.93 129.541C136.617 129.404 136.348 129.183 136.151 128.903C135.954 128.623 135.837 128.295 135.813 127.954C135.777 127.57 135.858 127.185 136.045 126.848C136.232 126.511 136.517 126.239 136.862 126.067C137.191 125.917 137.559 125.878 137.913 125.955C138.266 126.032 138.585 126.221 138.822 126.494C139.031 126.735 139.178 127.025 139.25 127.337C139.322 127.648 139.316 127.973 139.233 128.282C139.166 128.551 139.038 128.801 138.859 129.013C138.679 129.224 138.454 129.392 138.2 129.502V129.331C138.636 129.395 139.051 129.563 139.41 129.821C139.674 130.017 139.897 130.263 140.066 130.546C140.22 130.78 140.322 131.044 140.365 131.32C140.365 131.32 140.326 131.247 140.272 131.129C140.194 130.943 140.097 130.766 139.983 130.6C139.78 130.297 139.513 130.042 139.2 129.854C138.888 129.666 138.538 129.549 138.175 129.512L137.847 129.473L138.151 129.34C138.374 129.235 138.572 129.081 138.728 128.89C138.884 128.698 138.995 128.473 139.052 128.233C139.12 127.958 139.121 127.671 139.053 127.396C138.986 127.121 138.853 126.867 138.665 126.655C138.461 126.423 138.188 126.263 137.886 126.199C137.584 126.135 137.27 126.169 136.989 126.298C136.691 126.448 136.445 126.684 136.284 126.976C136.122 127.268 136.052 127.602 136.083 127.934C136.104 128.232 136.207 128.518 136.379 128.762C136.552 129.006 136.789 129.197 137.063 129.316L137.479 129.483L137.033 129.556C136.523 129.623 136.044 129.843 135.661 130.188C135.317 130.518 135.063 130.932 134.926 131.389L134.819 131.247C136.45 131.247 137.822 131.247 138.802 131.281H139.954C140.085 131.285 140.216 131.298 140.346 131.32Z" fill="#92E3A9"/>
<path d="M88.0824 127.89V129.203H89.8072V129.507H88.0824V130.923H87.71V127.586H89.9983V127.89H88.0824Z" fill="#263238"/>
<path d="M90.5471 127.621C90.5484 127.556 90.5748 127.495 90.6206 127.45C90.6664 127.406 90.728 127.38 90.7921 127.38C90.8241 127.379 90.8559 127.384 90.8859 127.395C90.9158 127.407 90.9432 127.424 90.9665 127.445C90.9898 127.467 91.0085 127.494 91.0214 127.523C91.0344 127.552 91.0414 127.584 91.042 127.616C91.0493 127.652 91.0485 127.689 91.0395 127.725C91.0306 127.761 91.0138 127.795 90.9904 127.823C90.9669 127.852 90.9374 127.875 90.904 127.891C90.8705 127.907 90.834 127.915 90.797 127.915C90.76 127.915 90.7235 127.907 90.6901 127.891C90.6566 127.875 90.6271 127.852 90.6037 127.823C90.5802 127.795 90.5635 127.761 90.5545 127.725C90.5456 127.689 90.5447 127.652 90.552 127.616L90.5471 127.621ZM90.6206 128.409H90.9587V130.918H90.6206V128.409Z" fill="#263238"/>
<path d="M93.1638 128.38V128.713H93.1001C92.9809 128.707 92.8618 128.727 92.7513 128.772C92.6409 128.818 92.5418 128.887 92.4612 128.975C92.3807 129.063 92.3206 129.168 92.2853 129.282C92.2501 129.396 92.2405 129.516 92.2573 129.634V130.913H91.9192V128.404H92.2426V128.894C92.3271 128.726 92.4601 128.588 92.6243 128.496C92.7885 128.404 92.9764 128.364 93.1638 128.38Z" fill="#263238"/>
<path d="M93.4431 130.629L93.595 130.364C93.8555 130.549 94.1676 130.647 94.4868 130.644C94.9768 130.644 95.1581 130.482 95.1581 130.237C95.1581 129.581 93.5362 130.095 93.5362 129.105C93.5362 128.699 93.889 128.39 94.5162 128.39C94.8277 128.386 95.1343 128.468 95.4031 128.625L95.2561 128.899C95.0379 128.752 94.7793 128.677 94.5162 128.684C94.0654 128.684 93.8645 128.86 93.8645 129.095C93.8645 129.772 95.4864 129.262 95.4864 130.227C95.4864 130.658 95.1091 130.938 94.4525 130.938C94.0916 130.946 93.7377 130.838 93.4431 130.629Z" fill="#263238"/>
<path d="M97.4413 130.761C97.2916 130.881 97.1039 130.944 96.9121 130.938C96.8136 130.949 96.7139 130.939 96.6201 130.906C96.5264 130.874 96.441 130.821 96.3705 130.752C96.2999 130.682 96.2459 130.597 96.2124 130.504C96.179 130.411 96.1669 130.311 96.1771 130.213V128.698H95.7312V128.409H96.1771V127.89H96.5299V128.434H97.2894V128.723H96.5299V130.217C96.5216 130.277 96.5269 130.338 96.5452 130.395C96.5636 130.453 96.5946 130.505 96.636 130.549C96.6774 130.593 96.7281 130.627 96.7844 130.648C96.8407 130.67 96.9011 130.678 96.9611 130.673C97.0965 130.677 97.2287 130.632 97.3335 130.546L97.4413 130.761Z" fill="#263238"/>
<path d="M101.602 129.463V130.933H101.263V129.512C101.28 129.408 101.272 129.301 101.24 129.2C101.209 129.099 101.155 129.007 101.083 128.93C101.011 128.853 100.922 128.794 100.823 128.756C100.725 128.718 100.619 128.704 100.514 128.713C100.394 128.704 100.274 128.721 100.162 128.763C100.049 128.806 99.9476 128.872 99.8639 128.958C99.7802 129.044 99.7165 129.148 99.6772 129.261C99.6379 129.375 99.6241 129.495 99.6367 129.615V130.933H99.2986V128.424H99.622V128.87C99.7223 128.71 99.8641 128.58 100.032 128.493C100.2 128.407 100.389 128.368 100.577 128.38C100.719 128.373 100.86 128.396 100.992 128.449C101.123 128.502 101.242 128.582 101.339 128.685C101.437 128.788 101.51 128.911 101.556 129.045C101.601 129.18 101.617 129.322 101.602 129.463Z" fill="#263238"/>
<path d="M104.409 129.36V130.913H104.086V130.521C103.992 130.661 103.862 130.772 103.711 130.845C103.559 130.917 103.391 130.948 103.223 130.933C102.66 130.933 102.312 130.639 102.312 130.208C102.312 129.777 102.557 129.497 103.292 129.497H104.086V129.36C104.086 128.929 103.846 128.698 103.38 128.698C103.076 128.693 102.78 128.798 102.547 128.993L102.39 128.743C102.672 128.511 103.025 128.383 103.39 128.38C103.525 128.36 103.663 128.371 103.793 128.412C103.924 128.454 104.042 128.524 104.141 128.619C104.239 128.714 104.315 128.83 104.361 128.958C104.408 129.087 104.424 129.224 104.409 129.36ZM104.071 130.159V129.747H103.287C102.797 129.747 102.645 129.938 102.645 130.198C102.645 130.458 102.876 130.688 103.277 130.688C103.448 130.697 103.618 130.651 103.761 130.557C103.904 130.462 104.013 130.325 104.071 130.164V130.159Z" fill="#263238"/>
<path d="M109.461 129.463V130.933H109.123V129.512C109.123 128.983 108.858 128.713 108.403 128.713C108.286 128.707 108.169 128.727 108.06 128.771C107.951 128.815 107.854 128.883 107.774 128.969C107.694 129.055 107.634 129.157 107.598 129.269C107.562 129.38 107.55 129.498 107.565 129.615V130.933H107.227V129.512C107.227 128.983 106.962 128.713 106.506 128.713C106.389 128.707 106.272 128.727 106.164 128.771C106.055 128.815 105.957 128.883 105.877 128.969C105.798 129.055 105.738 129.157 105.701 129.269C105.665 129.38 105.654 129.498 105.669 129.615V130.933H105.35V128.424H105.673V128.87C105.767 128.713 105.902 128.584 106.063 128.497C106.225 128.411 106.407 128.37 106.59 128.38C106.775 128.365 106.96 128.408 107.12 128.503C107.28 128.597 107.406 128.739 107.482 128.909C107.582 128.741 107.727 128.603 107.899 128.51C108.072 128.417 108.266 128.372 108.462 128.38C108.603 128.37 108.744 128.393 108.875 128.445C109.007 128.497 109.125 128.578 109.221 128.682C109.317 128.786 109.388 128.91 109.43 129.045C109.471 129.18 109.482 129.323 109.461 129.463Z" fill="#263238"/>
<path d="M112.568 129.767H110.475C110.482 129.888 110.513 130.008 110.566 130.117C110.619 130.227 110.693 130.325 110.784 130.406C110.875 130.487 110.981 130.55 111.097 130.589C111.212 130.629 111.334 130.646 111.455 130.639C111.599 130.644 111.742 130.617 111.874 130.56C112.006 130.503 112.124 130.418 112.22 130.311L112.411 130.531C112.231 130.719 112 130.85 111.746 130.907C111.492 130.965 111.227 130.946 110.984 130.853C110.741 130.761 110.53 130.599 110.379 130.387C110.227 130.175 110.142 129.924 110.132 129.664C110.132 129.339 110.261 129.027 110.491 128.798C110.721 128.568 111.032 128.439 111.357 128.439C111.682 128.439 111.994 128.568 112.224 128.798C112.453 129.027 112.582 129.339 112.582 129.664C112.573 129.693 112.568 129.732 112.568 129.767ZM110.475 129.517H112.249C112.239 129.289 112.14 129.074 111.973 128.918C111.806 128.763 111.585 128.678 111.357 128.684C111.13 128.679 110.91 128.763 110.745 128.919C110.58 129.075 110.483 129.29 110.475 129.517Z" fill="#263238"/>
<path d="M90.5667 152.39V152.694H88.2V149.362H90.4883V149.666H88.5283V150.851H90.2531V151.15H88.5283V152.39H90.5667Z" fill="#263238"/>
<path d="M95.452 151.258V152.728H95.1139V151.307C95.1139 150.778 94.8493 150.508 94.3936 150.508C94.276 150.502 94.1585 150.522 94.0494 150.567C93.9403 150.611 93.8424 150.679 93.7624 150.765C93.6825 150.852 93.6225 150.955 93.5868 151.067C93.5511 151.179 93.5405 151.298 93.5557 151.415V152.728H93.2176V151.307C93.2176 150.778 92.953 150.508 92.4973 150.508C92.3799 150.503 92.2628 150.524 92.1541 150.568C92.0455 150.613 91.9479 150.681 91.8681 150.767C91.7884 150.854 91.7284 150.956 91.6923 151.068C91.6563 151.18 91.645 151.298 91.6594 151.415V152.728H91.3213V150.224H91.63V150.68C91.7243 150.523 91.8593 150.395 92.0206 150.309C92.1819 150.222 92.3636 150.181 92.5463 150.19C92.7314 150.175 92.9167 150.218 93.0764 150.313C93.2362 150.407 93.3626 150.549 93.4381 150.719C93.539 150.551 93.6832 150.413 93.8556 150.32C94.028 150.227 94.2223 150.182 94.4181 150.19C94.5607 150.174 94.705 150.191 94.8399 150.24C94.9749 150.289 95.0969 150.368 95.1967 150.471C95.2964 150.574 95.3713 150.698 95.4156 150.835C95.4598 150.971 95.4723 151.116 95.452 151.258Z" fill="#263238"/>
<path d="M98.2598 151.16V152.713H97.9364V152.321C97.8431 152.462 97.7139 152.574 97.5622 152.648C97.4105 152.721 97.2419 152.752 97.074 152.738C96.5056 152.738 96.1577 152.444 96.1577 152.008C96.1577 151.572 96.4076 151.297 97.1377 151.297H97.9315V151.145C97.9315 150.719 97.6865 150.484 97.221 150.484C96.9172 150.479 96.6217 150.584 96.388 150.778L96.2361 150.528C96.5257 150.299 96.8864 150.18 97.2553 150.19C97.3884 150.172 97.5238 150.185 97.6513 150.227C97.7788 150.269 97.8952 150.339 97.9917 150.433C98.0883 150.526 98.1626 150.64 98.209 150.766C98.2554 150.892 98.2728 151.026 98.2598 151.16ZM97.9217 151.959V151.552H97.1377C96.6477 151.552 96.4909 151.743 96.4909 151.998C96.4909 152.253 96.7261 152.488 97.1279 152.488C97.2994 152.496 97.469 152.449 97.6118 152.354C97.7547 152.259 97.8633 152.12 97.9217 151.959Z" fill="#263238"/>
<path d="M99.1026 149.416C99.1139 149.359 99.1446 149.308 99.1892 149.272C99.2339 149.235 99.2898 149.215 99.3476 149.215C99.4053 149.215 99.4612 149.235 99.5059 149.272C99.5506 149.308 99.5812 149.359 99.5926 149.416C99.5998 149.452 99.599 149.489 99.5901 149.525C99.5811 149.561 99.5643 149.595 99.5409 149.623C99.5175 149.652 99.4879 149.675 99.4545 149.691C99.4211 149.707 99.3846 149.715 99.3476 149.715C99.3106 149.715 99.274 149.707 99.2406 149.691C99.2072 149.675 99.1777 149.652 99.1542 149.623C99.1308 149.595 99.114 149.561 99.1051 149.525C99.0961 149.489 99.0953 149.452 99.1026 149.416ZM99.1761 150.21H99.5142V152.713H99.1761V150.21Z" fill="#263238"/>
<path d="M100.45 149.181H100.788V152.713H100.45V149.181Z" fill="#263238"/>
<path d="M89.1801 171.368C89.1801 172.078 88.6901 172.504 87.8179 172.504H86.9212V173.558H86.5684V170.226H87.8179C88.6558 170.226 89.1801 170.652 89.1801 171.368ZM88.8273 171.368C88.8273 170.834 88.4745 170.53 87.8081 170.53H86.9212V172.196H87.8081C88.4647 172.196 88.8175 171.892 88.8175 171.368H88.8273Z" fill="#263238"/>
<path d="M91.7281 171.99V173.543H91.3998V173.151C91.3076 173.292 91.1793 173.404 91.0284 173.478C90.8774 173.551 90.7095 173.582 90.5423 173.568C89.9739 173.568 89.626 173.274 89.626 172.838C89.626 172.402 89.871 172.127 90.606 172.127H91.4047V171.99C91.4047 171.564 91.1597 171.329 90.6942 171.329C90.3896 171.325 90.094 171.431 89.8612 171.627L89.7093 171.373C89.9988 171.144 90.3596 171.024 90.7285 171.035C90.8599 171.018 90.9933 171.031 91.119 171.073C91.2447 171.114 91.3596 171.183 91.4553 171.275C91.551 171.366 91.6251 171.478 91.6723 171.602C91.7195 171.725 91.7386 171.858 91.7281 171.99ZM91.39 172.794V172.382H90.6011C90.1111 172.382 89.9592 172.573 89.9592 172.828C89.9592 173.083 90.1944 173.318 90.5913 173.318C90.7611 173.328 90.9297 173.284 91.0731 173.192C91.2165 173.101 91.3274 172.966 91.39 172.808V172.794Z" fill="#263238"/>
<path d="M92.2964 173.274L92.4483 173.004C92.7084 173.19 93.0204 173.29 93.3401 173.289C93.8301 173.289 94.0114 173.127 94.0114 172.877C94.0114 172.225 92.3846 172.74 92.3846 171.75C92.3846 171.338 92.7374 171.034 93.3646 171.034C93.6765 171.028 93.9839 171.109 94.2515 171.27L94.1045 171.539C93.8855 171.394 93.6274 171.319 93.3646 171.324C92.9138 171.324 92.7129 171.5 92.7129 171.74C92.7129 172.416 94.3397 171.907 94.3397 172.867C94.3397 173.303 93.9575 173.583 93.3058 173.583C92.9448 173.591 92.5907 173.483 92.2964 173.274Z" fill="#263238"/>
<path d="M94.624 173.274L94.7759 173.004C95.036 173.19 95.348 173.29 95.6677 173.288C96.1577 173.288 96.339 173.127 96.339 172.877C96.339 172.225 94.7122 172.74 94.7122 171.75C94.7122 171.338 95.065 171.034 95.6922 171.034C96.004 171.028 96.3113 171.11 96.5791 171.27L96.4321 171.539C96.2131 171.394 95.955 171.319 95.6922 171.324C95.2414 171.324 95.0405 171.5 95.0405 171.74C95.0405 172.416 96.6673 171.907 96.6673 172.867C96.6673 173.303 96.2851 173.582 95.6334 173.582C95.2724 173.591 94.9183 173.483 94.624 173.274Z" fill="#263238"/>
<path d="M100.94 171.054L99.96 173.558H99.6415L98.8673 171.5L98.0784 173.553H97.7599L96.8142 171.049H97.1425L97.9265 173.176L98.7301 171.049H99.0241L99.8228 173.176L100.617 171.049L100.94 171.054Z" fill="#263238"/>
<path d="M101.112 172.304C101.113 172.052 101.188 171.806 101.329 171.597C101.469 171.388 101.669 171.226 101.901 171.13C102.134 171.034 102.39 171.01 102.637 171.06C102.884 171.109 103.11 171.231 103.288 171.409C103.466 171.588 103.587 171.815 103.635 172.062C103.684 172.309 103.659 172.565 103.562 172.797C103.466 173.03 103.302 173.228 103.093 173.368C102.883 173.508 102.637 173.583 102.386 173.583C102.216 173.589 102.047 173.56 101.89 173.498C101.732 173.436 101.589 173.342 101.469 173.221C101.35 173.101 101.256 172.958 101.194 172.8C101.133 172.642 101.105 172.473 101.112 172.304ZM103.317 172.304C103.307 172.122 103.244 171.947 103.136 171.8C103.028 171.654 102.88 171.542 102.709 171.479C102.538 171.416 102.353 171.405 102.176 171.446C101.999 171.487 101.837 171.579 101.712 171.711C101.587 171.843 101.503 172.009 101.471 172.188C101.438 172.367 101.459 172.552 101.531 172.719C101.603 172.887 101.722 173.029 101.874 173.129C102.026 173.23 102.204 173.283 102.386 173.284C102.513 173.286 102.639 173.262 102.756 173.213C102.873 173.164 102.979 173.091 103.067 172.999C103.154 172.906 103.222 172.797 103.265 172.677C103.308 172.558 103.325 172.43 103.317 172.304Z" fill="#263238"/>
<path d="M105.61 171.034V171.363H105.527C105.407 171.356 105.287 171.377 105.176 171.422C105.066 171.468 104.966 171.537 104.885 171.626C104.805 171.715 104.745 171.82 104.71 171.935C104.675 172.049 104.666 172.17 104.684 172.289V173.563H104.37V171.059H104.694V171.549C104.778 171.382 104.911 171.244 105.074 171.153C105.237 171.061 105.423 171.02 105.61 171.034Z" fill="#263238"/>
<path d="M108.476 170.03V173.563H108.153V173.073C108.052 173.24 107.907 173.377 107.735 173.468C107.562 173.56 107.368 173.603 107.173 173.592C106.835 173.592 106.511 173.458 106.272 173.219C106.033 172.98 105.899 172.656 105.899 172.318C105.899 171.98 106.033 171.656 106.272 171.417C106.511 171.179 106.835 171.044 107.173 171.044C107.36 171.037 107.546 171.078 107.713 171.164C107.88 171.25 108.021 171.377 108.124 171.534V170.03H108.476ZM108.143 172.308C108.134 172.127 108.071 171.951 107.963 171.805C107.854 171.658 107.706 171.547 107.535 171.484C107.364 171.421 107.178 171.41 107.001 171.451C106.823 171.493 106.662 171.586 106.537 171.718C106.412 171.85 106.328 172.017 106.297 172.196C106.265 172.376 106.287 172.56 106.359 172.728C106.432 172.895 106.551 173.037 106.704 173.137C106.856 173.236 107.035 173.289 107.217 173.288C107.344 173.29 107.47 173.265 107.587 173.216C107.704 173.166 107.81 173.093 107.897 173C107.984 172.907 108.051 172.798 108.093 172.678C108.136 172.558 108.153 172.43 108.143 172.304V172.308Z" fill="#263238"/>
<path d="M144.06 128.052H144.408V131.085H146.28V131.389H144.06V128.052Z" fill="#263238"/>
<path d="M148.666 129.85V131.403H148.343V131.011C148.249 131.152 148.12 131.264 147.968 131.337C147.817 131.411 147.648 131.442 147.48 131.428C146.912 131.428 146.564 131.129 146.564 130.698C146.564 130.267 146.814 129.987 147.544 129.987H148.338V129.835C148.338 129.409 148.093 129.174 147.627 129.174C147.323 129.169 147.028 129.274 146.794 129.468L146.642 129.218C146.932 128.989 147.293 128.869 147.662 128.88C147.795 128.862 147.93 128.875 148.058 128.917C148.185 128.959 148.301 129.029 148.398 129.122C148.495 129.216 148.569 129.33 148.615 129.456C148.662 129.582 148.679 129.716 148.666 129.85ZM148.328 130.649V130.242H147.544C147.054 130.242 146.897 130.433 146.897 130.688C146.897 130.943 147.132 131.178 147.534 131.178C147.707 131.185 147.878 131.136 148.021 131.038C148.165 130.94 148.272 130.798 148.328 130.634V130.649Z" fill="#263238"/>
<path d="M149.234 131.104L149.386 130.835C149.647 131.019 149.959 131.117 150.278 131.114C150.768 131.114 150.949 130.952 150.949 130.707C150.949 130.056 149.327 130.57 149.327 129.576C149.327 129.169 149.675 128.865 150.307 128.865C150.617 128.859 150.922 128.939 151.189 129.095L151.042 129.37C150.825 129.225 150.569 129.149 150.307 129.154C149.852 129.154 149.656 129.331 149.656 129.571C149.656 130.247 151.278 129.732 151.278 130.698C151.278 131.129 150.895 131.413 150.244 131.413C149.883 131.419 149.53 131.311 149.234 131.104Z" fill="#263238"/>
<path d="M153.228 131.237C153.078 131.356 152.89 131.419 152.699 131.413C152.6 131.424 152.5 131.413 152.407 131.38C152.313 131.347 152.228 131.293 152.158 131.223C152.088 131.153 152.035 131.068 152.002 130.975C151.969 130.881 151.958 130.782 151.969 130.683V129.169H151.518V128.87H151.969V128.321H152.307V128.87H153.066V129.154H152.307V130.649C152.298 130.708 152.304 130.769 152.322 130.826C152.34 130.884 152.371 130.936 152.413 130.98C152.454 131.024 152.505 131.058 152.561 131.079C152.618 131.101 152.678 131.109 152.738 131.104C152.873 131.109 153.006 131.064 153.11 130.977L153.228 131.237Z" fill="#263238"/>
<path d="M157.393 129.933V131.403H157.055V129.982C157.071 129.878 157.063 129.77 157.031 129.669C157 129.568 156.946 129.475 156.873 129.398C156.8 129.321 156.711 129.262 156.611 129.225C156.512 129.187 156.406 129.173 156.3 129.184C156.18 129.175 156.06 129.193 155.948 129.236C155.836 129.279 155.735 129.346 155.652 129.432C155.568 129.519 155.505 129.623 155.466 129.736C155.428 129.85 155.415 129.971 155.428 130.09V131.403H155.09V128.87H155.413V129.36C155.514 129.201 155.655 129.072 155.822 128.985C155.989 128.899 156.176 128.859 156.364 128.87C156.504 128.862 156.644 128.885 156.775 128.936C156.905 128.988 157.023 129.066 157.121 129.167C157.218 129.268 157.293 129.388 157.34 129.521C157.387 129.653 157.405 129.794 157.393 129.933Z" fill="#263238"/>
<path d="M160.201 129.85V131.403H159.877V131.011C159.784 131.152 159.655 131.265 159.503 131.338C159.352 131.412 159.183 131.442 159.015 131.428C158.447 131.428 158.099 131.129 158.099 130.698C158.099 130.267 158.349 129.987 159.079 129.987H159.872V129.835C159.872 129.409 159.627 129.174 159.162 129.174C158.858 129.169 158.563 129.274 158.329 129.468L158.177 129.218C158.467 128.99 158.827 128.87 159.196 128.88C159.329 128.862 159.465 128.875 159.592 128.917C159.72 128.959 159.836 129.029 159.933 129.122C160.029 129.216 160.103 129.33 160.15 129.456C160.196 129.582 160.214 129.716 160.201 129.85ZM159.863 130.649V130.242H159.079C158.589 130.242 158.432 130.433 158.432 130.688C158.432 130.943 158.667 131.178 159.069 131.178C159.242 131.185 159.413 131.136 159.556 131.038C159.699 130.94 159.807 130.798 159.863 130.634V130.649Z" fill="#263238"/>
<path d="M165.253 129.933V131.403H164.914V129.982C164.914 129.453 164.65 129.184 164.194 129.184C164.077 129.178 163.959 129.198 163.85 129.242C163.741 129.286 163.643 129.354 163.563 129.441C163.483 129.527 163.423 129.63 163.387 129.742C163.352 129.855 163.341 129.973 163.356 130.09V131.403H163.018V129.982C163.018 129.453 162.754 129.184 162.293 129.184C162.176 129.178 162.058 129.199 161.95 129.244C161.841 129.288 161.744 129.356 161.664 129.443C161.584 129.529 161.524 129.631 161.488 129.743C161.452 129.855 161.441 129.973 161.455 130.09V131.403H161.117V128.87H161.44V129.36C161.535 129.203 161.671 129.074 161.833 128.987C161.995 128.901 162.178 128.861 162.362 128.87C162.547 128.856 162.732 128.899 162.891 128.994C163.051 129.088 163.177 129.23 163.253 129.399C163.353 129.23 163.497 129.092 163.67 128.999C163.843 128.906 164.037 128.861 164.233 128.87C164.374 128.858 164.516 128.877 164.648 128.927C164.78 128.977 164.9 129.056 164.997 129.158C165.095 129.26 165.169 129.382 165.213 129.517C165.257 129.651 165.271 129.793 165.253 129.933Z" fill="#263238"/>
<path d="M168.359 130.242H166.262C166.278 130.486 166.39 130.715 166.574 130.877C166.757 131.039 166.997 131.123 167.242 131.109C167.386 131.115 167.53 131.088 167.663 131.031C167.796 130.975 167.915 130.889 168.011 130.781L168.202 131.002C168.023 131.191 167.791 131.324 167.537 131.382C167.282 131.44 167.016 131.422 166.772 131.329C166.527 131.236 166.316 131.073 166.164 130.861C166.013 130.648 165.927 130.395 165.919 130.134C165.91 129.969 165.936 129.804 165.993 129.649C166.051 129.494 166.14 129.352 166.255 129.233C166.37 129.114 166.508 129.02 166.661 128.957C166.814 128.893 166.978 128.862 167.144 128.865C167.309 128.862 167.473 128.893 167.625 128.957C167.778 129.02 167.915 129.114 168.029 129.234C168.144 129.353 168.232 129.494 168.289 129.649C168.345 129.804 168.369 129.969 168.359 130.134C168.364 130.164 168.359 130.203 168.359 130.242ZM166.262 129.987H168.041C168.024 129.763 167.923 129.553 167.758 129.4C167.593 129.247 167.376 129.161 167.151 129.161C166.926 129.161 166.709 129.247 166.545 129.4C166.38 129.553 166.279 129.763 166.262 129.987Z" fill="#263238"/>
<path d="M81.3401 169.746C81.3167 169.641 81.302 169.534 81.296 169.427C81.299 169.168 81.2385 168.913 81.1196 168.682C81.0262 168.518 80.8964 168.377 80.7402 168.27C80.584 168.163 80.4054 168.093 80.218 168.065C79.9918 168.035 79.7617 168.069 79.5543 168.165C79.347 168.26 79.1711 168.413 79.0469 168.604C78.9389 168.768 78.8748 168.957 78.8607 169.153C78.8607 169.359 78.8607 169.555 78.8607 169.751L78.7431 169.628C79.6167 169.623 80.49 169.663 81.3597 169.746C80.4909 169.842 79.617 169.882 78.7431 169.868H78.6206V169.746C78.6206 169.55 78.6206 169.359 78.6206 169.133C78.6339 168.896 78.71 168.666 78.8411 168.467C78.9904 168.234 79.2046 168.051 79.4571 167.938C79.7096 167.826 79.9894 167.79 80.2621 167.835C80.4817 167.87 80.6895 167.958 80.8678 168.091C81.0461 168.225 81.1897 168.399 81.2862 168.599C81.4123 168.866 81.4517 169.166 81.3989 169.457C81.3793 169.667 81.3401 169.761 81.3401 169.746Z" fill="#92E3A9"/>
<path d="M80.4924 172.931C80.4004 172.746 80.3218 172.554 80.2572 172.357V172.304L80.3111 172.264C80.3891 172.203 80.4421 172.116 80.4601 172.018C80.4782 171.921 80.46 171.82 80.4091 171.735C80.3835 171.682 80.3458 171.636 80.2989 171.6C80.2521 171.564 80.1975 171.539 80.1395 171.528C80.0815 171.517 80.0217 171.52 79.965 171.536C79.9082 171.552 79.8561 171.582 79.8127 171.622C79.7694 171.662 79.7361 171.712 79.7155 171.767C79.6949 171.822 79.6876 171.882 79.6941 171.941C79.7006 171.999 79.7208 172.056 79.7531 172.105C79.7854 172.154 79.8288 172.196 79.8799 172.225L79.9583 172.269L79.9338 172.353L79.7868 172.936L79.6937 172.818C79.9666 172.831 80.2383 172.862 80.5071 172.911C80.2428 172.986 79.9683 173.02 79.6937 173.009H79.5761V172.882C79.6153 172.686 79.6496 172.49 79.6839 172.289L79.7378 172.416C79.6598 172.369 79.5934 172.304 79.5432 172.228C79.4931 172.152 79.4605 172.065 79.4478 171.975C79.4352 171.884 79.4428 171.792 79.47 171.705C79.4973 171.618 79.5436 171.538 79.6055 171.471C79.6734 171.395 79.7594 171.338 79.8553 171.305C79.9513 171.271 80.0541 171.263 80.1543 171.279C80.2463 171.294 80.3338 171.33 80.4102 171.383C80.4866 171.437 80.5499 171.507 80.5953 171.588C80.6692 171.721 80.6885 171.878 80.6492 172.025C80.6099 172.172 80.515 172.298 80.3846 172.377L80.4238 172.284C80.4868 172.493 80.51 172.713 80.4924 172.931Z" fill="#92E3A9"/>
<path d="M81.7076 169.751C81.7788 169.737 81.8521 169.737 81.9232 169.751C82.1011 169.804 82.26 169.908 82.3814 170.048C82.5029 170.189 82.5819 170.361 82.6092 170.544C82.6092 170.716 82.6092 170.883 82.6092 171.074C82.6092 171.461 82.6092 171.887 82.6092 172.357C82.6092 172.598 82.6092 172.847 82.6092 173.102C82.6279 173.382 82.618 173.663 82.5798 173.94C82.5369 174.096 82.4583 174.239 82.3503 174.359C82.2423 174.479 82.1078 174.572 81.9575 174.631C81.8021 174.693 81.6347 174.72 81.4675 174.709H80.9775H79.0175H78.4981C78.3476 174.717 78.1972 174.692 78.0569 174.637C77.9167 174.582 77.7897 174.497 77.6845 174.389C77.5794 174.282 77.4983 174.152 77.4468 174.011C77.3953 173.869 77.3745 173.718 77.3858 173.568C77.3858 172.813 77.3858 172.098 77.3858 171.363V170.838C77.3707 170.651 77.394 170.463 77.4544 170.285C77.5207 170.109 77.6329 169.954 77.7794 169.836C77.9259 169.717 78.1013 169.641 78.2874 169.613L78.1894 169.726C78.1894 169.491 78.1894 169.28 78.1894 169.04C78.2121 168.81 78.2804 168.587 78.3903 168.384C78.6214 167.993 78.993 167.706 79.4291 167.58C79.7578 167.461 80.1147 167.444 80.4531 167.532C80.7914 167.619 81.0955 167.807 81.3254 168.07C81.4744 168.235 81.5889 168.427 81.6621 168.637C81.7353 168.846 81.7658 169.069 81.7517 169.29C81.7472 169.444 81.7325 169.598 81.7076 169.751C81.6834 169.6 81.6736 169.447 81.6782 169.295C81.6759 168.873 81.513 168.469 81.2225 168.163C81.0492 167.981 80.835 167.842 80.5976 167.759C80.3602 167.675 80.1063 167.649 79.857 167.683C79.6077 167.717 79.37 167.81 79.1635 167.954C78.9571 168.098 78.7878 168.289 78.6696 168.511C78.5752 168.691 78.517 168.887 78.4981 169.089C78.4981 169.29 78.4981 169.535 78.4981 169.761V169.858H78.4001C78.2563 169.881 78.1212 169.942 78.0084 170.034C77.8956 170.126 77.8093 170.246 77.7582 170.383C77.7106 170.541 77.6939 170.708 77.7092 170.873V171.397C77.7092 172.108 77.7092 172.867 77.7092 173.602C77.6955 173.76 77.7275 173.918 77.8014 174.058C77.8752 174.198 77.9878 174.313 78.1257 174.391C78.2616 174.462 78.4134 174.498 78.5667 174.494H81.0559C81.3475 174.522 81.6415 174.505 81.9281 174.445C82.0464 174.399 82.1523 174.325 82.2374 174.231C82.3224 174.136 82.3843 174.023 82.4181 173.901C82.4539 173.643 82.467 173.382 82.4573 173.122C82.4573 172.867 82.4573 172.632 82.4573 172.377C82.4573 171.887 82.4573 171.48 82.4573 171.093C82.4573 170.907 82.4573 170.721 82.4573 170.574C82.4447 170.436 82.3994 170.303 82.325 170.187C82.1768 169.974 81.9582 169.819 81.7076 169.751Z" fill="#92E3A9"/>
<path d="M83.8489 153.453C83.8344 153.328 83.8263 153.202 83.8244 153.076C83.8244 152.811 83.8244 152.468 83.7901 152.052C83.7656 151.15 83.7362 149.911 83.697 148.416L83.7999 148.519L76.3323 148.617L76.4401 148.47V149.127C76.4401 149.347 76.4401 149.568 76.4401 149.788C76.4401 150.224 76.4401 150.655 76.4401 151.077C76.4401 151.915 76.4401 152.728 76.4401 153.492L76.3225 153.38C78.4981 153.38 80.3503 153.38 81.6684 153.38H83.2168C83.4083 153.375 83.5998 153.383 83.7901 153.404C83.618 153.428 83.4444 153.438 83.2707 153.434L81.7468 153.483C80.4336 153.517 78.552 153.561 76.3225 153.591H76.2098V153.473C76.2098 152.704 76.2098 151.895 76.1804 151.052C76.1804 150.631 76.1804 150.2 76.1804 149.764C76.1804 149.548 76.1804 149.327 76.1804 149.107V148.446L76.3078 148.313L83.7754 148.264H83.8783V148.367C83.8783 149.886 83.8783 151.145 83.8783 152.067C83.8783 152.473 83.8783 152.806 83.8783 153.047C83.8869 153.183 83.877 153.32 83.8489 153.453Z" fill="#92E3A9"/>
<path d="M83.79 148.416C83.4767 148.739 83.1301 149.028 82.7561 149.278C82.0995 149.768 81.1832 150.469 80.1591 151.209H79.9876L79.9386 151.175L79.8406 151.106L79.6495 150.974L79.2771 150.714L78.5764 150.224L77.3955 149.372C77.0202 149.124 76.6691 148.842 76.3469 148.529C76.7522 148.723 77.1378 148.956 77.4984 149.225L78.7087 150.033L79.4192 150.523L79.7965 150.783L79.9876 150.915L80.0807 150.979L80.1297 151.013H80.1542H80.017C81.0411 150.273 81.977 149.612 82.663 149.141C83.016 148.866 83.3932 148.623 83.79 148.416Z" fill="#92E3A9"/>
<path d="M76.5283 153.522C76.8362 152.923 77.2199 152.366 77.67 151.866C78.0545 151.31 78.5072 150.805 79.0175 150.361C78.7095 150.963 78.324 151.521 77.8709 152.022C77.488 152.577 77.037 153.08 76.5283 153.522Z" fill="#92E3A9"/>
<path d="M81.4526 150.361C81.947 150.793 82.3835 151.287 82.7511 151.831C83.1863 152.323 83.5553 152.87 83.8487 153.458C83.3539 153.027 82.9174 152.532 82.5502 151.988C82.1142 151.497 81.7451 150.95 81.4526 150.361Z" fill="#92E3A9"/>
<path d="M174.964 186.93H73.206C72.4861 186.93 71.9026 187.514 71.9026 188.234V201.537C71.9026 202.257 72.4861 202.84 73.206 202.84H174.964C175.684 202.84 176.268 202.257 176.268 201.537V188.234C176.268 187.514 175.684 186.93 174.964 186.93Z" fill="#92E3A9"/>
<g opacity="0.3">
<path d="M174.964 186.93H73.206C72.4861 186.93 71.9026 187.514 71.9026 188.234V201.537C71.9026 202.257 72.4861 202.84 73.206 202.84H174.964C175.684 202.84 176.268 202.257 176.268 201.537V188.234C176.268 187.514 175.684 186.93 174.964 186.93Z" fill="black"/>
</g>
<path d="M174.964 184.715H73.206C72.4861 184.715 71.9026 185.299 71.9026 186.019V199.322C71.9026 200.042 72.4861 200.626 73.206 200.626H174.964C175.684 200.626 176.268 200.042 176.268 199.322V186.019C176.268 185.299 175.684 184.715 174.964 184.715Z" fill="#92E3A9"/>
<path d="M115.273 193.011C115.27 192.781 115.314 192.553 115.402 192.341C115.491 192.129 115.621 191.937 115.787 191.778C115.952 191.618 116.148 191.494 116.363 191.413C116.578 191.331 116.807 191.295 117.037 191.306C117.273 191.296 117.509 191.338 117.728 191.428C117.947 191.517 118.144 191.653 118.306 191.825L117.997 192.124C117.82 191.936 117.591 191.806 117.339 191.75C117.087 191.695 116.824 191.716 116.584 191.811C116.344 191.906 116.138 192.071 115.993 192.285C115.848 192.498 115.771 192.75 115.771 193.009C115.771 193.267 115.848 193.519 115.993 193.732C116.138 193.946 116.344 194.111 116.584 194.206C116.824 194.301 117.087 194.323 117.339 194.267C117.591 194.211 117.82 194.081 117.997 193.893L118.306 194.192C118.143 194.366 117.946 194.502 117.726 194.593C117.506 194.683 117.269 194.725 117.032 194.716C116.803 194.726 116.574 194.689 116.359 194.608C116.145 194.526 115.95 194.402 115.785 194.243C115.62 194.083 115.49 193.891 115.402 193.68C115.314 193.468 115.27 193.24 115.273 193.011Z" fill="white"/>
<path d="M121.211 194.677L120.491 193.653H120.285H119.457V194.667H118.967V191.335H120.27C121.133 191.335 121.657 191.771 121.657 192.497C121.668 192.728 121.603 192.957 121.471 193.147C121.339 193.338 121.148 193.479 120.927 193.55L121.716 194.667L121.211 194.677ZM121.211 192.506C121.211 192.016 120.893 191.762 120.285 191.762H119.472V193.261H120.285C120.878 193.261 121.197 192.982 121.197 192.506H121.211Z" fill="white"/>
<path d="M124.862 194.265V194.677H122.441V191.345H124.793V191.762H122.916V192.786H124.592V193.187H122.916V194.265H124.862Z" fill="white"/>
<path d="M127.758 193.844H125.984L125.616 194.677H125.126L126.636 191.345H127.126L128.64 194.677H128.15L127.758 193.844ZM127.591 193.467L126.871 191.83L126.151 193.467H127.591Z" fill="white"/>
<path d="M129.61 191.762H128.468V191.345H131.227V191.762H130.08V194.677H129.59L129.61 191.762Z" fill="white"/>
<path d="M134.162 194.265V194.677H131.741V191.345H134.093V191.762H132.217V192.786H133.888V193.187H132.217V194.265H134.162Z" fill="white"/>
<path d="M109.118 93.3653C122.58 79.9034 122.58 58.0772 109.118 44.6153C95.6561 31.1533 73.8299 31.1533 60.3679 44.6153C46.906 58.0772 46.906 79.9034 60.368 93.3653C73.8299 106.827 95.6561 106.827 109.118 93.3653Z" fill="#E0E0E0"/>
<path d="M104.493 22.3979C103.89 23.1543 103.522 24.0709 103.435 25.0341C103.348 25.9974 103.545 26.9651 104.003 27.8173C104.434 28.5915 105.09 29.2873 105.188 30.1644C105.35 31.5903 103.968 32.8741 104.208 34.2951C104.36 35.2751 105.188 35.9464 105.639 36.8137C105.918 37.3778 106.03 38.0094 105.963 38.6349C105.897 39.2605 105.653 39.8541 105.262 40.3466C104.635 41.111 103.65 41.5961 103.243 42.5026C102.939 43.169 103.013 43.9726 102.753 44.6439C102.522 45.1695 102.158 45.6262 101.698 45.9697C101.238 46.3132 100.696 46.5316 100.127 46.6039C98.981 46.7415 97.82 46.6768 96.6967 46.4128L96.9466 45.1731C96.7341 45.5023 96.4445 45.7748 96.103 45.9669C95.7615 46.159 95.3783 46.265 94.9866 46.2756C94.2019 46.2912 93.4201 46.1753 92.6738 45.9326C92.2083 43.8305 91.7526 41.6108 92.4092 39.5626C93.007 37.7202 94.4182 36.2796 95.5942 34.741C96.8999 33.0328 97.9451 31.1404 98.6959 29.1256C99.2349 27.6801 99.622 26.1856 100.377 24.8136C101.131 23.4416 102.337 22.2558 103.846 21.9667" fill="#263238"/>
<path d="M126.91 51.352L120.089 51.842L120.021 50.0878C119.93 49.2186 120.137 48.3442 120.609 47.6084C120.684 47.4789 120.739 47.3383 120.77 47.1919C120.819 46.6725 120.055 44.0657 119.79 43.1102C119.457 41.9636 120.109 41.356 120.364 41.8264C120.824 42.6839 122.044 46.3638 122.427 46.7264C122.809 47.089 122.588 45.1633 122.588 45.1633C121.99 41.111 121.731 40.523 122.451 40.3711C123.279 40.1947 124.191 46.2266 124.191 46.2266C124.191 46.2266 124.068 45.3838 124.715 45.2123C125.362 45.0408 125.661 45.8689 125.661 45.8689C125.577 45.4426 126.19 45.3789 126.19 45.3789C127.719 45.5896 126.925 51.4059 126.925 51.4059L120.104 51.8959L116.836 74.7054L113.347 69.3595L104.243 75.8569L112.45 85.6569C113.163 86.5053 114.06 87.1798 115.073 87.629C116.086 88.0782 117.188 88.2903 118.296 88.249C120.106 88.1833 121.827 87.4431 123.12 86.1739C124.413 84.9046 125.184 83.198 125.283 81.389L126.91 51.352Z" fill="#EFCBB8"/>
<path d="M121.574 51.4157C121.544 51.3814 121.907 51.0629 122.392 50.4651C122.674 50.1152 122.929 49.7451 123.157 49.3577C123.292 49.1289 123.417 48.8934 123.529 48.6521C123.667 48.4266 123.747 48.171 123.764 47.9073C123.762 47.8461 123.743 47.7867 123.708 47.7363C123.673 47.6859 123.625 47.6466 123.568 47.6231C123.434 47.6006 123.296 47.623 123.176 47.6868C122.908 47.8128 122.654 47.9655 122.417 48.1425C122.033 48.4324 121.702 48.7853 121.437 49.1862L121.358 49.2989L121.3 49.1813C121.159 48.9286 120.977 48.7016 120.76 48.51C120.76 48.51 121.133 48.5982 121.451 49.1274H121.314C121.565 48.6893 121.898 48.3034 122.294 47.9906C122.542 47.7985 122.81 47.6341 123.093 47.5006C123.267 47.4084 123.469 47.3806 123.661 47.4222C123.765 47.4587 123.855 47.5244 123.922 47.6114C123.989 47.6983 124.03 47.8028 124.039 47.9122C124.03 48.2274 123.938 48.5349 123.774 48.804C123.655 49.0478 123.522 49.285 123.377 49.5145C123.135 49.9079 122.858 50.2785 122.549 50.6219C122.269 50.9378 121.94 51.2059 121.574 51.4157Z" fill="#DFA991"/>
<path d="M124.274 46.55C124.315 46.9671 124.315 47.3873 124.274 47.8044C124.274 48.216 124.23 48.6717 124.2 49.1568C124.181 49.4145 124.181 49.6733 124.2 49.931C124.2 50.1711 124.431 50.3769 124.602 50.2789C124.774 50.1809 124.872 49.8869 124.945 49.6272C125.019 49.3675 125.078 49.1078 125.131 48.8579C125.239 48.3679 125.318 47.9073 125.391 47.53C125.439 47.1134 125.536 46.7039 125.68 46.3099C125.68 46.7289 125.642 47.147 125.568 47.5594C125.519 47.9416 125.46 48.3973 125.362 48.9069C125.318 49.1568 125.259 49.4214 125.185 49.6958C125.162 49.8571 125.106 50.0122 125.022 50.1519C124.938 50.2916 124.827 50.413 124.695 50.5092C124.606 50.5501 124.506 50.5631 124.409 50.5465C124.312 50.5299 124.222 50.4844 124.151 50.4161C124.026 50.2977 123.949 50.1371 123.936 49.9653C123.92 49.6906 123.93 49.415 123.965 49.1421C124.014 48.6586 124.058 48.2078 124.098 47.7897C124.113 47.3714 124.172 46.956 124.274 46.55Z" fill="#DFA991"/>
<path d="M125.44 48.2895C125.479 48.2895 125.381 48.5737 125.411 49.0147C125.419 49.2579 125.492 49.4945 125.621 49.7007C125.705 49.784 125.763 49.7889 125.842 49.7007C125.93 49.5676 126.005 49.4265 126.067 49.2793C126.378 48.5062 126.623 47.7078 126.797 46.893C126.874 47.754 126.704 48.619 126.307 49.3871C126.237 49.5585 126.15 49.7226 126.048 49.8771C126.012 49.9236 125.966 49.9614 125.913 49.9877C125.86 50.014 125.803 50.0281 125.744 50.029C125.688 50.0269 125.633 50.0126 125.583 49.9872C125.533 49.9619 125.489 49.926 125.455 49.882C125.357 49.7515 125.294 49.5979 125.273 49.4361C125.248 49.307 125.237 49.1756 125.239 49.0441C125.224 48.5345 125.396 48.2748 125.44 48.2895Z" fill="#DFA991"/>
<path d="M96.7162 91.1694L97.3532 101.087C77.9541 108.52 63.5432 96.187 63.5432 96.187L66.444 87.3131L66.934 71.8193L63.21 75.95L61.4509 74.48L52.577 67.0908L50.6709 65.4983L59.8976 55.762C71.5645 43.2033 80.6442 47.04 80.6442 47.04L94.2858 48.3189C94.2858 48.3189 103.723 49.6566 108.29 57.9278C112.009 64.6604 116.057 71.7899 116.057 71.7899L104.365 80.1199L100.646 73.2893L96.7162 91.1694Z" fill="#455A64"/>
<path d="M50.2742 68.8597C50.2742 69.4428 50.2742 70.021 50.3085 70.609C50.389 72.9097 50.7009 75.1965 51.2395 77.4347V77.4984C51.3081 77.7777 51.3865 78.0521 51.4649 78.3265C51.7687 79.4045 52.1705 80.3551 52.5527 81.3988C52.6017 81.5311 52.6507 81.6585 52.7046 81.7908C53.9394 81.4674 57.2175 78.3608 61.2208 74.3085L52.3371 66.8997C51.1954 68.1443 50.6564 68.7127 50.2742 68.8597Z" fill="#EFCBB8"/>
<path d="M93.0461 49.6076C93.5361 46.2266 94.0898 42.679 94.0898 42.679C94.0898 42.679 98.5439 42.5565 100.23 36.9999C101.837 31.6981 102.68 19.061 102.68 19.061C99.7601 17.3931 96.4005 16.6579 93.0513 16.9539C89.7021 17.2499 86.5235 18.5631 83.9419 20.7172L80.5119 48.2307C80.115 51.4206 82.5454 54.3067 85.9705 54.7085C89.425 55.1103 92.61 52.8269 93.0461 49.6076Z" fill="#EFCBB8"/>
<path d="M99.7101 28.6111C99.6855 28.8014 99.588 28.9747 99.4381 29.0945C99.2881 29.2143 99.0975 29.2711 98.9065 29.253C98.8124 29.2475 98.7204 29.2231 98.6359 29.1814C98.5514 29.1398 98.4761 29.0816 98.4145 29.0103C98.3528 28.9391 98.3061 28.8562 98.277 28.7666C98.2478 28.677 98.237 28.5825 98.245 28.4886C98.2707 28.2992 98.3687 28.1271 98.5185 28.0083C98.6683 27.8896 98.8583 27.8334 99.0486 27.8516C99.1422 27.8572 99.2338 27.8813 99.3179 27.9227C99.4021 27.9641 99.4771 28.0218 99.5387 28.0925C99.6003 28.1632 99.6472 28.2455 99.6766 28.3346C99.706 28.4236 99.7174 28.5176 99.7101 28.6111Z" fill="#263238"/>
<path d="M101.004 27.9594C100.901 28.0427 100.406 27.5576 99.622 27.4694C98.838 27.3812 98.2059 27.6801 98.152 27.5723C98.0981 27.4645 98.2304 27.3616 98.5048 27.2146C98.877 27.0273 99.2978 26.9589 99.7102 27.0186C100.119 27.0745 100.5 27.258 100.798 27.5429C100.999 27.7389 101.053 27.93 101.004 27.9594Z" fill="#263238"/>
<path d="M91.6644 27.6458C91.6399 27.8357 91.5422 28.0086 91.3921 28.1276C91.242 28.2465 91.0514 28.3022 90.8608 28.2828C90.767 28.2779 90.6751 28.2541 90.5906 28.213C90.5061 28.1718 90.4308 28.1141 90.3691 28.0432C90.3074 27.9724 90.2605 27.8898 90.2314 27.8005C90.2022 27.7112 90.1913 27.6169 90.1993 27.5233C90.2239 27.333 90.3214 27.1596 90.4714 27.0399C90.6213 26.9201 90.8119 26.8633 91.0029 26.8814C91.0968 26.8876 91.1884 26.9123 91.2726 26.9542C91.3568 26.9961 91.4318 27.0543 91.4934 27.1254C91.5549 27.1965 91.6017 27.2791 91.6311 27.3684C91.6604 27.4578 91.6718 27.552 91.6644 27.6458Z" fill="#263238"/>
<path d="M92.7816 27.1166C92.6787 27.1999 92.1838 26.7148 91.3998 26.6266C90.6158 26.5384 89.9837 26.8324 89.9298 26.7246C89.8759 26.6168 90.0082 26.5188 90.2826 26.3718C90.6549 26.1848 91.0756 26.1164 91.488 26.1758C91.8979 26.228 92.2796 26.412 92.5758 26.7001C92.7718 26.8961 92.8306 27.0823 92.7816 27.1166Z" fill="#263238"/>
<path d="M94.825 33.32C95.2571 33.2474 95.6966 33.2293 96.1333 33.2661C96.3342 33.2661 96.5301 33.2661 96.584 33.1289C96.6262 32.9238 96.6075 32.7109 96.5301 32.5164C96.4076 32.0264 96.2802 31.4678 96.1479 30.9092C95.6236 28.6258 95.2758 26.7589 95.3689 26.7344C95.462 26.7099 95.9617 28.5523 96.4811 30.8357C96.6085 31.3992 96.7262 31.9333 96.8389 32.4478C96.932 32.7059 96.932 32.9884 96.8389 33.2465C96.8002 33.313 96.7471 33.3699 96.6835 33.4132C96.6199 33.4564 96.5474 33.4849 96.4714 33.4964C96.3559 33.5112 96.2389 33.5112 96.1234 33.4964C95.685 33.4911 95.2489 33.4319 94.825 33.32Z" fill="#263238"/>
<path d="M94.08 42.679C91.3919 42.3553 88.8469 41.2898 86.73 39.6018C86.73 39.6018 88.0383 43.757 93.7958 44.0118L94.08 42.679Z" fill="#DFA991"/>
<path d="M96.7898 17.3068C97.1573 18.2035 96.5791 19.2668 95.7608 19.7568C94.8976 20.2042 93.9523 20.471 92.9825 20.5408C92.0115 20.6171 91.0828 20.9709 90.3071 21.56C88.9743 22.7703 89.3271 24.5 87.9796 26.0729C87.6661 26.5149 87.2351 26.8603 86.7354 27.0698C86.2357 27.2794 85.6873 27.3448 85.1523 27.2587C84.0743 27.1068 82.6778 27.3567 82.1339 28.6013C81.59 29.8459 82.2466 30.7622 82.8493 31.9039C83.452 33.0456 83.2903 34.2167 82.9473 35.4662C82.7023 36.3678 81.9281 37.0734 81.7566 37.9946C81.4822 39.4646 82.7366 41.1012 81.8889 42.3066C81.0412 43.512 78.8901 42.9779 77.9444 44.1C77.6014 44.4969 77.4054 45.08 76.9007 45.2368C76.5869 45.2809 76.2672 45.2225 75.9893 45.0702L71.5793 43.2033C71.692 42.7476 71.8096 42.287 71.9272 41.8313C71.6013 42.1656 71.2004 42.4175 70.7578 42.5661C70.3151 42.7147 69.8435 42.7558 69.3818 42.6858C68.9202 42.6159 68.4818 42.4371 68.103 42.164C67.7242 41.891 67.4159 41.5317 67.2036 41.1159C68.1276 40.5792 68.9832 39.9326 69.7516 39.1902C70.5102 38.4345 70.9712 37.4308 71.0501 36.3629C71.0942 35.0693 70.3935 33.761 70.7855 32.5311C71.349 30.772 73.7255 30.331 74.7741 28.8218C75.7541 27.4106 75.4258 25.3624 76.4401 23.9659C77.621 22.3489 80.1151 22.2754 81.4675 20.7956C82.3838 19.8156 82.5945 18.3456 83.2609 17.1549C84.124 15.7552 85.4724 14.7226 87.0486 14.2541C88.6145 13.7972 90.2461 13.6067 91.8751 13.6906C93.098 13.633 94.3163 13.877 95.4227 14.4011C96.486 14.994 97.2896 16.2092 97.0397 17.4048" fill="#263238"/>
<path d="M85.1523 27.2734C84.5624 27.0589 83.9244 27.0131 83.3099 27.1411C83.0028 27.2043 82.7113 27.3279 82.4523 27.5045C82.1932 27.6811 81.9718 27.9073 81.8007 28.1701C81.4871 28.7195 81.3926 29.367 81.5361 29.9831C81.6832 30.5942 81.9644 31.165 82.3593 31.654C82.6123 32.0208 82.948 32.3229 83.3393 32.536C83.5381 32.6432 83.7603 32.6994 83.9861 32.6994C84.2119 32.6994 84.4342 32.6432 84.6329 32.536" fill="#EFCBB8"/>
<path d="M84.3096 30.9092C84.3782 30.9435 84.0597 31.2767 83.5256 31.0464C83.2469 30.9094 83.0312 30.671 82.9229 30.38C82.7996 30.043 82.7447 29.6849 82.7612 29.3265C82.7677 28.945 82.9102 28.5784 83.163 28.2926C83.2698 28.171 83.4031 28.0755 83.5526 28.0135C83.7021 27.9515 83.8638 27.9246 84.0254 27.9349C84.5987 27.9986 84.7212 28.4249 84.6575 28.4249C84.5938 28.4249 84.4125 28.2338 84.0254 28.2681C83.7854 28.3256 83.5738 28.4666 83.4283 28.6659C83.2829 28.8653 83.2131 29.1098 83.2316 29.3559C83.2316 29.9929 83.3737 30.5956 83.6873 30.7867C84.0009 30.9778 84.2802 30.87 84.3096 30.9092Z" fill="#DFA991"/>
<path d="M96.8093 17.64C96.5861 18.2528 96.5812 18.9239 96.7955 19.5398C97.0097 20.1558 97.43 20.679 97.9853 21.021C98.6223 21.3885 99.4063 21.511 99.9453 22.001C100.447 22.5455 100.739 23.2506 100.769 23.9904C100.794 24.7223 100.931 25.4461 101.175 26.1366C101.309 26.4773 101.549 26.7658 101.86 26.9599C102.17 27.154 102.535 27.2432 102.9 27.2146L104.13 23.5837C104.581 22.2509 105.036 20.825 104.713 19.4481C104.252 17.4881 102.312 16.2043 100.372 15.6702C99.4827 15.3544 98.5108 15.3631 97.6276 15.6947C96.7848 16.0916 96.2115 17.1647 96.6476 17.9977" fill="#263238"/>
<path d="M73.157 43.7913C73.157 43.7913 73.2746 43.7031 73.4461 43.4826C73.6792 43.1537 73.8181 42.7674 73.8479 42.3654C73.8695 41.7232 73.8334 41.0803 73.7401 40.4446C73.6981 40.0325 73.7381 39.6162 73.8577 39.2196C73.9979 38.7754 74.2337 38.3673 74.5486 38.024C75.1905 37.2939 76.0872 36.7255 76.8614 35.9464C77.2711 35.5601 77.5762 35.0763 77.7483 34.5401C77.8927 33.961 77.9094 33.3574 77.7973 32.7712C77.7042 32.1538 77.5474 31.5266 77.469 30.8651C77.3706 30.1781 77.4378 29.4775 77.665 28.8218C77.9108 28.1337 78.3276 27.5195 78.8762 27.0369C79.4248 26.5543 80.0872 26.2192 80.801 26.0631C82.2416 25.7446 83.741 25.9406 84.917 25.333C85.4893 25.023 85.9425 24.5318 86.2057 23.9365C86.4582 23.3519 86.6662 22.7492 86.828 22.1333C86.9874 21.5294 87.2299 20.9506 87.5483 20.4134C87.8773 19.9069 88.3523 19.5122 88.9105 19.2815C89.9093 18.945 90.97 18.8329 92.0171 18.9532C92.8624 19.036 93.7155 18.9864 94.5455 18.8062C95.1655 18.6591 95.7375 18.3555 96.2066 17.9242C96.4722 17.6208 96.6427 17.2458 96.6966 16.8462C96.7456 16.5767 96.7456 16.4248 96.7603 16.4297C96.7754 16.5714 96.7754 16.7143 96.7603 16.856C96.7187 17.2765 96.5475 17.6738 96.2703 17.9928C95.7973 18.4541 95.2107 18.7821 94.57 18.9434C93.7278 19.1419 92.8594 19.2047 91.9975 19.1296C90.978 19.0231 89.9476 19.1418 88.9791 19.4775C88.4633 19.6948 88.0258 20.064 87.7247 20.5359C87.4207 21.0571 87.1898 21.6177 87.0387 22.2019C86.876 22.8308 86.6663 23.4467 86.4115 24.0443C86.2673 24.3569 86.0792 24.6473 85.8529 24.9067C85.6146 25.1687 85.3328 25.3875 85.0199 25.5535C83.7165 26.2052 82.222 25.9994 80.8402 26.313C80.1731 26.4652 79.555 26.7828 79.0429 27.2367C78.5308 27.6905 78.1412 28.266 77.91 28.91C77.6935 29.5291 77.628 30.191 77.7189 30.8406C77.7924 31.4825 77.9443 32.1097 78.0374 32.7418C78.1539 33.3612 78.1322 33.9987 77.9737 34.6087C77.7846 35.1704 77.4578 35.6758 77.0231 36.0787C76.2146 36.8774 75.3179 37.4311 74.6907 38.1269C74.4019 38.4302 74.1813 38.7917 74.0435 39.1872C73.9058 39.5827 73.8541 40.003 73.892 40.4201C73.9776 41.0697 73.9989 41.7262 73.9557 42.3801C73.9138 42.7958 73.7559 43.1914 73.5 43.5218C73.4037 43.6325 73.2873 43.7239 73.157 43.7913Z" fill="#455A64"/>
<path d="M99.421 46.6431C99.5029 46.5613 99.5798 46.4746 99.6513 46.3834C99.8323 46.1057 99.934 45.7837 99.9453 45.4524C99.9845 45.0212 99.8718 44.4724 99.9012 43.855C99.9871 43.1304 100.287 42.4479 100.764 41.895C101.219 41.2629 101.827 40.6063 101.989 39.7243C102.15 38.8423 101.773 37.8966 101.587 36.8676C101.478 36.3263 101.5 35.7671 101.65 35.2359C101.833 34.7063 102.088 34.2048 102.41 33.7463C102.724 33.2563 103.071 32.8153 103.341 32.3155C103.635 31.825 103.803 31.2696 103.831 30.6985C103.808 30.1277 103.619 29.576 103.287 29.1109C102.952 28.632 102.68 28.1115 102.479 27.5625C102.145 26.4208 102.405 25.3036 102.479 24.2893C102.532 23.8001 102.522 23.306 102.449 22.8193C102.377 22.3629 102.196 21.9307 101.92 21.56C101.367 20.9255 100.688 20.4132 99.9257 20.0557C99.284 19.7497 98.6735 19.3821 98.1029 18.9581C97.664 18.6357 97.2955 18.2273 97.02 17.7576C96.8497 17.4574 96.7508 17.1221 96.7309 16.7776C96.7218 16.6594 96.73 16.5406 96.7554 16.4248C96.7554 16.4248 96.7554 16.5473 96.7848 16.7727C96.8227 17.1031 96.9332 17.421 97.1082 17.7037C97.3874 18.1481 97.7502 18.5341 98.1764 18.8405C98.7485 19.2471 99.3571 19.5997 99.9943 19.894C100.79 20.2509 101.5 20.7738 102.077 21.4277C102.381 21.8182 102.585 22.2776 102.67 22.7654C102.751 23.2742 102.765 23.7914 102.714 24.304C102.645 25.3379 102.405 26.4355 102.714 27.4841C102.911 28.0057 103.174 28.4997 103.498 28.9541C103.858 29.4573 104.06 30.0557 104.081 30.674C104.053 31.2883 103.873 31.8861 103.557 32.4135C103.272 32.9329 102.924 33.3935 102.616 33.8835C102.3 34.3256 102.049 34.8108 101.871 35.3241C101.726 35.8175 101.703 36.3386 101.802 36.8431C101.969 37.8231 102.366 38.8031 102.18 39.7831C102.085 40.2321 101.9 40.6572 101.636 41.0326C101.391 41.3952 101.146 41.7137 100.896 42.0126C100.434 42.5311 100.132 43.173 100.029 43.8599C99.9845 44.4675 100.082 45.0114 100.029 45.4573C100.005 45.8016 99.8826 46.1317 99.6758 46.4079C99.6105 46.5053 99.5232 46.5858 99.421 46.6431Z" fill="#455A64"/>
<path d="M68.1541 41.4932C68.1541 41.4932 68.3158 41.4932 68.6196 41.5275C69.0636 41.5369 69.5046 41.4517 69.9132 41.2776C70.5678 41.0105 71.1322 40.5616 71.54 39.984C72.0596 39.2125 72.3625 38.3156 72.4171 37.387C72.5347 36.358 72.275 35.2408 72.2456 33.9913C72.2115 33.3364 72.3554 32.6845 72.6621 32.1048C73.0693 31.5453 73.5989 31.0861 74.2105 30.7622C74.82 30.445 75.3164 29.9469 75.6315 29.3363C75.8563 28.6487 75.9623 27.9279 75.9451 27.2048C75.9529 26.4249 76.1024 25.6528 76.3861 24.9263C76.5401 24.5492 76.7646 24.205 77.0476 23.912C77.3644 23.6316 77.756 23.4494 78.1746 23.3877C78.988 23.2456 79.7769 23.3289 80.5364 23.2456C81.2734 23.1925 81.9678 22.88 82.4964 22.3636C83.0036 21.8486 83.4209 21.2524 83.7312 20.5996C84.0595 19.9626 84.3143 19.306 84.6279 18.6788C84.9185 18.0612 85.2891 17.4846 85.7304 16.9638C86.1503 16.4586 86.7038 16.0816 87.3278 15.876C87.9186 15.7067 88.545 15.7067 89.1359 15.876C89.6654 16.0259 90.1816 16.2193 90.6794 16.4542C91.5 16.8953 92.3956 17.1794 93.3205 17.2921C94.0225 17.3263 94.7243 17.218 95.3834 16.9736C95.9462 16.7628 96.4733 16.467 96.9465 16.0965C96.8422 16.2133 96.7255 16.3184 96.5986 16.4101C96.2371 16.6824 95.8397 16.9034 95.4177 17.0667C94.7499 17.3332 94.0341 17.4584 93.3156 17.4342C92.3709 17.3351 91.4533 17.0592 90.6108 16.6208C90.1201 16.3917 89.6101 16.2064 89.0869 16.0671C88.5329 15.9078 87.9454 15.9078 87.3915 16.0671C86.8072 16.2668 86.2899 16.6247 85.897 17.101C85.4737 17.6118 85.118 18.1751 84.8386 18.7768C84.2457 19.992 83.7851 21.4424 82.6679 22.5351C82.3812 22.811 82.0498 23.0363 81.6879 23.2015C81.3218 23.3583 80.9331 23.4559 80.5364 23.4906C79.7475 23.5739 78.9537 23.4906 78.1942 23.6278C77.8302 23.6847 77.4902 23.8445 77.2142 24.0884C76.956 24.3586 76.75 24.6743 76.6066 25.0194C76.3393 25.7193 76.1967 26.4606 76.1852 27.2097C76.2004 27.9619 76.086 28.7111 75.8471 29.4245C75.5112 30.0778 74.9803 30.6104 74.3281 30.9484C73.7503 31.2533 73.248 31.6836 72.8581 32.2077C72.5686 32.7525 72.4315 33.3653 72.4612 33.9815C72.4612 35.1869 72.7307 36.3384 72.6033 37.4115C72.5332 38.3665 72.2083 39.2853 71.6625 40.0722C71.2346 40.6588 70.6481 41.111 69.972 41.3756C69.5493 41.5455 69.0936 41.6175 68.6392 41.5863C68.4741 41.5764 68.311 41.5451 68.1541 41.4932Z" fill="#455A64"/>
<path d="M104.164 22.8144C104.124 22.3216 103.986 21.8418 103.757 21.4032C103.489 20.9418 103.135 20.536 102.714 20.2076C102.188 19.8138 101.618 19.4847 101.013 19.2276C100.372 18.9287 99.7395 18.6641 99.1956 18.3603C98.7047 18.0952 98.2515 17.7656 97.8481 17.3803C97.5767 17.1202 97.3499 16.8173 97.1768 16.4836C97.0998 16.3679 97.0527 16.2349 97.0396 16.0965C97.2962 16.5208 97.6094 16.9082 97.9706 17.248C98.3794 17.5947 98.8286 17.8908 99.3083 18.13C99.8424 18.4142 100.47 18.669 101.121 18.9679C101.744 19.2419 102.33 19.5925 102.866 20.0116C103.302 20.3647 103.659 20.8054 103.914 21.3052C104.09 21.6422 104.19 22.0134 104.208 22.393C104.224 22.535 104.209 22.6788 104.164 22.8144Z" fill="#455A64"/>
<path d="M93.1 25.1664C93.051 25.2252 92.8795 25.1664 92.61 25.0831C92.2484 24.9997 91.8786 24.9569 91.5075 24.9557C91.135 24.9516 90.7634 24.9911 90.4001 25.0733C90.1208 25.137 89.9493 25.2105 89.9101 25.1566C89.8709 25.1027 89.9738 24.9116 90.2727 24.7401C90.6581 24.5435 91.0846 24.441 91.5173 24.441C91.9499 24.441 92.3764 24.5435 92.7619 24.7401C93.0167 24.9263 93.1245 25.1223 93.1 25.1664Z" fill="#263238"/>
<path d="M100.234 26.1317C100.21 26.2689 99.7003 26.313 99.0878 26.2248C98.4753 26.1366 98 25.97 98 25.8083C98 25.6466 98.5341 25.6319 99.1466 25.7201C99.7591 25.8083 100.254 25.9945 100.234 26.1317Z" fill="#263238"/>
<path d="M83.0845 32.3792C83.0845 32.3792 83.1335 32.4135 83.207 32.5017C83.3125 32.6305 83.4014 32.7721 83.4716 32.9231C83.7251 33.4848 83.8004 34.1107 83.6872 34.7165C83.5281 35.5982 83.2322 36.4497 82.8101 37.24C82.576 37.6921 82.5001 38.2097 82.5945 38.71C82.7673 39.2353 83.0043 39.7373 83.3001 40.2045C83.5965 40.6953 83.7261 41.2688 83.6696 41.8393C83.6131 42.4099 83.3734 42.9468 82.9865 43.3699C82.6564 43.747 82.2186 44.0138 81.7321 44.1343C81.3209 44.2196 80.9025 44.2655 80.4826 44.2715C79.8931 44.2553 79.3108 44.4047 78.8019 44.7027C78.6273 44.8301 78.4736 44.9838 78.3462 45.1584C78.3462 45.1584 78.3462 45.0947 78.4099 44.9967C78.4951 44.8516 78.6084 44.725 78.7431 44.6243C79.2473 44.2813 79.8434 44.0986 80.4532 44.1C80.8606 44.0822 81.2657 44.028 81.6635 43.9383C82.1101 43.8205 82.5101 43.5692 82.8101 43.218C83.1388 42.8352 83.3498 42.3655 83.4177 41.8656C83.4713 41.3261 83.3511 40.7836 83.0747 40.3172C82.772 39.8287 82.5332 39.3033 82.3642 38.7541C82.2671 38.2092 82.3532 37.6474 82.6092 37.1567C82.8199 36.6667 83.0502 36.2796 83.1923 35.8631C83.3381 35.4818 83.4496 35.0882 83.5255 34.6871C83.6472 34.1113 83.6013 33.5127 83.3932 32.9623C83.2217 32.5752 83.0649 32.3939 83.0845 32.3792Z" fill="#263238"/>
<path d="M105.84 45.57C105.742 45.6151 105.634 45.6353 105.527 45.6288C105.371 45.6192 105.218 45.5783 105.078 45.5084C104.939 45.4385 104.814 45.3411 104.713 45.2221C104.545 45.039 104.421 44.8195 104.351 44.5806C104.282 44.3418 104.268 44.0902 104.311 43.8452C104.464 43.2125 104.794 42.6364 105.262 42.1841C105.822 41.6742 106.315 41.0964 106.732 40.4642C106.931 40.1053 107.028 39.6984 107.011 39.2882C106.983 38.851 106.88 38.4219 106.707 38.0191C106.267 37.1476 105.875 36.2529 105.531 35.3388C105.379 34.8205 105.379 34.2695 105.531 33.7512C105.725 33.2505 105.97 32.7711 106.262 32.3204C106.541 31.8992 106.652 31.389 106.575 30.8896C106.443 30.4146 106.182 29.9856 105.821 29.6499C105.482 29.2873 105.11 28.9492 104.796 28.5621C104.481 28.1823 104.253 27.7371 104.13 27.2587C103.939 26.3789 103.952 25.4669 104.169 24.5931C104.341 23.7797 104.576 23.0447 104.723 22.3636C105.032 21.2915 104.977 20.1474 104.566 19.11C104.395 18.7465 104.163 18.415 103.88 18.13C103.88 18.13 103.88 18.13 103.949 18.1741C104.012 18.2191 104.071 18.27 104.125 18.326C104.349 18.5523 104.528 18.8182 104.654 19.11C104.865 19.5483 104.993 20.0218 105.032 20.5065C105.076 21.1456 105.026 21.7878 104.885 22.4126C104.743 23.1035 104.522 23.8434 104.36 24.647C104.166 25.4902 104.166 26.3665 104.36 27.2097C104.47 27.6544 104.679 28.0683 104.973 28.42C105.272 28.7875 105.639 29.1158 105.992 29.4882C106.384 29.8506 106.671 30.3131 106.82 30.8259C106.906 31.3833 106.786 31.9529 106.482 32.4282C106.194 32.8632 105.951 33.3262 105.757 33.81C105.616 34.2899 105.616 34.8001 105.757 35.28C106.092 36.1847 106.475 37.0712 106.903 37.9358C107.085 38.3651 107.189 38.8228 107.212 39.2882C107.227 39.7368 107.119 40.1809 106.899 40.572C106.466 41.2138 105.954 41.7983 105.375 42.3115C104.92 42.7339 104.594 43.2756 104.434 43.8746C104.386 44.1001 104.391 44.3338 104.45 44.5568C104.508 44.7799 104.619 44.9859 104.772 45.1584C104.954 45.3909 105.219 45.5437 105.512 45.5847C105.732 45.57 105.84 45.5406 105.84 45.57Z" fill="#263238"/>
<path d="M125.068 52.1752C124.749 51.7616 124.393 51.3778 124.004 51.0286C123.566 50.7462 123.106 50.5004 122.627 50.2936C122.906 50.2767 123.185 50.3153 123.448 50.4069C123.711 50.4986 123.954 50.6416 124.161 50.8277C124.396 50.9791 124.597 51.1766 124.753 51.4082C124.909 51.6399 125.016 51.9008 125.068 52.1752Z" fill="#DFA991"/>
<path d="M117.762 79.0272C117.41 78.3293 117.17 77.5802 117.051 76.8075C116.854 76.0485 116.783 75.2621 116.841 74.48C117.036 75.2288 117.19 75.9878 117.301 76.7536C117.5 77.5016 117.654 78.2608 117.762 79.0272Z" fill="#DFA991"/>
<path d="M86.5146 73.5343C87.3739 73.2478 88.1306 72.7161 88.6913 72.0047C89.252 71.2934 89.5923 70.4334 89.6702 69.531C89.9348 66.9781 88.2002 64.7094 85.8531 64.4595C83.506 64.2096 81.3451 66.0863 81.0805 68.6392C80.9716 69.5465 81.1329 70.4657 81.5444 71.2816C81.9558 72.0975 82.599 72.7738 83.3933 73.2256C79.7183 73.4167 77.9396 75.6756 77.0723 77.6944C78.4311 79.6075 80.4331 80.9676 82.7122 81.5262L85.3582 81.8006C87.7356 81.7188 90.0011 80.7708 91.7282 79.135C91.2921 76.9839 90.0132 74.431 86.5146 73.5343Z" fill="white"/>
<g opacity="0.3">
<path d="M66.9731 71.8193L69.1487 69.5751C69.1487 69.5751 68.2079 85.7941 67.566 87.7443C66.9241 89.6945 63.5627 96.187 63.5627 96.187L66.4635 87.3131L66.9731 71.8193Z" fill="black"/>
</g>
<path d="M71.7901 66.8262C71.8391 66.8752 69.9281 68.9479 67.5173 71.4567C65.1065 73.9655 63.1073 75.9647 63.0534 75.9157C62.9995 75.8667 64.9203 73.794 67.3311 71.2803C69.7419 68.7666 71.7411 66.7772 71.7901 66.8262Z" fill="#263238"/>
<path d="M102.204 65.5571C102.213 65.7208 102.205 65.8851 102.18 66.0471C102.15 66.3705 102.097 66.8409 102.018 67.424C101.861 68.5804 101.597 70.1778 101.234 71.9222C100.872 73.6666 100.475 75.2395 100.156 76.3665C99.9944 76.93 99.8572 77.3808 99.7543 77.6944C99.7159 77.8658 99.6532 78.0308 99.5681 78.1844C99.5808 78.0185 99.6104 77.8543 99.6563 77.6944C99.7494 77.322 99.8523 76.8761 99.9797 76.3518C100.254 75.215 100.622 73.647 100.984 71.9026C101.347 70.1582 101.636 68.5755 101.842 67.424C101.935 66.8948 102.013 66.444 102.082 66.0618C102.099 65.8886 102.14 65.7187 102.204 65.5571Z" fill="#263238"/>
<path d="M92.3406 34.643C92.4511 34.5489 92.5801 34.479 92.7192 34.4376C92.8583 34.3962 93.0046 34.3843 93.1485 34.4026C93.2925 34.421 93.4311 34.4691 93.5554 34.544C93.6798 34.6189 93.7871 34.7189 93.8706 34.8376C93.9541 34.9564 94.0119 35.0912 94.0403 35.2335C94.0687 35.3759 94.0672 35.5226 94.0357 35.6643C94.0042 35.806 93.9435 35.9395 93.8575 36.0564C93.7715 36.1734 93.6621 36.271 93.5362 36.3433C93.4079 36.4119 93.2667 36.4533 93.1217 36.4647C92.9766 36.4761 92.8307 36.4573 92.6932 36.4095C92.5558 36.3618 92.4297 36.286 92.323 36.1871C92.2162 36.0882 92.1311 35.9682 92.0731 35.8348C92.015 35.7013 91.9852 35.5573 91.9856 35.4118C91.986 35.2662 92.0165 35.1224 92.0752 34.9892C92.134 34.8561 92.2197 34.7365 92.3269 34.6381C92.4341 34.5398 92.5606 34.4647 92.6983 34.4176" fill="#92E3A9"/>
<path d="M92.4434 33.5503C92.5708 33.5503 92.4434 34.4127 93.1 35.1134C93.7566 35.8141 94.668 35.8533 94.6582 35.9709C94.6484 36.0885 94.4328 36.1081 94.0457 36.064C93.5458 36.0039 93.0837 35.7677 92.7423 35.3976C92.4161 35.0431 92.2404 34.5758 92.2523 34.0942C92.2621 33.7316 92.3846 33.5356 92.4434 33.5503Z" fill="#263238"/>
<path d="M81.5704 20.8593C82.1312 20.1657 82.4921 19.3321 82.6141 18.4485C82.6174 17.8164 82.3904 17.2047 81.9756 16.7276C81.5608 16.2506 80.9866 15.9409 80.3601 15.8564C79.7273 15.8119 79.0986 15.9877 78.5807 16.3539C78.0627 16.72 77.6873 17.254 77.5181 17.8654C77.3849 18.486 77.4561 19.1329 77.7211 19.7097C77.986 20.2864 78.4305 20.7619 78.9881 21.0651C79.5575 21.345 80.1989 21.4438 80.8261 21.3483C81.4533 21.2528 82.0362 20.9676 82.4965 20.531" fill="#263238"/>
<path d="M82.6926 18.3162C82.7593 18.9558 82.5845 19.5972 82.2026 20.1145C81.888 20.6764 81.3739 21.0997 80.762 21.3003C81.2144 20.9005 81.6249 20.4556 81.987 19.9724C82.2783 19.4459 82.5147 18.891 82.6926 18.3162Z" fill="#455A64"/>
<path d="M81.1831 21.07C81.2027 20.1512 81.0938 19.2343 80.8597 18.3456C80.5477 17.4723 80.1139 16.6475 79.571 15.8956C79.571 15.8956 79.8454 16.0671 80.1688 16.4689C80.589 16.9964 80.9065 17.5981 81.1047 18.2427C81.3073 18.8853 81.3903 19.5596 81.3497 20.2321C81.3565 20.5203 81.2996 20.8063 81.1831 21.07Z" fill="#455A64"/>
<path d="M98.4606 110.696C105.332 110.696 110.902 105.126 110.902 98.2548C110.902 91.3838 105.332 85.8137 98.4606 85.8137C91.5896 85.8137 86.0195 91.3838 86.0195 98.2548C86.0195 105.126 91.5896 110.696 98.4606 110.696Z" fill="#92E3A9"/>
<g opacity="0.3">
<path d="M98.4606 110.696C105.332 110.696 110.902 105.126 110.902 98.2548C110.902 91.3838 105.332 85.8137 98.4606 85.8137C91.5896 85.8137 86.0195 91.3838 86.0195 98.2548C86.0195 105.126 91.5896 110.696 98.4606 110.696Z" fill="black"/>
</g>
<path d="M98.4606 108.388C105.332 108.388 110.902 102.818 110.902 95.9469C110.902 89.0759 105.332 83.5058 98.4606 83.5058C91.5896 83.5058 86.0195 89.0759 86.0195 95.9469C86.0195 102.818 91.5896 108.388 98.4606 108.388Z" fill="#92E3A9"/>
<path d="M98.4607 103.307C98.1079 103.307 97.8188 100.009 97.8188 95.9567C97.8188 91.9044 98.1079 88.6067 98.4607 88.6067C98.8135 88.6067 99.0977 91.9044 99.0977 95.9567C99.0977 100.009 98.8086 103.307 98.4607 103.307Z" fill="white"/>
<path d="M105.84 95.9469C105.84 96.2997 102.547 96.5839 98.4901 96.5839C94.4329 96.5839 91.1401 96.2997 91.1401 95.9469C91.1401 95.5941 94.4329 95.3099 98.4901 95.3099C102.547 95.3099 105.84 95.5941 105.84 95.9469Z" fill="white"/>
</g>
<defs>
<clipPath id="clip0_17_3576">
<rect width="245" height="245" fill="white"/>
</clipPath>
</defs>
</svg>
